<svg xmlns="http://www.w3.org/2000/svg" viewBox="0 0 24.3 18">
    <path d="M20.1 5h-.5c-.2 0-.4.2-.4.4v.3l-.3-.5c0-.1-.2-.2-.3-.2h-.8c-.2 0-.4.2-.4.4v.4l-.2-.5c0-.2-.2-.3-.3-.3h-.8c-.1 0-.2 0-.2.1-.1-.1-.2-.1-.3-.1h-.5c-.4 0-.8.1-1 .4 0-.2-.2-.4-.4-.4h-.5c-.1 0-.3.1-.3.2l-.1-.1c-.3-.1-.5-.1-.8-.1h-1.2c-.1 0-.1 0-.2.1-.1-.1-.2-.1-.2-.1H8.6c-.1 0-.2 0-.2.1-.1-.1-.2-.1-.2-.1h-.9c-.2 0-.3.1-.4.3l-.3.8-.3-.8c-.1-.2-.2-.3-.4-.3H5c-.2 0-.3.2-.3.4v.4l-.2-.5c-.1-.2-.2-.3-.4-.3h-.8c-.1 0-.2.1-.3.3L2 7.9v.4c.1.1.2.2.3.2H3c.1 0 .3-.1.3-.3l.1-.3H4l.1.3c.1.2.2.3.3.3h1.1c.3 0 .5-.2.5-.4v.1c.1.2.2.3.3.3h.5c.1 0 .3-.1.3-.3l.1-.2c0 .2.2.4.4.4h.6c.1 0 .1 0 .2-.1.1 0 .1.1.2.1h1.8c.1 0 .1 0 .2-.1.1 0 .1.1.2.1h.5c.2 0 .4-.2.4-.4v-.5h.3V8c0 .2.2.4.4.4h.5c.1 0 .1 0 .2-.1.1 0 .1.1.2.1h.5c.2 0 .3-.2.4-.3.3.3.7.3 1 .3h.6c.2 0 .3-.1.3-.3l.1-.3h.6l.1.3c.1.2.2.3.3.3h1.1c.2 0 .4-.2.4-.4v-.4l.3.7c.1.1.2.2.3.2h.8c.2 0 .4-.2.4-.4V5.4c0-.2-.2-.4-.4-.4zm-9.4 3.1V5.4H12c.3 0 .5 0 .7.1.2.1.3.3.3.6 0 .4-.2.6-.4.7.1.1.2.1.3.2.1.1.1.2.1.5V8h-.5v-.3c0-.2 0-.4-.1-.5-.1-.1-.2-.1-.4-.1h-.6v1h-.7zm-2.1 0V5.4h1.8V6H9.1v.5h1.2V7H9.1v.5h1.3V8H8.6zm10.9-.8V5.4h.5V8h-.8l-1-2v2h-1.1l-.1-.5h-1.1l-.2.6h-.6c-.3 0-.6-.1-.8-.3-.2-.2-.3-.5-.3-1 0-.4.1-.7.3-1 .2-.2.4-.3.8-.3h.5V6h-.5c-.2 0-.3 0-.4.2-.1.1-.2.3-.2.6s0 .5.1.6c.1.1.2.1.4.1h.2l.8-2.1h.8l.9 2.5V5.4h.8l1 1.9zm-6.3.8V5.4h.5V8h-.5zm-6.6-.9l.6-1.8h.9V8h-.5V5.9l-.8 2.2h-.5L5.6 6v2.1H4.5l-.2-.6H3.2l-.2.6h-.6l1-2.6h.8L5 7.9V5.4h.9l.7 1.8zm8.5-.1H15v-.6h.3l-.2.6zm1.4-1.2l-.4 1h.7l-.3-1zm-12.8 0l-.4 1H4l-.3-1zm8.2.1h-.7v.6h.7c.1 0 .2 0 .3-.1.1 0 .1-.1.1-.2s0-.2-.1-.2c-.1-.1-.2-.1-.3-.1zm9.7 3.5h-1.1c-.3 0-.6.1-.8.3-.1-.2-.2-.3-.3-.3h-1.1c-.3 0-.5.1-.7.2-.1-.1-.2-.2-.3-.2h-1.8c-.1 0-.3.1-.3.2l-.1-.1c-.3-.2-.5-.2-.8-.2H13c-.1 0-.3.1-.3.2-.2-.1-.5-.2-.8-.2h-1.7c-.1 0-.2 0-.3.1l-.4.5-.4-.3c-.1-.1-.2-.2-.3-.2H6.6c-.2 0-.4.2-.4.4v2.6c0 .2.2.4.4.4h2.1c.2.1.3 0 .3 0l.4-.5.4.5c.1 0 .2.1.3.1h1c.2 0 .4-.2.4-.4v-.4h.3c.4 0 .6-.1.8-.2v.7c0 .2.2.4.4.4h.5c.2 0 .4-.2.4-.4V12h.3v.5c0 .2.2.4.4.4h4.1c.3 0 .6-.1.8-.3.1.2.2.3.3.3h1c.8 0 1.2-.5 1.2-1.3 0-.4-.1-.6-.3-.9.1-.1.2-.2.2-.4v-.4c0-.2-.1-.4-.3-.4zm-1.8 3.1V12h1c.1 0 .2 0 .2-.1 0 0 .1-.1.1-.2s0-.1-.1-.2c0 0-.1-.1-.2-.1-.5 0-1.1 0-1.1-.8 0-.4.2-.8.8-.8h1.1v.6h-1.2c-.1 0-.1.1-.1.2s.1.2.1.2h.5c.3 0 .5.1.6.2.1.1.2.3.2.6 0 .6-.3.8-.8.8h-1.1zm-2.2 0V12h1c.1 0 .2 0 .2-.1 0 0 .1-.1.1-.2s0-.1-.1-.2c0 0-.1-.1-.2-.1-.5 0-1.1 0-1.1-.8 0-.4.2-.8.8-.8h1.1v.6h-1.2c-.1 0-.1.1-.1.2s0 .2.1.2h.5c.3 0 .5.1.6.2.1.1.2.3.2.6 0 .6-.3.8-.8.8h-1.1zm-2.1 0V9.9h1.8v.5H16v.6h1.2v.5H16v.5h1.3v.5h-1.8zm-2.5 0V9.9h1.2c.3 0 .5 0 .6.1.2.1.3.3.3.6 0 .4-.2.6-.4.7.1.1.2.1.3.2.1.1.1.2.1.5v.5h-.5v-.3c0-.2 0-.4-.1-.5-.1-.1-.2-.1-.4-.1h-.6v1H13zm-3.5-1.8l.7-.9h1.7c.4 0 .9.1.9.9 0 .7-.5.9-.9.9h-.7v.9h-1l-.7-.9-.7.9H6.6V9.9h2.2l.7.9zm1.1-.6l-.8 1 .8 1.1v-2.1zm1.3.3h-.7v.7h.7c.2 0 .3-.1.3-.3 0-.3-.1-.4-.3-.4zm2.3 0h-.7v.6h.7c.1 0 .2 0 .3-.1.1 0 .1-.1.1-.3 0-.1 0-.2-.1-.2h-.3zm-5.7 0H7.2v.5h1.2v.5H7.2v.5h1.3l.6-.8-.6-.7z"/>
    <path d="M22 18H2c-1.1 0-2-.9-2-2V2C0 .9.9 0 2 0h20c1.1 0 2 .9 2 2v14c0 1.1-.9 2-2 2zM2 1c-.6 0-1 .4-1 1v14c0 .6.4 1 1 1h20c.6 0 1-.4 1-1V2c0-.6-.5-1-1-1H2z"/>
</svg>
