<svg xmlns="http://www.w3.org/2000/svg" viewBox="0 0 342 189.9">
    <path d="M195 180.6a12.22 12.22 0 01-4.5 1.3 1.88 1.88 0 01-1.3-.3c-.2-.2-.3-.4-.3-1a18.73 18.73 0 01.5-3.1l8.1-37.3-.4-.3c-4.7-3.3-11-4.4-14.9-4.4-19.3 0-34.1 17.6-34.1 35.8 0 5.6 1.6 10.3 4.6 13.5s7.3 5.1 12.6 5.1h.1a20.37 20.37 0 0014.3-5.8 6.85 6.85 0 001.9 3.3 8.07 8.07 0 005.7 2h.1a15.54 15.54 0 007.3-2l.2-.1.1-.1 1.6-7.5zm-12-18.1l-.1.3a.37.37 0 01-.1.3v.1c-1.4 6.6-3.2 11.4-5.7 14.3a12.56 12.56 0 01-10 4.8 8 8 0 01-6.7-2.9c-1.5-1.9-2.4-4.8-2.4-8.5a31.09 31.09 0 017.2-19.3c4.4-5.3 10.4-8.9 17-8.9a13.5 13.5 0 015 1zm59.6 19.8a1.88 1.88 0 01-1.3-.3 1.57 1.57 0 01-.4-1 18.73 18.73 0 01.5-3.1l4-18.3a43.21 43.21 0 001.5-10 12.72 12.72 0 00-4.8-10.5 18 18 0 00-11.4-3.5h-.5a30.38 30.38 0 00-12.7 2.9c-5.5 2.6-11.2 7.6-13.5 17l-.1.3-.1.4-7.1 32.8h9.6l5.1-23.4c1.5-6.8 3.1-12.6 6.1-16.3a14.54 14.54 0 0111.3-5.8 9.43 9.43 0 016.1 1.8 7.07 7.07 0 012.2 5.4 37.87 37.87 0 01-1 7.5l-4.1 18.7a50.32 50.32 0 00-.8 5.6 6.78 6.78 0 002.6 5.7 9.18 9.18 0 005.5 1.7 15.36 15.36 0 007.3-2l.2-.1.1-.1 1.4-7.4-1.4.8a10.64 10.64 0 01-4.3 1.2m22-29.8c3.4-5.6 8.3-9.6 14.5-9.6 2.6 0 4.3.8 5.4 2.1a8.64 8.64 0 011.5 3.5l9.1-1.8a13.64 13.64 0 00-3.9-7.4c-2.8-2.6-6.7-3.9-11.3-3.9-9.2 0-16.8 4.7-22 11.4a39.83 39.83 0 00-8.1 23.9c0 6.2 2 11.1 5.6 14.3s8.6 4.8 14.6 4.8a30.82 30.82 0 0016.9-4.9l.1-.1.1-.1 1.8-8.7-1.5 1c-4.4 2.9-10.8 5.2-16.1 5.2-4 0-6.8-1.1-8.8-3s-3-4.9-3-8.9a35.08 35.08 0 015.1-17.8M177.9 76c-1.9.1-7.4-.3-14.8-9.3s-25.1-40-34.5-47.1S95.2-.1 0 0c0 0 .8 4 10.9 6.6S119.1 24.7 135.8 92c0 0 1.3 3.9-3.4 5.9-3.9 1.7-33.3 14.3-39.6 21 0 0-.6.6.3 1.8a2.72 2.72 0 002.9 1.1 186.71 186.71 0 0126.3-2.6c14.1-.4 18.4 1.7 45.4 1s45-17.9 58-27.7c3.9-3 18.2-1.3 18.2-1.3s-4.3-3.5-13.1-5a11.37 11.37 0 01-5.3-2.7s-8.9-8.2-26.1-6.2c0 0 31.4-47.2 103.8-57.5 0 0-74-5.4-120.8 53.7-.1 0-1.9 2.5-4.5 2.5m154 60.6L313.2 170c-1.1 1.9-2.3 4.1-3.4 6.3-.1-1.9-.3-3.8-.6-5.8l-4.2-34.1h-9.9l7.8 52.5h8.8l30.3-52.5h-10z"/>
</svg>
