<svg xmlns="http://www.w3.org/2000/svg" viewBox="0 0 32 42">
    <path d="M16 21c-3.802 0-6.562-3.036-6.562-7.219v-2.194a3.412 3.412 0 01.86-2.296l1.633-1.816a2.705 2.705 0 012.001-.912h.157A2.662 2.662 0 0116 7.377a2.662 2.662 0 011.911-.816h.157a2.706 2.706 0 012 .913l1.635 1.817c.561.632.867 1.45.86 2.295v2.194c0 4.184-2.76 7.22-6.563 7.22zM13.932 7.875a1.378 1.378 0 00-1.024.478l-1.633 1.819a2.138 2.138 0 00-.525 1.417v2.192c0 3.423 2.208 5.906 5.25 5.906s5.25-2.483 5.25-5.906v-2.194a2.137 2.137 0 00-.525-1.417L19.09 8.353a1.378 1.378 0 00-1.022-.478h-.157a1.467 1.467 0 00-1.313.925.656.656 0 01-1.196 0 1.467 1.467 0 00-1.313-.925h-.157z"/>
    <path d="M21.25 16.406v-1.312a1.969 1.969 0 001.969-1.969.656.656 0 00-.657-.656H21.25v-1.313h1.313a1.97 1.97 0 011.968 1.969 3.285 3.285 0 01-3.281 3.281zm-10.5 0a3.285 3.285 0 01-3.281-3.281 1.969 1.969 0 011.968-1.969h1.313v1.313H9.437a.656.656 0 00-.656.656 1.969 1.969 0 001.969 1.969v1.312z"/>
    <path d="M23.875 12.469h-1.313v-1.414c0-3.925-2.944-7.117-6.562-7.117a6.157 6.157 0 00-4.413 1.883 7.499 7.499 0 00-2.068 5.458v.719H8.207v-.71a8.785 8.785 0 012.444-6.386A7.454 7.454 0 0116 2.625c4.342 0 7.875 3.782 7.875 8.43v1.414z"/>
    <path d="M20.594 4.594H19.28a3.281 3.281 0 00-6.562 0h-1.313a4.594 4.594 0 019.188 0zM16 36.75a4.266 4.266 0 110-8.532 4.266 4.266 0 010 8.532zm0-7.219a2.954 2.954 0 100 5.908 2.954 2.954 0 000-5.908z"/>
    <path d="M15.11 35.578h-1.313v-.373a3.75 3.75 0 012.165-3.308 2.444 2.444 0 001.444-2.133v-.373h1.313v.373a3.748 3.748 0 01-2.166 3.308 2.443 2.443 0 00-1.444 2.133v.373zm3.515-21.14a1.969 1.969 0 01-1.969-1.97h1.313a.656.656 0 101.312 0h1.313a1.969 1.969 0 01-1.969 1.97zm-5.25 0a1.969 1.969 0 01-1.969-1.97h1.313a.656.656 0 101.312 0h1.313a1.969 1.969 0 01-1.969 1.97zm10.172 26.338l-.656-1.138 7.222-4.172a.643.643 0 00.267-.818l-1.682-3.524 1.181-.566 1.689 3.536a1.957 1.957 0 01-.797 2.507l-7.224 4.175z"/>
    <path d="M25.823 31.997l-1.273.318.657 2.625 1.272-.318-.656-2.625z"/>
    <path d="M21.25 42h-4.266a2.297 2.297 0 010-4.594h2.786l7.072-3.857.629 1.152-6.45 3.518.693.692c.123.123.192.29.192.464v1.969a.656.656 0 01-.656.656zm-4.266-3.281a.984.984 0 100 1.968h3.61v-1.04l-.928-.928h-2.682z"/>
    <path d="M22.511 37.005l-1.21-.51 1.296-3.084c.196-.469.281-.977.249-1.484l-.251-2.683-9.582-6.388.729-1.092 9.844 6.562a.657.657 0 01.289.485l.282 3.012a4.648 4.648 0 01-.348 2.1l-1.298 3.082zM8.453 40.777l-7.225-4.174a1.954 1.954 0 01-.805-2.498l1.691-3.544 1.182.566-1.687 3.531a.642.642 0 00.276.81l7.22 4.171-.652 1.138z"/>
    <path d="M15.606 38.916a.975.975 0 00-.59-.197h-2.954a.656.656 0 01-.314-.08L4.53 34.7l.629-1.152 7.072 3.857h2.785a2.28 2.28 0 011.379.46l-.788 1.05z"/>
    <path d="M6.175 31.998l-.655 2.625 1.272.318.656-2.625-1.273-.318zM15.016 42H10.75a.656.656 0 01-.656-.656v-1.97c0-.173.069-.34.192-.463l1.313-1.313.928.928-1.12 1.12v1.041h3.609c.213 0 .42-.068.59-.197l.788 1.05c-.397.3-.881.461-1.378.46zm-5.527-4.995L8.193 33.92a4.631 4.631 0 01-.349-2.079l.281-3.027v-1.252h1.312v1.313l-.284 3.073a3.28 3.28 0 00.25 1.466l1.296 3.084-1.21.507zm9.398-15.218l-2.625 1.968.787 1.05 2.625-1.968-.787-1.05zm-9.123.612l-.652 1.14 13.782 7.875.651-1.14L9.764 22.4zm11.743.053l-3.282 2.626.82 1.026 3.282-2.627-.82-1.025z"/>
    <path d="M8.623 33.45L.748 31.48a.656.656 0 01-.373-1.022l5.25-7.219a.666.666 0 01.414-.26l6.68-1.214v-2.078h1.312v2.625a.656.656 0 01-.538.646l-6.96 1.266-4.524 6.22 6.931 1.732-.317 1.273zm17.647-8.123l-.802-1.104-6.96-1.265a.656.656 0 01-.54-.645v-2.625h1.313v2.077l6.68 1.215c.166.03.314.123.414.26l.956 1.315-1.061.772zm-2.892 8.123l-.318-1.274 6.93-1.733-2.767-3.806 1.061-.771 3.34 4.593a.657.657 0 01-.371 1.023l-7.875 1.967z"/>
    <path d="M2.407 28.246l-.377 1.257 6.562 1.97.378-1.258-6.563-1.969zm27.186.001l-6.563 1.967.377 1.257 6.563-1.966-.377-1.258zm-5.718-.684h-1.313v1.312h1.313v-1.313z"/>
</svg>
