<svg xmlns="http://www.w3.org/2000/svg" viewBox="0 0 24 40">
    <path d="M18.125 20h-12.5A.625.625 0 015 19.423l-.144-1.875 1.246-.096.102 1.298h11.342l.29-3.78L6.616 3.75H5.05l.957 12.453-1.246.095L3.75 3.173a.625.625 0 01.625-.673h2.5c.166 0 .325.066.442.183L18.923 14.29a.624.624 0 01.181.49l-.354 4.644a.624.624 0 01-.625.577zm.625-8.125a.625.625 0 01-.442-.183l-5-5a.625.625 0 010-.884l3.125-3.125a.625.625 0 01.442-.183h2.5a.625.625 0 01.625.673l-.625 8.125a.625.625 0 01-.625.577zM14.634 6.25l3.597 3.597.469-6.097h-1.566l-2.5 2.5z"/>
    <path d="M18.481 15.356a.625.625 0 01-.442-.183L6.433 3.567a.625.625 0 01-.117-.721l1.25-2.5a.625.625 0 011-.163L19.19 10.808a.625.625 0 01.18.49l-.268 3.481a.624.624 0 01-.622.577zM7.636 3l10.326 10.33.143-1.84-9.809-9.81L7.636 3z"/>
    <path d="M13.75 6.875a.625.625 0 01-.442-.183l-1.875-1.875a.625.625 0 010-.884l3.75-3.75a.626.626 0 011 .163l1.25 2.5a.625.625 0 01-.117.72L14.19 6.693a.625.625 0 01-.441.183zm-.991-2.5l.991.991L16.114 3l-.66-1.32-2.695 2.695z"/>
    <path d="M11.875 5a.625.625 0 01-.442-.183l-3.75-3.75A.625.625 0 018.125 0h7.5a.625.625 0 01.442 1.067l-3.75 3.75a.625.625 0 01-.442.183zM9.634 1.25l2.241 2.241 2.241-2.241H9.634zM17.5 22.5H6.25a.625.625 0 01-.625-.625v-2.5a.625.625 0 01.625-.625H17.5a.624.624 0 01.625.625v2.5a.624.624 0 01-.625.625zM6.875 21.25h10V20h-10v1.25z"/>
    <path d="M20.625 40h-17.5a.625.625 0 01-.625-.625c.065-4.083.37-8.159.914-12.206.187-1.572.336-2.812.336-3.42a2.43 2.43 0 012.5-2.5l.004 1.25A1.178 1.178 0 005 23.75c0 .681-.144 1.892-.345 3.568a107.392 107.392 0 00-.902 11.433H20c-.097-3.824-.398-7.64-.902-11.433-.204-1.676-.348-2.887-.348-3.567a1.177 1.177 0 00-1.25-1.25v-1.25a2.43 2.43 0 012.5 2.5c0 .606.148 1.847.336 3.42.543 4.046.849 8.122.914 12.205a.625.625 0 01-.625.625z"/>
    <path d="M15.912 32.556a173.53 173.53 0 00-.567-5.237c-.2-1.677-.345-2.889-.345-3.57a1.177 1.177 0 00-1.25-1.25v-1.25a2.43 2.43 0 012.5 2.5c0 .607.148 1.849.336 3.422.175 1.466.393 3.292.57 5.273l-1.244.111zm.191 2.483a81.228 81.228 0 00-.087-1.24l1.247-.097c.031.414.062.835.088 1.26l-1.248.077zm1.397 4.336h-1.25c0-.977-.026-2.018-.077-3.095l1.25-.063c.05 1.1.077 2.158.077 3.158zm5.625-13.75h-3.75v-1.25H22.5V22.5c0-7.316-3.684-19.069-3.721-19.188l1.192-.375c.154.488 3.78 12.053 3.78 19.563V25a.625.625 0 01-.626.625zm-18.75 0H.625A.625.625 0 010 25v-2.5C0 14.99 3.625 3.425 3.779 2.937l1.192.375C4.934 3.432 1.25 15.184 1.25 22.5v1.875h3.125v1.25z"/>
    <path d="M4.375 20H.625v1.25h3.75V20zm18.75 0h-3.75v1.25h3.75V20z"/>
</svg>
