<svg xmlns="http://www.w3.org/2000/svg" viewBox="0 0 39 41">
    <path d="M29.154 4.92l.94-.87C27.614 1.362 24.049 0 19.5 0c-4.767 0-8.375 1.303-10.724 3.873l.946.868c2.096-2.298 5.386-3.46 9.778-3.46 4.177 0 7.424 1.224 9.654 3.638z"/>
    <path d="M23.528 8.835l.785-1.014C20.577 4.933 15.186 3.203 9.89 3.203v1.281c4.946 0 10.171 1.666 13.637 4.35zm3.66 5.899h1.28v3.844h-1.28v-3.844zM19.5 30.75a8.978 8.978 0 008.969-8.969V19.86h-1.282v1.922a7.688 7.688 0 01-15.375 0v-5.125h-1.28v5.125A8.979 8.979 0 0019.5 30.75zm-8.969-16.016h1.281v.641h-1.28v-.64z"/>
    <path d="M15.95 9.033a13.212 13.212 0 016.113-1.345V6.406a14.492 14.492 0 00-6.701 1.49l.588 1.137zm12.385-1.488l.805-.997C25.057 3.25 18.819 1.281 12.453 1.281v1.282c5.992 0 12.077 1.909 15.882 4.982zM12.133 6.118a6.895 6.895 0 013.523-.993V3.844a8.163 8.163 0 00-4.168 1.169l.645 1.105zM1.562 40.36h1.282v-.641a5.772 5.772 0 015.765-5.766h5.766a1.922 1.922 0 001.922-1.922v-3.203h-1.281v3.203a.64.64 0 01-.641.64H8.609a7.055 7.055 0 00-7.047 7.048v.64zm34.594 0h1.282v-.641a7.056 7.056 0 00-7.047-7.047h-5.766a.64.64 0 01-.64-.64v-3.204h-1.282v3.203a1.922 1.922 0 001.922 1.922h5.766a5.772 5.772 0 015.765 5.766v.64zm-20.5-21.782a2.425 2.425 0 002.563-2.562h-1.282a1.16 1.16 0 01-1.28 1.28 1.161 1.161 0 01-1.282-1.28h-1.281a2.425 2.425 0 002.562 2.562zm7.688 0a2.425 2.425 0 002.562-2.562h-1.281a1.16 1.16 0 01-1.281 1.28 1.16 1.16 0 01-1.282-1.28h-1.28a2.425 2.425 0 002.562 2.562z"/>
    <path d="M11.172 23.063a.64.64 0 00.64-.641v-5.766h-1.28v4.485l-.77-.577a1.927 1.927 0 01-.725-1.135L7.38 12.314a1.927 1.927 0 01-.052-.437V9.694c0-.593-.165-1.174-.476-1.68L2.71 1.282h4.826l2.401 6.004a.641.641 0 00.44.384l4.413 1.103a.64.64 0 01.46.441l.995 4.662a.6.6 0 00.029.095.361.361 0 01-.013.288.393.393 0 01-.236.204.41.41 0 01-.507-.223l-.413-1.014c-.038-.094-.08-.206-.128-.33-.336-.924-.966-2.645-2.523-2.645a.68.68 0 00-.152.018c-1.043.255-1.77 1.546-1.77 2.544v2.563h1.281v-2.563a1.61 1.61 0 01.723-1.275c.614.088 1.004 1.153 1.24 1.798.053.14.1.267.143.373l.413 1.014a1.691 1.691 0 003.086.085c.187-.389.213-.836.07-1.244l-.998-4.665A1.945 1.945 0 0015.1 7.53l-4.096-1.025L8.563.403A.64.64 0 007.97 0H1.562a.64.64 0 00-.545.976l4.745 7.712c.187.302.285.65.285 1.006v2.183c0 .245.028.489.084.727l1.654 7.104c.163.752.592 1.42 1.209 1.881l1.793 1.345a.643.643 0 00.385.128zm16.656 0a.641.641 0 00.384-.129l1.794-1.345a3.2 3.2 0 001.21-1.892l1.653-7.093c.056-.238.084-.482.084-.727V9.694c0-.355.098-.704.284-1.006L37.983.976A.641.641 0 0037.438 0H31.03a.64.64 0 00-.595.403l-2.44 6.102L23.9 7.53a1.928 1.928 0 00-1.378 1.322l-1.01 4.712c-.142.408-.117.855.07 1.244a1.691 1.691 0 003.087-.086l.413-1.013c.043-.105.09-.232.142-.373.237-.646.627-1.71 1.24-1.798a1.61 1.61 0 01.724 1.274v5.766h1.28v-5.765c0-1-.726-2.29-1.769-2.545a.68.68 0 00-.152-.018c-1.557 0-2.187 1.72-2.526 2.645-.046.123-.087.235-.128.33l-.413 1.013a.41.41 0 01-.509.223.39.39 0 01-.27-.346.361.361 0 01.023-.146.609.609 0 00.028-.095l1.008-4.708a.64.64 0 01.448-.395l4.416-1.103a.641.641 0 00.44-.384l2.4-6.003h4.827l-4.144 6.734a3.197 3.197 0 00-.475 1.679v2.183c0 .147-.017.293-.05.436l-1.654 7.104a1.934 1.934 0 01-.73 1.147l-.77.577v-1.282h-1.28v2.563a.64.64 0 00.64.64zM19.5 26.906a2.562 2.562 0 002.563-2.562H20.78a1.281 1.281 0 11-2.562 0h-1.282a2.563 2.563 0 002.563 2.562z"/>
</svg>
