<svg xmlns="http://www.w3.org/2000/svg" viewBox="0 0 22 18">
    <path d="M20.4 10.5L18.9 6V2.5c0-1-.8-1.7-1.7-1.7H4.8c-1 0-1.7.8-1.7 1.7v3.4l-1.5 4.5c-.5.4-.8 1-.8 1.6v1c0 .1.1.3.1.4l.2.2v2.1c0 .9.7 1.6 1.5 1.6.7 0 1.2-.4 1.4-1.1h13.8c.2.6.8 1.1 1.4 1.1.9 0 1.5-.7 1.5-1.6v-2.1c.1 0 .2-.1.2-.1.1-.1.1-.2.1-.4v-1c.2-.6-.1-1.2-.6-1.6zm-.6 5.2c0 .3-.2.5-.5.5s-.5-.2-.5-.5c0-.1-.1-.3-.1-.4-.1-.1-.2-.1-.4-.1H3.7c-.1 0-.3.1-.4.1-.1.1-.1.2-.1.4 0 .3-.2.5-.5.5s-.5-.2-.5-.5v-2.1h17.7v2.1zM12.4 4.4c0-.2.1-.3.3-.3h3.2c.2 0 .3.1.3.3v1.2h-3.8V4.4zm-6.6 0c0-.2.1-.3.3-.3h3.2c.2 0 .3.1.3.3v1.2H5.8V4.4zm10.1-1.3h-3.2c-.7 0-1.3.6-1.3 1.3v1.2h-.8V4.4c0-.7-.6-1.3-1.3-1.3H6.1c-.7 0-1.3.6-1.3 1.3v1.2h-.7V2.5c0-.4.3-.7.7-.7h12.3c.4 0 .7.3.7.7v3.1h-.7V4.4c.1-.7-.4-1.3-1.2-1.3zm-13.1 7L4 6.6h14l1.2 3.6H2.8zm17.4 2v.5H1.8v-.5c0-.5.4-.9.9-.9h16.6c.5 0 .9.4.9.9z"/>
</svg>
