<svg xmlns="http://www.w3.org/2000/svg" viewBox="0 0 16 18">
    <path d="M11 17.2H1.7c-.8 0-1.5-.7-1.5-1.5V2.4C.2 1.6.9.9 1.7.9h7.2L9 1l3.3 3.3s.1.1.1.2v3l.2-.2c.3-.3.6-.4 1-.4.8 0 1.4.6 1.4 1.4 0 .4-.2.7-.4 1l-.6.7-1.5 1.5v4.1c0 .9-.7 1.6-1.5 1.6zM1.7 1.9c-.3 0-.5.2-.5.5v13.3c0 .3.2.5.5.5H11c.3 0 .5-.2.5-.5v-3.1l-.8.8c-.1.1-.2.1-.3.1l-1.7.3H3.3c-.3 0-.5-.2-.5-.5s.2-.5.5-.5h4.9l.3-1.3c0-.1.1-.2.1-.3l2.9-2.9V5.2H9.7c-.8 0-1.5-.7-1.5-1.5V1.9H1.7zM9.4 12l-.2.8.8-.2 2.9-2.9-.6-.6L9.4 12zM13 8.4l.6.6.4-.4c.1-.1.1-.2.1-.3 0-.4-.5-.6-.8-.3l-.3.4zM9.2 2.6v1.1c0 .3.2.5.5.5h1.1L9.2 2.6zM8 11.9H3.3c-.3 0-.5-.2-.5-.5s.2-.5.5-.5H8c.3 0 .5.2.5.5s-.2.5-.5.5zm1.3-2h-6c-.3 0-.5-.2-.5-.5s.2-.5.5-.5h6c.3 0 .5.2.5.5s-.2.5-.5.5z"/>
</svg>
