<svg xmlns="http://www.w3.org/2000/svg" viewBox="0 0 15 14">
    <path d="M10.8 6.4c-.1 0-.2 0-.2-.1-.2-.1-.3-.3-.3-.4v-1H7.8c-.3 0-.5-.2-.5-.5V2.9c0-.3.2-.5.5-.5h2.5v-1c0-.2.1-.4.3-.4.2-.1.4-.1.5 0l3 2.2c.1.1.2.2.2.4s-.1.3-.2.4l-3 2.2c-.1.1-.2.2-.3.2zM8.3 3.9h2.5c.3 0 .5.2.5.5v.5L13 3.6l-1.7-1.2v.5c0 .3-.2.5-.5.5H8.3v.5z"/>
    <path d="M13.1 13.9C6.2 13.9.6 8.2.6 1.3.6.6 1.1.1 1.8.1h2.5c.7 0 1.2.5 1.2 1.2 0 .8.1 1.6.4 2.4.1.4 0 .9-.3 1.2L4.5 6.3C5.4 8 6.4 9 8.1 10l1.5-1.1c.3-.3.8-.4 1.2-.2.7.2 1.5.3 2.3.3.7 0 1.2.5 1.2 1.2v2.5c0 .6-.5 1.2-1.2 1.2zM1.8 1.1c-.1 0-.2.1-.2.2 0 6.4 5.2 11.5 11.5 11.5.1 0 .2-.1.2-.2v-2.5c0-.1-.1-.2-.2-.2-.9 0-1.8-.1-2.7-.4h-.2l-1.8 1.3c-.2.1-.4.1-.5 0-2.1-.9-3.4-2.2-4.5-4.3 0-.2 0-.4.1-.5l1.3-1.7c.1-.2.1-.2.1-.3-.3-.8-.5-1.7-.5-2.7 0-.1-.1-.2-.2-.2H1.8z"/>
</svg>
