<svg xmlns="http://www.w3.org/2000/svg" viewBox="0 0 20 18">
    <path d="M18.772 6.156l-1.368-4.105A2.995 2.995 0 0014.559 0H5.441a2.995 2.995 0 00-2.845 2.051L1.228 6.156A2.003 2.003 0 000 8v5c0 .753.423 1.402 1.039 1.743-.013.066-.039.126-.039.195V17a1 1 0 001 1h1a1 1 0 001-1v-2h12v2a1 1 0 001 1h1a1 1 0 001-1v-2.062c0-.069-.026-.13-.039-.195A1.993 1.993 0 0020 13V8c0-.829-.508-1.541-1.228-1.844zM2 13V8h16l.002 5H2zM5.441 2h9.117c.431 0 .813.274.949.684L16.613 6H3.387l1.105-3.316A1 1 0 015.441 2z"/>
    <path d="M4.5 12a1.5 1.5 0 100-3 1.5 1.5 0 000 3zm11 0a1.5 1.5 0 100-3 1.5 1.5 0 000 3z"/>
</svg>
