<svg xmlns="http://www.w3.org/2000/svg" viewBox="0 0 37 36">
    <path d="M2.802.23c-.315.306-.503.751.155 3.42.393 1.597 3.465 10.51 4.511 13.07 2.13 5.21 3.494 5.038 4.274 5.138.382.048.753-.04 1.073-.257.873-.588 1.165-.76 1.502-.957.118-.07.245-.144.403-.241.943 1.526 2.11 3.894 3.24 6.193 1.524 3.093 3.098 6.292 4.356 7.947.8 1.053 1.666 1.361 2.251 1.436 1.12.142 2.279-.45 2.951-1.509.684-1.074.706-2.347.06-3.323C26.25 29.137 6.788 3.856 3.87.387 3.465-.097 2.982.055 2.802.23zm23.527 33.503c-.383.602-1.004.943-1.582.87-.454-.057-.906-.365-1.307-.892-1.177-1.548-2.722-4.687-4.215-7.72-1.365-2.773-2.654-5.391-3.708-6.93a.704.704 0 00-.963-.193c-.472.3-1.622.977-2.531 1.59-.043.027-.066.03-.102.025-.482.246-.513-.114-1.326-1.204-1.31-1.753-5.007-12.054-6.077-15.437-.415-1.312.027-.589.352-.176 3.514 4.46 20.24 26.285 21.531 28.238.411.618.232 1.35-.072 1.829zM36.802 7.068a.709.709 0 00-.993-.014 293.859 293.859 0 00-4.808 4.733l-.942.941-1.325-1.307 5.596-5.358a.686.686 0 00.015-.98.708.708 0 00-.992-.015l-5.612 5.373-1.247-1.232 5.63-5.39a.686.686 0 00.015-.979.708.708 0 00-.993-.015L25.502 8.23l-1.216-1.2 6.101-5.84a.687.687 0 00.015-.98.709.709 0 00-.993-.015l-7.02 6.721c-1.795 1.718-1.656 4.24.299 6.566l-3.993 3.88a.685.685 0 00-.015.98.707.707 0 00.993.015l3.996-3.883a5.714 5.714 0 003.075 1.282c1.275.117 2.444-.235 3.207-.966.488-.465 1.177-1.156 2.05-2.03 1.34-1.34 3.005-3.007 4.787-4.712a.687.687 0 00.014-.98zm-9.93 7.308c-.985-.09-1.932-.55-2.666-1.296-1.435-1.46-2.413-3.547-.926-5.083l5.783 5.71c-.03.031-.062.06-.092.09-.46.44-1.245.658-2.099.58z"/>
    <path d="M15.521 23.675a.708.708 0 00-.991.058c-2.827 3.137-7.955 8.679-9.685 10.193-.86.753-2.216.449-2.941-.306-.76-.792-.645-1.794.314-2.75 2.434-2.425 6.019-5.204 8.723-7.216a.687.687 0 00.138-.97.71.71 0 00-.984-.137c-2.739 2.038-6.378 4.858-8.876 7.349C-.6 31.71-.098 33.548.883 34.57a3.951 3.951 0 002.176 1.13c.93.153 1.919-.04 2.717-.739 2-1.75 7.754-8.036 9.803-10.31a.685.685 0 00-.058-.977z"/>
</svg>
