<svg xmlns="http://www.w3.org/2000/svg" viewBox="0 0 41 43">
    <path d="M34.946 33.412l5.882-2.773-5.882-12.462V4.395h-6.504L26.366 0 17.03 4.403H6.71V9.27L.828 12.042 6.71 24.504v13.782h6.505l2.075 4.403 9.336-4.403h10.32v-4.874zm4-3.446l-4 1.891v-10.37l4 8.48zM25.694 1.882l1.193 2.53H20.34l5.353-2.53zM2.71 12.722l4-1.89v10.361l-4-8.47zm13.253 28.085l-1.194-2.521h6.546l-5.352 2.52zm17.571-3.933H8.122V5.815h25.412v31.059z"/>
    <path d="M31.416 28.403H10.24v1.412h21.176v-1.412zm0-4.235H10.24v1.412h21.176v-1.412zm-19.764 8.471H10.24v1.411h1.412v-1.41zm2.823 0h-1.412v1.411h1.412v-1.41zm2.824 0h-1.412v1.411h1.412v-1.41zm4.235-14.782c0-2.025-1.202-3.798-2.924-4.479l.025-.05a3.09 3.09 0 00.151-.362 2.79 2.79 0 00.084-.243c.025-.068.042-.135.059-.202.034-.11.059-.219.084-.328.025-.1.042-.201.059-.302l.025-.168c.017-.152.034-.294.034-.437 0-1.849-1.454-3.345-3.244-3.345-1.79 0-3.244 1.504-3.244 3.345 0 .143.009.285.034.437l.025.168c.017.1.034.201.059.302.025.11.05.219.084.328.017.067.042.134.059.202.025.084.059.16.084.243.05.126.1.244.151.362l.025.05c-1.722.68-2.924 2.454-2.924 4.48v2.78h11.294v-2.78zm-5.647-8.512c1.008 0 1.832.865 1.832 1.932 0 .152-.017.32-.05.488a8.856 8.856 0 00-.051.218c-.025.093-.05.194-.084.286-.034.092-.067.185-.11.277-.033.076-.058.143-.092.21-.05.093-.092.185-.15.278l-.127.201c-.336.496-.756.866-1.168.866-.412 0-.832-.362-1.168-.866-.042-.067-.084-.126-.126-.201l-.151-.278a2.286 2.286 0 01-.093-.21c-.042-.092-.075-.185-.11-.277-.033-.092-.058-.193-.083-.286-.017-.075-.042-.143-.05-.218a2.529 2.529 0 01-.051-.488c0-1.067.824-1.932 1.832-1.932zm4.235 9.882h-8.47v-1.37c0-1.546.974-2.874 2.344-3.252.513.538 1.16.9 1.89.9.732 0 1.38-.362 1.892-.9 1.353.361 2.344 1.697 2.344 3.252v1.37zm11.294 0h-7.764v1.412h7.764v-1.412zm0-4.941h-7.764v1.412h7.764v-1.412zm0-4.941h-7.764v1.411h7.764V9.345z"/>
</svg>
