<svg xmlns="http://www.w3.org/2000/svg" enable-background="new 0 0 38 38" viewBox="0 0 38 38">
    <path d="M25.6 23.2H25c-.2 0-.3.1-.4.2L19 29l-5.6-5.6c-.1-.1-.3-.2-.4-.2h-.6c-3 0-5.9 1.3-8 3.4-2.1 2.1-3.3 5-3.4 8v1.8c0 .2.1.3.2.4.1.1.2.2.4.2s.3-.1.4-.2c.1-.1.2-.3.2-.4v-1.8c0-2.2.7-4.3 2-6s3.1-3 5.2-3.7v3.4c-.8.1-1.6.5-2.1 1.1-.6.6-.9 1.4-.9 2.2v3c0 .2.1.3.2.4.1.1.3.2.4.2h1.2c.2 0 .3-.1.4-.2.1-.1.2-.3.2-.4 0-.2-.1-.3-.2-.4-.1-.1-.2-.2-.4-.2h-.6v-2.4c0-.6.2-1.1.6-1.5.4-.4.9-.6 1.5-.6h.6c.6 0 1.1.2 1.5.6.4.4.6.9.6 1.5V34h-.6c-.2 0-.3.1-.4.2-.1.1-.2.3-.2.4 0 .2.1.3.2.4.1.1.3.2.4.2H13c.2 0 .3-.1.4-.2.1-.1.2-.3.2-.4v-3c0-.8-.3-1.6-.9-2.2-.6-.6-1.3-1-2.1-1.1v-3.7c.6-.1 1.2-.2 1.8-.2h.4l5.6 5.6v6.4c0 .2.1.3.2.4.1.1.3.2.4.2s.3-.1.4-.2c.1-.1.2-.3.2-.4V30l5.6-5.6h.4c.6 0 1.2.1 1.8.2v5.9c-.6.1-1.1.5-1.4 1-.3.5-.5 1.1-.4 1.6.1.6.4 1.1.8 1.5.4.4 1 .6 1.6.6s1.1-.2 1.6-.6c.4-.4.7-.9.8-1.5.1-.6-.1-1.2-.4-1.6-.3-.5-.8-.8-1.4-1v-5.6c2.1.7 3.9 2 5.2 3.7 1.3 1.7 2 3.9 2 6v1.8c0 .2.1.3.2.4.1.1.3.2.4.2.2 0 .3-.1.4-.2.1-.1.2-.3.2-.4v-1.8c0-3-1.3-5.9-3.4-8-2.1-2.1-5-3.4-8-3.4zm3.6 9.6c0 .2-.1.5-.2.7-.1.2-.3.4-.5.4-.3.1-.5.1-.7.1-.2 0-.4-.2-.6-.3-.2-.2-.3-.4-.3-.6 0-.2 0-.5.1-.7.1-.2.2-.4.4-.5.2-.1.4-.2.7-.2.3 0 .6.1.8.4.2.1.3.4.3.7z"/>
    <path d="M11.2 14.8c.3 2.5 2.2 4.6 4.2 5.9v2.5c0 .2.1.3.2.4.1.1.3.2.4.2s.3-.1.4-.2c.1-.1.2-.3.2-.4v-1.8c.7.4 1.6.6 2.4.6.8 0 1.7-.3 2.4-.6v1.8c0 .2.1.3.2.4.1.1.3.2.4.2s.3-.1.4-.2c.1-.1.2-.3.2-.4v-2.5c2-1.3 3.9-3.4 4.2-5.9.6 0 1.1-.2 1.6-.6.4-.4.7-.9.8-1.4.1-.6 0-1.1-.3-1.6s-.8-.8-1.3-1c.5-2 .7-2.8.4-3.9-.7-2.7-4-5.3-9-5.3s-8.3 2.6-9 5.3c-.3 1-.1 1.9.4 3.9-.5.2-1 .5-1.3 1-.3.5-.4 1.1-.3 1.6.1.6.4 1.1.8 1.4.5.4 1 .6 1.6.6zm7.8 6c-2.2 0-6.6-3.1-6.6-6.6V11c3.4-.6 6.6-1.9 9.5-3.7.7 1 2.3 2.8 3.7 3.6v3.4c0 3.4-4.4 6.5-6.6 6.5zm9-8.4c0 .3-.1.6-.4.8-.2.2-.5.4-.8.4v-2.4c.3 0 .6.1.8.4.3.2.4.5.4.8zM11.2 6.5c.5-2.1 3.4-4.3 7.8-4.3s7.3 2.2 7.8 4.3c.2.8 0 1.5-.5 3.3-1.1-.5-2.8-2.4-3.9-3.8 0-.1-.1-.1-.2-.2-.1 0-.1-.1-.2-.1h-.2c-.1 0-.2.1-.2.1s-3.4 2.8-10 4c-.4-1.8-.6-2.5-.4-3.3zm0 4.7v2.4c-.3 0-.6-.1-.8-.4-.3-.2-.4-.5-.4-.8 0-.3.1-.6.4-.8.2-.3.5-.4.8-.4z"/>
    <path d="M22.6 13.6c.7 0 1.2-.5 1.2-1.2s-.5-1.2-1.2-1.2-1.2.5-1.2 1.2.5 1.2 1.2 1.2zm-7.2 0c.7 0 1.2-.5 1.2-1.2s-.5-1.2-1.2-1.2-1.2.5-1.2 1.2.5 1.2 1.2 1.2zm5 3.1c-.4.3-.9.5-1.4.5s-1-.2-1.4-.5c-.1-.1-.1-.1-.2-.1h-.2c-.1 0-.2 0-.2.1-.1 0-.1.1-.2.2s-.1.1-.1.2v.2c0 .1 0 .2.1.2 0 .1.1.1.2.2.6.5 1.4.7 2.2.7s1.6-.3 2.2-.7c.1 0 .1-.1.2-.2 0-.1.1-.1.1-.2v-.2c0-.1-.1-.1-.1-.2l-.2-.2c-.1 0-.1-.1-.2-.1H21c-.4 0-.5.1-.6.1z"/>
    <defs>
        <filter id="a" width="36.5" height="14.3" x=".8" y="23" filterUnits="userSpaceOnUse">
            <feColorMatrix values="1 0 0 0 0 0 1 0 0 0 0 0 1 0 0 0 0 0 1 0"/>
        </filter>
    </defs>
    <mask id="b" width="36.5" height="14.3" x=".8" y="23" maskUnits="userSpaceOnUse">
        <path d="M0 0h38v38H0z" filter="url(#a)"/>
        <path d="M25.6 23.2H25c-.2 0-.3.1-.4.2L19 29l-5.6-5.6c-.1-.1-.3-.2-.4-.2h-.6c-3 0-5.9 1.3-8 3.4-2.1 2.1-3.3 5-3.4 8v1.8c0 .2.1.3.2.4.1.1.2.2.4.2s.3-.1.4-.2c.1-.1.2-.3.2-.4v-1.8c0-2.2.7-4.3 2-6s3.1-3 5.2-3.7v3.4c-.8.1-1.6.5-2.1 1.1-.6.6-.9 1.4-.9 2.2v3c0 .2.1.3.2.4.1.1.3.2.4.2h1.2c.2 0 .3-.1.4-.2.1-.1.2-.3.2-.4 0-.2-.1-.3-.2-.4-.1-.1-.2-.2-.4-.2h-.6v-2.4c0-.6.2-1.1.6-1.5.4-.4.9-.6 1.5-.6h.6c.6 0 1.1.2 1.5.6.4.4.6.9.6 1.5V34h-.6c-.2 0-.3.1-.4.2-.1.1-.2.3-.2.4 0 .2.1.3.2.4.1.1.3.2.4.2H13c.2 0 .3-.1.4-.2.1-.1.2-.3.2-.4v-3c0-.8-.3-1.6-.9-2.2-.6-.6-1.3-1-2.1-1.1v-3.7c.6-.1 1.2-.2 1.8-.2h.4l5.6 5.6v6.4c0 .2.1.3.2.4.1.1.3.2.4.2s.3-.1.4-.2c.1-.1.2-.3.2-.4V30l5.6-5.6h.4c.6 0 1.2.1 1.8.2v5.9c-.6.1-1.1.5-1.4 1-.3.5-.5 1.1-.4 1.6.1.6.4 1.1.8 1.5.4.4 1 .6 1.6.6s1.1-.2 1.6-.6c.4-.4.7-.9.8-1.5.1-.6-.1-1.2-.4-1.6-.3-.5-.8-.8-1.4-1v-5.6c2.1.7 3.9 2 5.2 3.7 1.3 1.7 2 3.9 2 6v1.8c0 .2.1.3.2.4.1.1.3.2.4.2.2 0 .3-.1.4-.2.1-.1.2-.3.2-.4v-1.8c0-3-1.3-5.9-3.4-8-2.1-2.1-5-3.4-8-3.4zm3.6 9.6c0 .2-.1.5-.2.7-.1.2-.3.4-.5.4-.3.1-.5.1-.7.1-.2 0-.4-.2-.6-.3-.2-.2-.3-.4-.3-.6 0-.2 0-.5.1-.7.1-.2.2-.4.4-.5.2-.1.4-.2.7-.2.3 0 .6.1.8.4.2.1.3.4.3.7z"/>
        <path d="M11.2 14.8c.3 2.5 2.2 4.6 4.2 5.9v2.5c0 .2.1.3.2.4.1.1.3.2.4.2s.3-.1.4-.2c.1-.1.2-.3.2-.4v-1.8c.7.4 1.6.6 2.4.6.8 0 1.7-.3 2.4-.6v1.8c0 .2.1.3.2.4.1.1.3.2.4.2s.3-.1.4-.2c.1-.1.2-.3.2-.4v-2.5c2-1.3 3.9-3.4 4.2-5.9.6 0 1.1-.2 1.6-.6.4-.4.7-.9.8-1.4.1-.6 0-1.1-.3-1.6s-.8-.8-1.3-1c.5-2 .7-2.8.4-3.9-.7-2.7-4-5.3-9-5.3s-8.3 2.6-9 5.3c-.3 1-.1 1.9.4 3.9-.5.2-1 .5-1.3 1-.3.5-.4 1.1-.3 1.6.1.6.4 1.1.8 1.4.5.4 1 .6 1.6.6zm7.8 6c-2.2 0-6.6-3.1-6.6-6.6V11c3.4-.6 6.6-1.9 9.5-3.7.7 1 2.3 2.8 3.7 3.6v3.4c0 3.4-4.4 6.5-6.6 6.5zm9-8.4c0 .3-.1.6-.4.8-.2.2-.5.4-.8.4v-2.4c.3 0 .6.1.8.4.3.2.4.5.4.8zM11.2 6.5c.5-2.1 3.4-4.3 7.8-4.3s7.3 2.2 7.8 4.3c.2.8 0 1.5-.5 3.3-1.1-.5-2.8-2.4-3.9-3.8 0-.1-.1-.1-.2-.2-.1 0-.1-.1-.2-.1h-.2c-.1 0-.2.1-.2.1s-3.4 2.8-10 4c-.4-1.8-.6-2.5-.4-3.3zm0 4.7v2.4c-.3 0-.6-.1-.8-.4-.3-.2-.4-.5-.4-.8 0-.3.1-.6.4-.8.2-.3.5-.4.8-.4z"/>
        <path d="M22.6 13.6c.7 0 1.2-.5 1.2-1.2s-.5-1.2-1.2-1.2-1.2.5-1.2 1.2.5 1.2 1.2 1.2zm-7.2 0c.7 0 1.2-.5 1.2-1.2s-.5-1.2-1.2-1.2-1.2.5-1.2 1.2.5 1.2 1.2 1.2zm5 3.1c-.4.3-.9.5-1.4.5s-1-.2-1.4-.5c-.1-.1-.1-.1-.2-.1h-.2c-.1 0-.2 0-.2.1-.1 0-.1.1-.2.2s-.1.1-.1.2v.2c0 .1 0 .2.1.2 0 .1.1.1.2.2.6.5 1.4.7 2.2.7s1.6-.3 2.2-.7c.1 0 .1-.1.2-.2 0-.1.1-.1.1-.2v-.2c0-.1-.1-.1-.1-.2l-.2-.2c-.1 0-.1-.1-.2-.1H21c-.4 0-.5.1-.6.1z"/>
    </mask>
    <path d="M36.4 37.2c-.2 0-.4-.1-.6-.2-.2-.2-.2-.4-.2-.6v-1.8c0-2.1-.7-4.2-2-5.9-1.2-1.6-2.8-2.8-4.7-3.5v5.1c.5.2 1 .5 1.3 1 .4.5.5 1.2.4 1.8-.1.6-.4 1.2-.9 1.7-1 .9-2.5.9-3.5 0-.5-.4-.8-1-.9-1.7-.1-.6.1-1.3.4-1.8.3-.5.8-.8 1.3-1v-5.5c-.5-.1-1-.1-1.6-.1h-.2l-5.5 5.5v6.2c0 .2-.1.4-.2.6-.3.3-.9.3-1.2 0-.2-.2-.2-.4-.2-.6v-6.2l-5.5-5.5h-.2c-.5 0-1 0-1.5.1v3.3c.8.1 1.5.5 2.1 1.1.6.7.9 1.5.9 2.4v3c0 .2-.1.4-.2.6-.2.2-.4.2-.6.2h-1.2c-.2 0-.4-.1-.6-.2-.3-.2-.3-.4-.3-.6 0-.2.1-.4.2-.6.2-.2.4-.2.6-.2h.4v-2.1c0-.5-.2-1-.5-1.3-.3-.3-.8-.5-1.3-.5h-.7c-.5 0-1 .2-1.3.5-.3.3-.5.8-.5 1.3v2.1h.4c.2 0 .4.1.6.2.1.2.1.4.1.6s0 .4-.2.6c-.2.2-.4.2-.6.2H7c-.2 0-.4-.1-.6-.2-.2-.2-.2-.4-.2-.6v-3c0-.9.3-1.7.9-2.4.5-.6 1.3-1 2.1-1.1v-2.9c-1.9.7-3.5 1.9-4.7 3.5-1.3 1.7-2 3.7-2 5.9v1.8c0 .2-.1.4-.2.6-.3.3-.9.3-1.2 0-.2-.2-.2-.4-.2-.6v-1.8c0-3.1 1.3-6 3.5-8.2 2.2-2.2 5.1-3.4 8.2-3.5h.4c.2 0 .4.1.6.2l5.4 5.4 5.4-5.4c.2-.1.4-.1.6-.1h.6c3.1 0 6 1.3 8.2 3.5 2.2 2.2 3.4 5.1 3.5 8.2v1.8c0 .2-.1.4-.2.6s-.5.1-.7.1zm-8.1-12.7l.3.1c2.1.7 4 2 5.3 3.8 1.3 1.8 2.1 3.9 2.1 6.2v1.8c0 .1 0 .2.1.2.1.1.4.1.5 0 .1-.1.1-.2.1-.2v-1.8c0-3-1.2-5.7-3.3-7.8-2.1-2.1-4.9-3.3-7.8-3.3H25c-.1 0-.2 0-.2.1L19 29.3l-5.8-5.8c-.1-.1-.2-.1-.2-.1h-.6c-3 0-5.7 1.2-7.8 3.3-2.1 2.1-3.3 4.9-3.3 7.8v1.8c0 .1 0 .2.1.2.1.1.4.1.5 0 0 .1.1 0 .1-.1v-1.8c0-2.2.8-4.4 2.1-6.2 1.3-1.8 3.2-3.1 5.3-3.8l.3-.1v4h-.2c-.8.1-1.5.4-2 1s-.8 1.3-.8 2.1v3c0 .1 0 .2.1.2 0 .1.1.2.2.2h1.2c.1 0 .2 0 .2-.1s.1-.2.1-.2c0-.1 0-.2-.1-.2-.1-.1-.2-.1-.2-.1h-.8v-2.6c0-.6.2-1.2.7-1.7.4-.4 1-.7 1.7-.7h.6c.6 0 1.2.3 1.7.7.4.4.7 1 .7 1.7v2.6h-.9c-.1 0-.2 0-.2.1-.1.1-.1.2-.1.2 0 .1 0 .2.1.2.1.1.2.1.2.1H13c.1 0 .2 0 .2-.1.1-.1.1-.2.1-.2v-3c0-.8-.3-1.5-.8-2.1-.5-.6-1.2-.9-2-1h-.2v-4.2h.2c.6-.1 1.2-.2 1.8-.2h.5l5.8 5.8v6.5c0 .1 0 .2.1.2.1.1.4.1.5 0 .1-.1.1-.2.1-.2V30l5.8-5.8h.5c.6 0 1.2.1 1.8.2h.2v6.3h-.2c-.5.1-.9.4-1.2.9-.3.4-.4 1-.4 1.5.1.5.3 1 .7 1.3.8.7 2.1.7 2.8 0 .4-.3.6-.8.7-1.3.1-.5-.1-1-.4-1.5-.3-.4-.7-.7-1.2-.9h-.2v-6.2zm-.3 9.7h-.3c-.3-.1-.5-.2-.7-.4s-.3-.5-.4-.7c-.1-.3 0-.6.1-.8.1-.3.3-.5.5-.7.6-.4 1.4-.3 1.8.2.3.3.4.6.4 1 0 .3-.1.6-.2.8-.2.2-.4.4-.7.5-.1.1-.3.1-.5.1zm0-2.3c-.2 0-.4.1-.5.2-.2.1-.3.3-.3.4-.2.1-.2.3-.1.5 0 .2.1.4.3.5s.3.2.5.3c.2 0 .4 0 .5-.1.2-.1.3-.2.4-.4s.2-.3.2-.5c0-.3-.1-.5-.3-.7-.2-.2-.4-.2-.7-.2z" mask="url(#b)"/>
    <defs>
        <filter id="c" width="20.9" height="23.3" x="8.6" y=".7" filterUnits="userSpaceOnUse">
            <feColorMatrix values="1 0 0 0 0 0 1 0 0 0 0 0 1 0 0 0 0 0 1 0"/>
        </filter>
    </defs>
    <mask id="d" width="20.9" height="23.3" x="8.6" y=".7" maskUnits="userSpaceOnUse">
        <path d="M0 0h38v38H0z" filter="url(#c)"/>
        <path d="M25.6 23.2H25c-.2 0-.3.1-.4.2L19 29l-5.6-5.6c-.1-.1-.3-.2-.4-.2h-.6c-3 0-5.9 1.3-8 3.4-2.1 2.1-3.3 5-3.4 8v1.8c0 .2.1.3.2.4.1.1.2.2.4.2s.3-.1.4-.2c.1-.1.2-.3.2-.4v-1.8c0-2.2.7-4.3 2-6s3.1-3 5.2-3.7v3.4c-.8.1-1.6.5-2.1 1.1-.6.6-.9 1.4-.9 2.2v3c0 .2.1.3.2.4.1.1.3.2.4.2h1.2c.2 0 .3-.1.4-.2.1-.1.2-.3.2-.4 0-.2-.1-.3-.2-.4-.1-.1-.2-.2-.4-.2h-.6v-2.4c0-.6.2-1.1.6-1.5.4-.4.9-.6 1.5-.6h.6c.6 0 1.1.2 1.5.6.4.4.6.9.6 1.5V34h-.6c-.2 0-.3.1-.4.2-.1.1-.2.3-.2.4 0 .2.1.3.2.4.1.1.3.2.4.2H13c.2 0 .3-.1.4-.2.1-.1.2-.3.2-.4v-3c0-.8-.3-1.6-.9-2.2-.6-.6-1.3-1-2.1-1.1v-3.7c.6-.1 1.2-.2 1.8-.2h.4l5.6 5.6v6.4c0 .2.1.3.2.4.1.1.3.2.4.2s.3-.1.4-.2c.1-.1.2-.3.2-.4V30l5.6-5.6h.4c.6 0 1.2.1 1.8.2v5.9c-.6.1-1.1.5-1.4 1-.3.5-.5 1.1-.4 1.6.1.6.4 1.1.8 1.5.4.4 1 .6 1.6.6s1.1-.2 1.6-.6c.4-.4.7-.9.8-1.5.1-.6-.1-1.2-.4-1.6-.3-.5-.8-.8-1.4-1v-5.6c2.1.7 3.9 2 5.2 3.7 1.3 1.7 2 3.9 2 6v1.8c0 .2.1.3.2.4.1.1.3.2.4.2.2 0 .3-.1.4-.2.1-.1.2-.3.2-.4v-1.8c0-3-1.3-5.9-3.4-8-2.1-2.1-5-3.4-8-3.4zm3.6 9.6c0 .2-.1.5-.2.7-.1.2-.3.4-.5.4-.3.1-.5.1-.7.1-.2 0-.4-.2-.6-.3-.2-.2-.3-.4-.3-.6 0-.2 0-.5.1-.7.1-.2.2-.4.4-.5.2-.1.4-.2.7-.2.3 0 .6.1.8.4.2.1.3.4.3.7z"/>
        <path d="M11.2 14.8c.3 2.5 2.2 4.6 4.2 5.9v2.5c0 .2.1.3.2.4.1.1.3.2.4.2s.3-.1.4-.2c.1-.1.2-.3.2-.4v-1.8c.7.4 1.6.6 2.4.6.8 0 1.7-.3 2.4-.6v1.8c0 .2.1.3.2.4.1.1.3.2.4.2s.3-.1.4-.2c.1-.1.2-.3.2-.4v-2.5c2-1.3 3.9-3.4 4.2-5.9.6 0 1.1-.2 1.6-.6.4-.4.7-.9.8-1.4.1-.6 0-1.1-.3-1.6s-.8-.8-1.3-1c.5-2 .7-2.8.4-3.9-.7-2.7-4-5.3-9-5.3s-8.3 2.6-9 5.3c-.3 1-.1 1.9.4 3.9-.5.2-1 .5-1.3 1-.3.5-.4 1.1-.3 1.6.1.6.4 1.1.8 1.4.5.4 1 .6 1.6.6zm7.8 6c-2.2 0-6.6-3.1-6.6-6.6V11c3.4-.6 6.6-1.9 9.5-3.7.7 1 2.3 2.8 3.7 3.6v3.4c0 3.4-4.4 6.5-6.6 6.5zm9-8.4c0 .3-.1.6-.4.8-.2.2-.5.4-.8.4v-2.4c.3 0 .6.1.8.4.3.2.4.5.4.8zM11.2 6.5c.5-2.1 3.4-4.3 7.8-4.3s7.3 2.2 7.8 4.3c.2.8 0 1.5-.5 3.3-1.1-.5-2.8-2.4-3.9-3.8 0-.1-.1-.1-.2-.2-.1 0-.1-.1-.2-.1h-.2c-.1 0-.2.1-.2.1s-3.4 2.8-10 4c-.4-1.8-.6-2.5-.4-3.3zm0 4.7v2.4c-.3 0-.6-.1-.8-.4-.3-.2-.4-.5-.4-.8 0-.3.1-.6.4-.8.2-.3.5-.4.8-.4z"/>
        <path d="M22.6 13.6c.7 0 1.2-.5 1.2-1.2s-.5-1.2-1.2-1.2-1.2.5-1.2 1.2.5 1.2 1.2 1.2zm-7.2 0c.7 0 1.2-.5 1.2-1.2s-.5-1.2-1.2-1.2-1.2.5-1.2 1.2.5 1.2 1.2 1.2zm5 3.1c-.4.3-.9.5-1.4.5s-1-.2-1.4-.5c-.1-.1-.1-.1-.2-.1h-.2c-.1 0-.2 0-.2.1-.1 0-.1.1-.2.2s-.1.1-.1.2v.2c0 .1 0 .2.1.2 0 .1.1.1.2.2.6.5 1.4.7 2.2.7s1.6-.3 2.2-.7c.1 0 .1-.1.2-.2 0-.1.1-.1.1-.2v-.2c0-.1-.1-.1-.1-.2l-.2-.2c-.1 0-.1-.1-.2-.1H21c-.4 0-.5.1-.6.1z"/>
    </mask>
    <path d="M22 24c-.2 0-.4-.1-.6-.2-.2-.2-.2-.4-.2-.6v-1.4c-.7.3-1.4.5-2.1.5-.8 0-1.5-.2-2.2-.5v1.4c0 .2-.1.4-.2.6-.3.3-.9.3-1.2 0-.2-.2-.2-.4-.2-.6v-2.4c-2.3-1.5-3.8-3.6-4.1-5.8-.6 0-1.1-.3-1.5-.6-.5-.4-.8-1-.9-1.6-.1-.6 0-1.3.4-1.8.3-.5.7-.8 1.2-1-.7-1.9-.9-2.7-.6-3.8.7-2.7 4.1-5.4 9.2-5.4 5.2 0 8.5 2.7 9.2 5.4.3 1.1.1 1.9-.4 3.8.5.2.9.6 1.2 1 .3.5.5 1.2.4 1.8-.1.6-.4 1.2-.9 1.6-.4.4-1 .6-1.5.6-.3 2.2-1.8 4.3-4.1 5.8v2.4c0 .2-.1.4-.2.6-.3.2-.5.2-.7.2zm-.3-3v2.2c0 .1 0 .2.1.2.1.1.4.1.5 0 .1-.1.1-.2.1-.2v-2.4l-.1-.2.2-.1c2.3-1.5 3.8-3.6 4.1-5.7v-.2h.2c.6 0 1-.2 1.4-.5.4-.3.6-.8.7-1.3.1-.5 0-1-.3-1.5-.3-.4-.7-.8-1.2-.9l-.2-.1.1-.2c.5-2 .7-2.8.4-3.8-.6-2.5-3.8-5.1-8.7-5.1s-8.1 2.5-8.7 5.1c-.2 1 0 1.8.4 3.8l.1.2-.2.1c-.5.2-.9.5-1.2.9-.3.4-.4 1-.3 1.5.1.5.3 1 .7 1.3.4.3.9.5 1.4.5h.3v.2c.2 2.1 1.7 4.3 4.1 5.7l.2.1-.1.2v2.4c0 .1 0 .2.1.2.1.1.4.1.5 0 .1-.1.1-.2.1-.2V21l.4.2c.7.4 1.5.6 2.3.6.8 0 1.6-.2 2.3-.6l.3-.2zm-10.5-6.2zM19 21c-2.3 0-6.9-3.2-6.9-6.8v-3.4h.2c3.4-.6 6.5-1.8 9.4-3.7l.2-.1.1.2c.6.8 2.2 2.8 3.6 3.5l.1.1v3.5c.1 3.6-4.4 6.7-6.7 6.7zm-6.4-9.8v3c0 3.4 4.3 6.3 6.4 6.3s6.3-2.9 6.3-6.3V11c-1.4-.8-2.7-2.4-3.5-3.4-2.8 1.8-5.9 3-9.2 3.6zm14.2 2.6h-.2V11h.2c.4 0 .8.2 1 .4.3.3.4.6.4 1s-.2.8-.4 1c-.2.3-.6.4-1 .4zm.2-2.3v1.8c.2 0 .3-.1.4-.2.2-.2.3-.4.3-.7s-.1-.5-.3-.7c0-.1-.2-.2-.4-.2zm-15.5 2.3h-.2c-.4 0-.8-.2-1-.4s-.4-.6-.4-1 .2-.8.4-1 .6-.4 1-.4h.2v2.8zm-.5-2.3c-.2 0-.3.1-.4.2-.2.2-.3.4-.3.7 0 .3.1.5.3.7.1.1.3.2.4.2v-1.8zm15.5-1.3l-.3-.1c-1.2-.5-3.1-2.6-4-3.9l-.1-.1h-.2s-.1 0-.1.1c0 0-3.5 2.8-10.1 4h-.2l-.1-.2c-.5-1.9-.7-2.7-.5-3.5C11.5 4.3 14.5 2 19 2s7.5 2.3 8.1 4.5c.2.8 0 1.5-.5 3.5l-.1.2zM11.4 6.6c-.2.7 0 1.3.4 3 6.3-1.2 9.6-3.8 9.6-3.9.1-.1.2-.1.3-.2h.3c.1 0 .2.1.3.1.1.1.2.1.3.2 1 1.4 2.5 3 3.5 3.6.4-1.6.5-2.3.4-2.9-.5-2-3.3-4.2-7.6-4.2s-7 2.3-7.5 4.3z" mask="url(#d)"/>
    <defs>
        <filter id="e" width="2.9" height="2.9" x="21.2" y="11" filterUnits="userSpaceOnUse">
            <feColorMatrix values="1 0 0 0 0 0 1 0 0 0 0 0 1 0 0 0 0 0 1 0"/>
        </filter>
    </defs>
    <mask id="f" width="2.9" height="2.9" x="21.2" y="11" maskUnits="userSpaceOnUse">
        <path d="M0 0h38v38H0z" filter="url(#e)"/>
        <path d="M25.6 23.2H25c-.2 0-.3.1-.4.2L19 29l-5.6-5.6c-.1-.1-.3-.2-.4-.2h-.6c-3 0-5.9 1.3-8 3.4-2.1 2.1-3.3 5-3.4 8v1.8c0 .2.1.3.2.4.1.1.2.2.4.2s.3-.1.4-.2c.1-.1.2-.3.2-.4v-1.8c0-2.2.7-4.3 2-6s3.1-3 5.2-3.7v3.4c-.8.1-1.6.5-2.1 1.1-.6.6-.9 1.4-.9 2.2v3c0 .2.1.3.2.4.1.1.3.2.4.2h1.2c.2 0 .3-.1.4-.2.1-.1.2-.3.2-.4 0-.2-.1-.3-.2-.4-.1-.1-.2-.2-.4-.2h-.6v-2.4c0-.6.2-1.1.6-1.5.4-.4.9-.6 1.5-.6h.6c.6 0 1.1.2 1.5.6.4.4.6.9.6 1.5V34h-.6c-.2 0-.3.1-.4.2-.1.1-.2.3-.2.4 0 .2.1.3.2.4.1.1.3.2.4.2H13c.2 0 .3-.1.4-.2.1-.1.2-.3.2-.4v-3c0-.8-.3-1.6-.9-2.2-.6-.6-1.3-1-2.1-1.1v-3.7c.6-.1 1.2-.2 1.8-.2h.4l5.6 5.6v6.4c0 .2.1.3.2.4.1.1.3.2.4.2s.3-.1.4-.2c.1-.1.2-.3.2-.4V30l5.6-5.6h.4c.6 0 1.2.1 1.8.2v5.9c-.6.1-1.1.5-1.4 1-.3.5-.5 1.1-.4 1.6.1.6.4 1.1.8 1.5.4.4 1 .6 1.6.6s1.1-.2 1.6-.6c.4-.4.7-.9.8-1.5.1-.6-.1-1.2-.4-1.6-.3-.5-.8-.8-1.4-1v-5.6c2.1.7 3.9 2 5.2 3.7 1.3 1.7 2 3.9 2 6v1.8c0 .2.1.3.2.4.1.1.3.2.4.2.2 0 .3-.1.4-.2.1-.1.2-.3.2-.4v-1.8c0-3-1.3-5.9-3.4-8-2.1-2.1-5-3.4-8-3.4zm3.6 9.6c0 .2-.1.5-.2.7-.1.2-.3.4-.5.4-.3.1-.5.1-.7.1-.2 0-.4-.2-.6-.3-.2-.2-.3-.4-.3-.6 0-.2 0-.5.1-.7.1-.2.2-.4.4-.5.2-.1.4-.2.7-.2.3 0 .6.1.8.4.2.1.3.4.3.7z"/>
        <path d="M11.2 14.8c.3 2.5 2.2 4.6 4.2 5.9v2.5c0 .2.1.3.2.4.1.1.3.2.4.2s.3-.1.4-.2c.1-.1.2-.3.2-.4v-1.8c.7.4 1.6.6 2.4.6.8 0 1.7-.3 2.4-.6v1.8c0 .2.1.3.2.4.1.1.3.2.4.2s.3-.1.4-.2c.1-.1.2-.3.2-.4v-2.5c2-1.3 3.9-3.4 4.2-5.9.6 0 1.1-.2 1.6-.6.4-.4.7-.9.8-1.4.1-.6 0-1.1-.3-1.6s-.8-.8-1.3-1c.5-2 .7-2.8.4-3.9-.7-2.7-4-5.3-9-5.3s-8.3 2.6-9 5.3c-.3 1-.1 1.9.4 3.9-.5.2-1 .5-1.3 1-.3.5-.4 1.1-.3 1.6.1.6.4 1.1.8 1.4.5.4 1 .6 1.6.6zm7.8 6c-2.2 0-6.6-3.1-6.6-6.6V11c3.4-.6 6.6-1.9 9.5-3.7.7 1 2.3 2.8 3.7 3.6v3.4c0 3.4-4.4 6.5-6.6 6.5zm9-8.4c0 .3-.1.6-.4.8-.2.2-.5.4-.8.4v-2.4c.3 0 .6.1.8.4.3.2.4.5.4.8zM11.2 6.5c.5-2.1 3.4-4.3 7.8-4.3s7.3 2.2 7.8 4.3c.2.8 0 1.5-.5 3.3-1.1-.5-2.8-2.4-3.9-3.8 0-.1-.1-.1-.2-.2-.1 0-.1-.1-.2-.1h-.2c-.1 0-.2.1-.2.1s-3.4 2.8-10 4c-.4-1.8-.6-2.5-.4-3.3zm0 4.7v2.4c-.3 0-.6-.1-.8-.4-.3-.2-.4-.5-.4-.8 0-.3.1-.6.4-.8.2-.3.5-.4.8-.4z"/>
        <path d="M22.6 13.6c.7 0 1.2-.5 1.2-1.2s-.5-1.2-1.2-1.2-1.2.5-1.2 1.2.5 1.2 1.2 1.2zm-7.2 0c.7 0 1.2-.5 1.2-1.2s-.5-1.2-1.2-1.2-1.2.5-1.2 1.2.5 1.2 1.2 1.2zm5 3.1c-.4.3-.9.5-1.4.5s-1-.2-1.4-.5c-.1-.1-.1-.1-.2-.1h-.2c-.1 0-.2 0-.2.1-.1 0-.1.1-.2.2s-.1.1-.1.2v.2c0 .1 0 .2.1.2 0 .1.1.1.2.2.6.5 1.4.7 2.2.7s1.6-.3 2.2-.7c.1 0 .1-.1.2-.2 0-.1.1-.1.1-.2v-.2c0-.1-.1-.1-.1-.2l-.2-.2c-.1 0-.1-.1-.2-.1H21c-.4 0-.5.1-.6.1z"/>
    </mask>
    <path d="M22.6 13.8c-.8 0-1.4-.7-1.4-1.5s.7-1.4 1.4-1.4c.8 0 1.5.7 1.5 1.4-.1.9-.7 1.5-1.5 1.5zm0-2.3c-.5 0-.9.4-.9.9s.4 1 .9 1 1-.4 1-1c-.1-.5-.5-.9-1-.9z" mask="url(#f)"/>
    <defs>
        <filter id="g" width="2.9" height="2.9" x="14" y="11" filterUnits="userSpaceOnUse">
            <feColorMatrix values="1 0 0 0 0 0 1 0 0 0 0 0 1 0 0 0 0 0 1 0"/>
        </filter>
    </defs>
    <mask id="h" width="2.9" height="2.9" x="14" y="11" maskUnits="userSpaceOnUse">
        <path d="M0 0h38v38H0z" filter="url(#g)"/>
        <path d="M25.6 23.2H25c-.2 0-.3.1-.4.2L19 29l-5.6-5.6c-.1-.1-.3-.2-.4-.2h-.6c-3 0-5.9 1.3-8 3.4-2.1 2.1-3.3 5-3.4 8v1.8c0 .2.1.3.2.4.1.1.2.2.4.2s.3-.1.4-.2c.1-.1.2-.3.2-.4v-1.8c0-2.2.7-4.3 2-6s3.1-3 5.2-3.7v3.4c-.8.1-1.6.5-2.1 1.1-.6.6-.9 1.4-.9 2.2v3c0 .2.1.3.2.4.1.1.3.2.4.2h1.2c.2 0 .3-.1.4-.2.1-.1.2-.3.2-.4 0-.2-.1-.3-.2-.4-.1-.1-.2-.2-.4-.2h-.6v-2.4c0-.6.2-1.1.6-1.5.4-.4.9-.6 1.5-.6h.6c.6 0 1.1.2 1.5.6.4.4.6.9.6 1.5V34h-.6c-.2 0-.3.1-.4.2-.1.1-.2.3-.2.4 0 .2.1.3.2.4.1.1.3.2.4.2H13c.2 0 .3-.1.4-.2.1-.1.2-.3.2-.4v-3c0-.8-.3-1.6-.9-2.2-.6-.6-1.3-1-2.1-1.1v-3.7c.6-.1 1.2-.2 1.8-.2h.4l5.6 5.6v6.4c0 .2.1.3.2.4.1.1.3.2.4.2s.3-.1.4-.2c.1-.1.2-.3.2-.4V30l5.6-5.6h.4c.6 0 1.2.1 1.8.2v5.9c-.6.1-1.1.5-1.4 1-.3.5-.5 1.1-.4 1.6.1.6.4 1.1.8 1.5.4.4 1 .6 1.6.6s1.1-.2 1.6-.6c.4-.4.7-.9.8-1.5.1-.6-.1-1.2-.4-1.6-.3-.5-.8-.8-1.4-1v-5.6c2.1.7 3.9 2 5.2 3.7 1.3 1.7 2 3.9 2 6v1.8c0 .2.1.3.2.4.1.1.3.2.4.2.2 0 .3-.1.4-.2.1-.1.2-.3.2-.4v-1.8c0-3-1.3-5.9-3.4-8-2.1-2.1-5-3.4-8-3.4zm3.6 9.6c0 .2-.1.5-.2.7-.1.2-.3.4-.5.4-.3.1-.5.1-.7.1-.2 0-.4-.2-.6-.3-.2-.2-.3-.4-.3-.6 0-.2 0-.5.1-.7.1-.2.2-.4.4-.5.2-.1.4-.2.7-.2.3 0 .6.1.8.4.2.1.3.4.3.7z"/>
        <path d="M11.2 14.8c.3 2.5 2.2 4.6 4.2 5.9v2.5c0 .2.1.3.2.4.1.1.3.2.4.2s.3-.1.4-.2c.1-.1.2-.3.2-.4v-1.8c.7.4 1.6.6 2.4.6.8 0 1.7-.3 2.4-.6v1.8c0 .2.1.3.2.4.1.1.3.2.4.2s.3-.1.4-.2c.1-.1.2-.3.2-.4v-2.5c2-1.3 3.9-3.4 4.2-5.9.6 0 1.1-.2 1.6-.6.4-.4.7-.9.8-1.4.1-.6 0-1.1-.3-1.6s-.8-.8-1.3-1c.5-2 .7-2.8.4-3.9-.7-2.7-4-5.3-9-5.3s-8.3 2.6-9 5.3c-.3 1-.1 1.9.4 3.9-.5.2-1 .5-1.3 1-.3.5-.4 1.1-.3 1.6.1.6.4 1.1.8 1.4.5.4 1 .6 1.6.6zm7.8 6c-2.2 0-6.6-3.1-6.6-6.6V11c3.4-.6 6.6-1.9 9.5-3.7.7 1 2.3 2.8 3.7 3.6v3.4c0 3.4-4.4 6.5-6.6 6.5zm9-8.4c0 .3-.1.6-.4.8-.2.2-.5.4-.8.4v-2.4c.3 0 .6.1.8.4.3.2.4.5.4.8zM11.2 6.5c.5-2.1 3.4-4.3 7.8-4.3s7.3 2.2 7.8 4.3c.2.8 0 1.5-.5 3.3-1.1-.5-2.8-2.4-3.9-3.8 0-.1-.1-.1-.2-.2-.1 0-.1-.1-.2-.1h-.2c-.1 0-.2.1-.2.1s-3.4 2.8-10 4c-.4-1.8-.6-2.5-.4-3.3zm0 4.7v2.4c-.3 0-.6-.1-.8-.4-.3-.2-.4-.5-.4-.8 0-.3.1-.6.4-.8.2-.3.5-.4.8-.4z"/>
        <path d="M22.6 13.6c.7 0 1.2-.5 1.2-1.2s-.5-1.2-1.2-1.2-1.2.5-1.2 1.2.5 1.2 1.2 1.2zm-7.2 0c.7 0 1.2-.5 1.2-1.2s-.5-1.2-1.2-1.2-1.2.5-1.2 1.2.5 1.2 1.2 1.2zm5 3.1c-.4.3-.9.5-1.4.5s-1-.2-1.4-.5c-.1-.1-.1-.1-.2-.1h-.2c-.1 0-.2 0-.2.1-.1 0-.1.1-.2.2s-.1.1-.1.2v.2c0 .1 0 .2.1.2 0 .1.1.1.2.2.6.5 1.4.7 2.2.7s1.6-.3 2.2-.7c.1 0 .1-.1.2-.2 0-.1.1-.1.1-.2v-.2c0-.1-.1-.1-.1-.2l-.2-.2c-.1 0-.1-.1-.2-.1H21c-.4 0-.5.1-.6.1z"/>
    </mask>
    <path d="M15.4 13.8c-.8 0-1.4-.7-1.4-1.5s.7-1.4 1.4-1.4c.8 0 1.5.7 1.5 1.4 0 .9-.7 1.5-1.5 1.5zm0-2.3c-.5 0-.9.4-.9.9s.4 1 .9 1 1-.4 1-1c0-.5-.5-.9-1-.9z" mask="url(#h)"/>
    <defs>
        <filter id="i" width="5.3" height="2.3" x="16.3" y="16.3" filterUnits="userSpaceOnUse">
            <feColorMatrix values="1 0 0 0 0 0 1 0 0 0 0 0 1 0 0 0 0 0 1 0"/>
        </filter>
    </defs>
    <mask id="j" width="5.3" height="2.3" x="16.3" y="16.3" maskUnits="userSpaceOnUse">
        <path d="M0 0h38v38H0z" filter="url(#i)"/>
        <path d="M25.6 23.2H25c-.2 0-.3.1-.4.2L19 29l-5.6-5.6c-.1-.1-.3-.2-.4-.2h-.6c-3 0-5.9 1.3-8 3.4-2.1 2.1-3.3 5-3.4 8v1.8c0 .2.1.3.2.4.1.1.2.2.4.2s.3-.1.4-.2c.1-.1.2-.3.2-.4v-1.8c0-2.2.7-4.3 2-6s3.1-3 5.2-3.7v3.4c-.8.1-1.6.5-2.1 1.1-.6.6-.9 1.4-.9 2.2v3c0 .2.1.3.2.4.1.1.3.2.4.2h1.2c.2 0 .3-.1.4-.2.1-.1.2-.3.2-.4 0-.2-.1-.3-.2-.4-.1-.1-.2-.2-.4-.2h-.6v-2.4c0-.6.2-1.1.6-1.5.4-.4.9-.6 1.5-.6h.6c.6 0 1.1.2 1.5.6.4.4.6.9.6 1.5V34h-.6c-.2 0-.3.1-.4.2-.1.1-.2.3-.2.4 0 .2.1.3.2.4.1.1.3.2.4.2H13c.2 0 .3-.1.4-.2.1-.1.2-.3.2-.4v-3c0-.8-.3-1.6-.9-2.2-.6-.6-1.3-1-2.1-1.1v-3.7c.6-.1 1.2-.2 1.8-.2h.4l5.6 5.6v6.4c0 .2.1.3.2.4.1.1.3.2.4.2s.3-.1.4-.2c.1-.1.2-.3.2-.4V30l5.6-5.6h.4c.6 0 1.2.1 1.8.2v5.9c-.6.1-1.1.5-1.4 1-.3.5-.5 1.1-.4 1.6.1.6.4 1.1.8 1.5.4.4 1 .6 1.6.6s1.1-.2 1.6-.6c.4-.4.7-.9.8-1.5.1-.6-.1-1.2-.4-1.6-.3-.5-.8-.8-1.4-1v-5.6c2.1.7 3.9 2 5.2 3.7 1.3 1.7 2 3.9 2 6v1.8c0 .2.1.3.2.4.1.1.3.2.4.2.2 0 .3-.1.4-.2.1-.1.2-.3.2-.4v-1.8c0-3-1.3-5.9-3.4-8-2.1-2.1-5-3.4-8-3.4zm3.6 9.6c0 .2-.1.5-.2.7-.1.2-.3.4-.5.4-.3.1-.5.1-.7.1-.2 0-.4-.2-.6-.3-.2-.2-.3-.4-.3-.6 0-.2 0-.5.1-.7.1-.2.2-.4.4-.5.2-.1.4-.2.7-.2.3 0 .6.1.8.4.2.1.3.4.3.7z"/>
        <path d="M11.2 14.8c.3 2.5 2.2 4.6 4.2 5.9v2.5c0 .2.1.3.2.4.1.1.3.2.4.2s.3-.1.4-.2c.1-.1.2-.3.2-.4v-1.8c.7.4 1.6.6 2.4.6.8 0 1.7-.3 2.4-.6v1.8c0 .2.1.3.2.4.1.1.3.2.4.2s.3-.1.4-.2c.1-.1.2-.3.2-.4v-2.5c2-1.3 3.9-3.4 4.2-5.9.6 0 1.1-.2 1.6-.6.4-.4.7-.9.8-1.4.1-.6 0-1.1-.3-1.6s-.8-.8-1.3-1c.5-2 .7-2.8.4-3.9-.7-2.7-4-5.3-9-5.3s-8.3 2.6-9 5.3c-.3 1-.1 1.9.4 3.9-.5.2-1 .5-1.3 1-.3.5-.4 1.1-.3 1.6.1.6.4 1.1.8 1.4.5.4 1 .6 1.6.6zm7.8 6c-2.2 0-6.6-3.1-6.6-6.6V11c3.4-.6 6.6-1.9 9.5-3.7.7 1 2.3 2.8 3.7 3.6v3.4c0 3.4-4.4 6.5-6.6 6.5zm9-8.4c0 .3-.1.6-.4.8-.2.2-.5.4-.8.4v-2.4c.3 0 .6.1.8.4.3.2.4.5.4.8zM11.2 6.5c.5-2.1 3.4-4.3 7.8-4.3s7.3 2.2 7.8 4.3c.2.8 0 1.5-.5 3.3-1.1-.5-2.8-2.4-3.9-3.8 0-.1-.1-.1-.2-.2-.1 0-.1-.1-.2-.1h-.2c-.1 0-.2.1-.2.1s-3.4 2.8-10 4c-.4-1.8-.6-2.5-.4-3.3zm0 4.7v2.4c-.3 0-.6-.1-.8-.4-.3-.2-.4-.5-.4-.8 0-.3.1-.6.4-.8.2-.3.5-.4.8-.4z"/>
        <path d="M22.6 13.6c.7 0 1.2-.5 1.2-1.2s-.5-1.2-1.2-1.2-1.2.5-1.2 1.2.5 1.2 1.2 1.2zm-7.2 0c.7 0 1.2-.5 1.2-1.2s-.5-1.2-1.2-1.2-1.2.5-1.2 1.2.5 1.2 1.2 1.2zm5 3.1c-.4.3-.9.5-1.4.5s-1-.2-1.4-.5c-.1-.1-.1-.1-.2-.1h-.2c-.1 0-.2 0-.2.1-.1 0-.1.1-.2.2s-.1.1-.1.2v.2c0 .1 0 .2.1.2 0 .1.1.1.2.2.6.5 1.4.7 2.2.7s1.6-.3 2.2-.7c.1 0 .1-.1.2-.2 0-.1.1-.1.1-.2v-.2c0-.1-.1-.1-.1-.2l-.2-.2c-.1 0-.1-.1-.2-.1H21c-.4 0-.5.1-.6.1z"/>
    </mask>
    <path d="M19 18.7c-.8 0-1.7-.3-2.3-.8-.1-.1-.2-.2-.2-.3-.1-.1-.1-.2-.1-.3V17c0-.1.1-.2.2-.3.1-.1.2-.2.3-.2.1-.1.2-.1.3-.1h.3c.1 0 .2.1.3.2.7.5 1.8.5 2.5 0 .1-.1.2-.1.3-.2h.3c.1 0 .2 0 .3.1.1.1.2.1.3.2.1.1.1.2.2.3v.3c0 .1-.1.2-.1.3-.1.1-.1.2-.2.3-.7.5-1.6.8-2.4.8zm-1.8-1.9H17l-.1.1-.1.1v.2l.1.1c1.2.9 2.9.9 4.1 0l.1-.1V17s0-.1-.1-.1l-.1-.1h-.2s-.1 0-.1.1c-.9.7-2.2.7-3.1 0-.1 0-.1-.1-.1-.1h-.2z" mask="url(#j)"/>
</svg>
