<svg xmlns="http://www.w3.org/2000/svg" viewBox="0 0 20 20">
    <path d="M2.035 13.479A3.976 3.976 0 002 14c0 2.378 2.138 4.284 4.521 3.964A3.994 3.994 0 0010 20a3.994 3.994 0 003.479-2.036C15.857 18.284 18 16.378 18 14c0-.173-.012-.347-.035-.521A3.996 3.996 0 0020 10a3.996 3.996 0 00-2.035-3.479C17.988 6.347 18 6.173 18 6c0-2.378-2.143-4.288-4.521-3.964A3.994 3.994 0 0010 0a3.994 3.994 0 00-3.479 2.036C4.138 1.712 2 3.622 2 6c0 .173.012.347.035.521A3.996 3.996 0 000 10c0 1.465.802 2.786 2.035 3.479zm1.442-5.403l1.102-.293-.434-1.053A1.932 1.932 0 014 6c0-1.103.897-2 2-2 .247 0 .499.05.73.145l1.054.434.293-1.102a1.99 1.99 0 013.846 0l.293 1.102 1.054-.434C13.501 4.05 13.753 4 14 4c1.103 0 2 .897 2 2 0 .247-.05.5-.145.73l-.434 1.053 1.102.293a1.993 1.993 0 010 3.848l-1.102.293.434 1.053c.095.23.145.483.145.73 0 1.103-.897 2-2 2-.247 0-.499-.05-.73-.145l-1.054-.434-.293 1.102a1.99 1.99 0 01-3.846 0l-.293-1.102-1.054.434A1.935 1.935 0 016 16c-1.103 0-2-.897-2-2 0-.247.05-.5.145-.73l.434-1.053-1.102-.293a1.993 1.993 0 010-3.848z"/>
    <path d="M13.742 8.71l-1.408-1.42-3.331 3.299-1.296-1.296-1.414 1.414 2.704 2.704 4.745-4.701z"/>
</svg>
