<svg xmlns="http://www.w3.org/2000/svg" viewBox="0 0 21 20">
    <path d="M18.4 19.2H2.9c-.3 0-.5-.2-.5-.5V6.2c0-.3.2-.5.5-.5s.5.3.5.5v12h14.5v-12c0-.3.2-.5.5-.5s.5.2.5.5v12.5c0 .3-.2.5-.5.5zM12.2 3.4h-3c-.3 0-.5-.2-.5-.5s.2-.5.5-.5h3.1c.3 0 .5.2.5.5s-.3.5-.6.5z"/>
    <path d="M10.6 5.9c-1 0-1.7-.8-1.7-1.8s.8-1.8 1.7-1.8c1 0 1.7.8 1.7 1.8s-.7 1.8-1.7 1.8zm0-2.5c-.4 0-.7.3-.7.8s.3.8.7.8.7-.3.7-.8-.3-.8-.7-.8z"/>
    <path d="M6.2 6.8c-.3 0-.6-.1-.8-.3-.6-.6-.6-1.8-.6-2.5v-.3c0-.2 0-.4-.1-.6 0-.7-.2-1.5.3-2 .1-.2.4-.3.8-.3 1.2 0 3 1 4.3 2.3.2.2.2.5 0 .7-.2.2-.5.2-.7 0-1.2-1.2-2.8-2-3.6-2-.2.2 0 .9 0 1.3 0 .3.1.6.1.7v.3c0 .4 0 1.4.2 1.7.7 0 2.5-.7 3.4-1.2.2-.1.5 0 .7.2.1.2 0 .5-.2.7-.3 0-2.8 1.3-3.8 1.3zm8.9 0c-1.1 0-3.4-1.2-3.7-1.4-.2-.1-.3-.4-.2-.7.1-.2.4-.3.7-.2.9.5 2.6 1.3 3.2 1.3.3-.3.3-1.3.3-1.7v-.3c0-.2 0-.5.1-.7 0-.3.2-1.1 0-1.3-.9 0-2.5.9-3.6 2.1-.2.2-.5.2-.7 0-.2-.2-.2-.5 0-.7C12.4 2 14.2.8 15.5.8c.4 0 .6.2.8.3.4.5.3 1.3.2 2.1 0 .2-.1.4-.1.6v.3c0 .7 0 1.9-.5 2.4-.2.1-.5.3-.8.3z"/>
    <path d="M9.4 9.2c-.2 0-.4-.1-.5-.3l-.2-.8-.8.3c-.2.1-.4 0-.5-.1-.1-.2-.1-.4-.1-.6l1-2.5c.1-.2.4-.3.6-.3.3.1.4.4.3.7l-.6 1.5.2-.1h.4c.1 0 .2.1.2.2l.7-2c.1-.3.4-.4.6-.3.3.1.4.4.3.6L9.9 8.9c-.1.2-.3.3-.5.3z"/>
    <path d="M11.9 9.2c-.2 0-.4-.1-.5-.3l-1.2-3.3c-.1-.3 0-.5.3-.6.3-.1.5 0 .6.3l.7 2c0-.1.1-.1.2-.2.2-.1.3-.1.4-.1l.2.1-.6-1.6c-.1-.3 0-.5.3-.6.3-.1.5 0 .6.3L14 7.7c.1.2 0 .4-.1.5-.1.1-.3.2-.5.1l-.7-.3-.3.8c-.1.3-.3.4-.5.4z"/>
    <path d="M11.9 19.2c-.3 0-.5-.2-.5-.5v-10c0-.3.2-.5.5-.5s.5.2.5.5v10c0 .3-.3.5-.5.5zm-2.5 0c-.3 0-.5-.2-.5-.5v-10c0-.3.2-.5.5-.5s.5.2.5.5v10c0 .3-.2.5-.5.5zM11 6.8h-.6c-.2 0-.3-.1-.4-.2-.2-.2-.2-.4-.1-.5l.3-.8c.1-.2.3-.3.5-.3s.4.1.5.3l.3.8c.1.2 0 .3-.1.5-.1.1-.3.2-.4.2zm8.2 0h-6.3c-.3 0-.5-.2-.5-.5s.2-.5.5-.5h5.8V3.4H16c-.3 0-.5-.2-.5-.5s.2-.5.5-.5h3.2c.3 0 .5.2.5.5v3.3c0 .3-.2.6-.5.6zm-10.8 0H2.1c-.3 0-.5-.2-.5-.5V2.9c0-.3.2-.5.5-.5h3.2c.3 0 .5.2.5.5s-.3.5-.6.5H2.6v2.3h5.8c.3 0 .5.2.5.5s-.2.6-.5.6z"/>
</svg>
