<svg xmlns="http://www.w3.org/2000/svg" viewBox="0 0 19 17">
    <path d="M14.604 8.048a5.67 5.67 0 00.751-3.44c-.179-1.784-1.175-3.361-2.803-4.44l-1.105 1.666c1.119.742 1.8 1.799 1.918 2.974a3.693 3.693 0 01-1.072 2.986l-1.192 1.192 1.618.475C16.951 10.701 17 14.957 17 15h2c0-1.789-.956-5.285-4.396-6.952z"/>
    <path d="M7.5 9c2.206 0 4-1.794 4-4s-1.794-4-4-4-4 1.794-4 4 1.794 4 4 4zm0-6c1.103 0 2 .897 2 2s-.897 2-2 2-2-.897-2-2 .897-2 2-2zM9 10H6c-3.309 0-6 2.691-6 6v1h2v-1c0-2.206 1.794-4 4-4h3c2.206 0 4 1.794 4 4v1h2v-1c0-3.309-2.691-6-6-6z"/>
</svg>
