<svg xmlns="http://www.w3.org/2000/svg" viewBox="0 0 40 40">
    <path d="M38.125 37.5H31.25v-1.25h6.875a.624.624 0 00.625-.625V33.75H1.25v1.875a.625.625 0 00.625.625H30v1.25H1.875A1.875 1.875 0 010 35.625v-2.5a.625.625 0 01.625-.625h38.75a.624.624 0 01.625.625v2.5a1.875 1.875 0 01-1.875 1.875z"/>
    <path d="M6.875 40h-3.75a.625.625 0 01-.625-.625v-2.5h1.25v1.875h2.5v-1.875H7.5v2.5a.625.625 0 01-.625.625zm30 0h-3.75a.624.624 0 01-.625-.625v-2.5h1.25v1.875h2.5v-1.875h1.25v2.5a.624.624 0 01-.625.625zm-3.125-6.25h-15a.624.624 0 01-.625-.625v-16.25a3.129 3.129 0 013.125-3.125h10a3.129 3.129 0 013.125 3.125V20h-1.25v-3.125A1.875 1.875 0 0031.25 15h-10a1.875 1.875 0 00-1.875 1.875V32.5H33.75v1.25zM30.625 12.5h-8.75A1.875 1.875 0 0120 10.625v-1.25a.625.625 0 01.625-.625h11.25a.625.625 0 01.625.625v1.25a1.875 1.875 0 01-1.875 1.875zM21.25 10v.625a.624.624 0 00.625.625h8.75a.624.624 0 00.625-.625V10h-10z"/>
    <path d="M22.5 11.875h-1.25v2.5h1.25v-2.5zm8.75 0H30v2.5h1.25v-2.5zM27.5 31.25h-6.25a.624.624 0 01-.625-.625V28.75h1.25V30H27.5v1.25zm6.25 2.5c-.426 0-.838-.148-1.165-.421a3.435 3.435 0 01-.83-1.017 3.432 3.432 0 01-1.303.133 1.824 1.824 0 01-1.649-1.648c-.039-.44.007-.881.134-1.303a3.425 3.425 0 01-1.016-.829 1.82 1.82 0 010-2.33c.282-.34.628-.62 1.017-.829a3.438 3.438 0 01-.133-1.304 1.824 1.824 0 011.648-1.649c.44-.04.883.005 1.305.133.208-.39.49-.734.829-1.017a1.821 1.821 0 012.33 0c.339.283.62.63.827 1.018a3.465 3.465 0 011.304-.132 1.824 1.824 0 011.649 1.648c.039.44-.007.881-.135 1.303.39.208.734.49 1.016.828a1.821 1.821 0 010 2.332c-.282.338-.627.62-1.016.828.128.422.173.865.133 1.304a1.823 1.823 0 01-1.648 1.649c-.44.04-.882-.006-1.304-.133-.21.39-.49.734-.83 1.017-.327.271-.738.42-1.163.419zm-1.663-2.863a.625.625 0 01.592.424c.132.411.376.778.705 1.057a.578.578 0 00.732 0c.328-.28.573-.645.705-1.056a.625.625 0 01.868-.359c.383.199.815.285 1.246.25a.58.58 0 00.517-.517 2.308 2.308 0 00-.25-1.245.624.624 0 01.36-.87 2.314 2.314 0 001.056-.704.578.578 0 000-.73 2.313 2.313 0 00-1.056-.708.625.625 0 01-.359-.868c.198-.384.285-.816.25-1.246a.58.58 0 00-.517-.517 2.334 2.334 0 00-1.245.25.625.625 0 01-.87-.36 2.311 2.311 0 00-.704-1.056.58.58 0 00-.73 0c-.33.279-.575.644-.708 1.055a.625.625 0 01-.868.36 2.313 2.313 0 00-1.246-.25.58.58 0 00-.517.517c-.034.43.052.862.25 1.245a.624.624 0 01-.36.87 2.313 2.313 0 00-1.056.704.58.58 0 000 .731c.279.33.645.574 1.055.707a.625.625 0 01.36.868 2.312 2.312 0 00-.25 1.246.58.58 0 00.517.517 2.33 2.33 0 001.246-.25.626.626 0 01.277-.063v-.002z"/>
    <path d="M33.75 30a2.5 2.5 0 110-5 2.5 2.5 0 010 5zm0-3.75a1.25 1.25 0 100 2.501 1.25 1.25 0 000-2.501zm-20 7.5h-7.5a3.129 3.129 0 01-3.125-3.125v-5A.625.625 0 013.75 25h12.5a.624.624 0 01.625.625v5a3.129 3.129 0 01-3.125 3.125zm-9.375-7.5v4.375A1.875 1.875 0 006.25 32.5h7.5a1.875 1.875 0 001.875-1.875V26.25H4.375z"/>
    <path d="M13.75 31.25h-7.5a.625.625 0 01-.625-.625V27.5h1.25V30h6.25v-2.5h1.25v3.125a.624.624 0 01-.625.625zM10 24.375a3.129 3.129 0 01-3.125-3.125c0-1.57 2.245-3.777 2.695-4.204a.625.625 0 01.86 0c.45.427 2.695 2.634 2.695 4.204A3.129 3.129 0 0110 24.375zm0-5.992c-.886.926-1.875 2.211-1.875 2.867a1.875 1.875 0 103.75 0c0-.657-.99-1.942-1.875-2.867z"/>
    <path d="M10.625 23.75h-1.25v1.875h1.25V23.75zM23.75 8.125H22.5c0-.351-.136-.5-.442-.808a2.175 2.175 0 010-3.384c.306-.308.442-.457.442-.808 0-.351-.136-.5-.442-.808A2.227 2.227 0 0121.25.625h1.25c0 .351.136.5.442.808a2.227 2.227 0 01.808 1.692 2.227 2.227 0 01-.808 1.692c-.306.308-.442.457-.442.808 0 .351.136.5.442.808a2.227 2.227 0 01.808 1.692zm3.75 0h-1.25c0-.351-.136-.5-.442-.808a2.175 2.175 0 010-3.384c.306-.308.442-.457.442-.808 0-.351-.136-.5-.442-.808A2.227 2.227 0 0125 .625h1.25c0 .351.136.5.442.808a2.227 2.227 0 01.808 1.692 2.227 2.227 0 01-.808 1.692c-.306.308-.442.457-.442.808 0 .351.136.5.442.808a2.227 2.227 0 01.808 1.692zm3.75 0H30c0-.351-.136-.5-.442-.808a2.175 2.175 0 010-3.384c.306-.308.442-.457.442-.808 0-.351-.136-.5-.442-.808A2.227 2.227 0 0128.75.625H30c0 .351.136.5.442.808a2.227 2.227 0 01.808 1.692 2.227 2.227 0 01-.808 1.692c-.306.308-.442.457-.442.808 0 .351.136.5.442.808a2.227 2.227 0 01.808 1.692zM21.875 26.25h-1.25v1.25h1.25v-1.25zm0-1.25h-1.25v-6.875A1.875 1.875 0 0122.5 16.25H30a1.875 1.875 0 011.875 1.875v3.125a.624.624 0 01-.625.625h-9.375V25zm0-4.375h8.75v-2.5A.624.624 0 0030 17.5h-7.5a.624.624 0 00-.625.625v2.5z"/>
    <path d="M26.875 16.875h-1.25v4.375h1.25v-4.375z"/>
</svg>
