<svg xmlns="http://www.w3.org/2000/svg" data-name="Calque 1" viewBox="0 0 34.1 30.09">
    <path d="M17.05 30.09a.54.54 0 01-.36-.14L4.2 19a12.31 12.31 0 01-3.1-4.19A12.19 12.19 0 010 9.71a9.69 9.69 0 012.88-6.93A9.38 9.38 0 015.94.72 9.58 9.58 0 019.56 0a9.55 9.55 0 017.46 3.63A9.53 9.53 0 0124.85 0a9.69 9.69 0 019.25 9.7 12.19 12.19 0 01-1.1 5.09A12.41 12.41 0 0129.91 19l-12.5 11a.54.54 0 01-.36.09zm-7.49-29a8.35 8.35 0 00-3.2.64 8.68 8.68 0 00-4.6 4.65 8.46 8.46 0 00-.66 3.33 11.25 11.25 0 003.82 8.44l12.13 10.66 12.13-10.66A11.21 11.21 0 0033 9.71a8.6 8.6 0 00-8.18-8.61 8.42 8.42 0 00-7.31 3.76.55.55 0 01-.2.17.58.58 0 01-.26.06.54.54 0 01-.25-.09.55.55 0 01-.2-.17 8.49 8.49 0 00-7-3.77z"/>
    <path d="M19 20.79a.6.6 0 01-.32-.12.61.61 0 01-.19-.29l-2.35-9.44-2.63 5.7a.57.57 0 01-.22.24.48.48 0 01-.31.08.52.52 0 01-.3-.11.53.53 0 01-.19-.26l-1.17-3.51-.54 1.35a.55.55 0 01-.2.25.56.56 0 01-.31.09H7.48v-1.09h2.36l1-2.39A.51.51 0 0111 11a.44.44 0 01.31-.09.55.55 0 01.31.1.6.6 0 01.2.27L13 14.93l2.7-5.85a.56.56 0 01.3-.25.51.51 0 01.32-.07.54.54 0 01.3.13.53.53 0 01.18.28l2.3 9.21L20.64 14a.46.46 0 01.2-.26.57.57 0 01.31-.1h5.47v1.09h-5.09l-2.05 5.66a.52.52 0 01-.2.26.51.51 0 01-.28.14z"/>
</svg>
