<svg xmlns="http://www.w3.org/2000/svg" viewBox="0 0 34 34">
    <path d="M31.928 32.652V13.348l-10.824-4.33V0L1.62 5.73v26.922H0v1.082h33.555v-1.082h-1.627zm-23.813 0v-8.66h6.494v8.66H8.115zm11.906 0h-4.33V22.91H7.033v9.742h-4.33V6.541l17.32-5.093v31.204zm10.825 0h-9.742V10.18l9.742 3.898v18.574z"/>
    <path d="M23.807 16.416h-1.083v1.082h1.083v-1.082zm0 3.247h-1.083v1.082h1.083v-1.082zm0 3.247h-1.083v1.083h1.083V22.91zm0 3.247h-1.083v1.083h1.083v-1.083zm0 3.248h-1.083v1.082h1.083v-1.082zm5.412-12.989h-1.083v1.082h1.083v-1.082zm0 3.247h-1.083v1.082h1.083v-1.082zm0 3.247h-1.083v1.083h1.083V22.91zm0 3.247h-1.083v1.083h1.083v-1.083zm0 3.248h-1.083v1.082h1.083v-1.082zm-2.703-12.989h-1.082v1.082h1.082v-1.082zm0 3.247h-1.082v1.082h1.082v-1.082zm0 3.247h-1.082v1.083h1.082V22.91zm0 3.247h-1.082v1.083h1.082v-1.083zm0 3.248h-1.082v1.082h1.082v-1.082zM4.868 13.168h5.412V7.756H4.868v5.412zm1.082-4.33h3.247v3.248H5.95V8.839zm6.494 4.33h5.413V7.756h-5.412v5.412zm1.083-4.33h3.247v3.248h-3.247V8.839zM4.868 20.745h5.412v-5.412H4.868v5.412zm1.082-4.33h3.247v3.248H5.95v-3.247zm6.494 4.33h5.413v-5.412h-5.412v5.412zm1.083-4.33h3.247v3.248h-3.247v-3.247z"/>
</svg>
