<svg xmlns="http://www.w3.org/2000/svg" viewBox="0 0 20 17">
    <path d="M1.182.796c1.432 0 2.85.28 4.175.822 1.24.586 2.366 1.39 3.322 2.375.164-.186.357-.382.539-.586A12.19 12.19 0 005.646.882 11.821 11.821 0 001.18 0h-.154C.682 0 .357.021 0 .054v.803A9.482 9.482 0 011.032.8l.15-.004zm.004 2.418a8.214 8.214 0 013.571.69A8.84 8.84 0 017.19 5.66c.197-.211.379-.407.54-.586a9.571 9.571 0 00-2.65-1.896 9.046 9.046 0 00-3.9-.761h-.154c-.343 0-.686.027-1.025.082v.821c.34-.066.686-.102 1.032-.107h.154zM20 15.918a9.973 9.973 0 01-1.025.053h-.14a11.406 11.406 0 01-4.053-.878 14.11 14.11 0 01-3.964-2.457c.196-.186.39-.357.571-.561a13.284 13.284 0 003.682 2.279 10.41 10.41 0 003.761.821h.14c.343 0 .686-.02 1.028-.057v.8zm0-2.493c-.34.052-.682.08-1.025.082h-.14a10.692 10.692 0 01-4.135-1.1 11.41 11.41 0 01-2.25-1.428l.336-.358.107-.114.1-.107c.628.51 1.314.947 2.043 1.3a9.89 9.89 0 003.8 1.025h.139A6.495 6.495 0 0020 12.618v.807zm0-2.525a5.15 5.15 0 01-1.025.114h-.125a7.608 7.608 0 01-2.95-.689 10.697 10.697 0 01-1.864-1.071c.196-.2.385-.393.575-.572a9.779 9.779 0 001.607.893 6.882 6.882 0 002.621.621h.122c.35.002.698-.035 1.039-.11v.814z"/>
    <path d="M20 5.036a4.603 4.603 0 00-1.014-.125h-.172c-.714 0-2.314.171-3.421.821-1.468.86-2.5 1.957-3.886 3.475l-.107.114c-1.529 1.65-3.625 3.93-6.471 5.033-1.193.505-2.47.784-3.765.821h-.139c-.342 0-.685-.02-1.025-.057v.8c.357.036.682.054 1.025.054h.136a11.403 11.403 0 004.053-.88c3.018-1.185 5.182-3.524 6.765-5.231l.107-.115c1.357-1.467 2.339-2.528 3.707-3.328a6.868 6.868 0 013.014-.714h.172c.345.008.688.06 1.021.153v-.821z"/>
    <path d="M20 3.321a5.735 5.735 0 00-1.025-.107h-.171a8.215 8.215 0 00-3.572.693c-1.55.69-2.928 2.225-3.928 3.347-.272.303-.518.578-.736.803l-.314.336c-.986 1.071-2.818 3.021-4.947 4.014a10.714 10.714 0 01-4.143 1.097h-.139A7.148 7.148 0 010 13.425v-.807c.339.057.682.087 1.025.09h.14a9.892 9.892 0 003.8-1.026c1.989-.928 3.75-2.818 4.7-3.825l.32-.357c.219-.221.454-.49.715-.782 1.071-1.175 2.5-2.786 4.207-3.543a9.04 9.04 0 013.907-.76h.172c.34 0 .679.03 1.014.085v.821z"/>
    <path d="M20 .857A9.368 9.368 0 0018.975.8h-.171c-1.427 0-2.84.276-4.161.814-2.143.904-4.136 3.179-5.086 4.286l-.357.4c-1.021 1.129-2.729 3.018-5.09 4.043a7.615 7.615 0 01-2.935.69h-.154A5.05 5.05 0 010 10.902v-.817c.336.082.68.127 1.025.132h.154a6.898 6.898 0 002.603-.625c2.204-.954 3.84-2.764 4.814-3.847l.333-.389c1.003-1.132 3.064-3.5 5.392-4.475A11.81 11.81 0 0118.807 0h.175c.357 0 .679 0 1.014.05.004.004-.021.782.004.807z"/>
    <path d="M1.186 5.714c1.047.005 2.08.25 3.018.715.438.26.855.555 1.246.882.214-.172.421-.357.618-.525a10.38 10.38 0 00-1.46-1.072c-1.108-.65-2.722-.821-3.422-.821h-.168c-.344.01-.685.057-1.018.143v.821c.333-.09.676-.138 1.021-.143h.165z"/>
</svg>
