<svg xmlns="http://www.w3.org/2000/svg" viewBox="0 0 22 20">
    <path d="M12.2 19.2c-1.8 0-5.9-1.9-7-2.4-.2.5-.7.8-1.2.8H1.4c-.3 0-.5-.2-.5-.5v-6.7c0-.1.1-.3.2-.4.1-.1.3-.1.4-.1l3.4.7c.5.1.8.4 1 .9.5-.1 1.3-.3 2.2-.3.8 0 1.4.3 2.1.6.5.2 1 .5 1.8.7 1.5.3 3.1.7 3.3 1.9.9-.3 2.5-.7 3.3-.7 1.5 0 2.6.7 2.6 1.8 0 .2-.1.4-.3.5-.3.1-.8.4-1.3.6-3 1.3-5.8 2.6-7.4 2.6zm-6.8-3.4c1.4.7 5.3 2.4 6.8 2.4 1.4 0 4.9-1.7 6.7-2.6.4-.2.7-.4 1-.5-.2-.3-.9-.5-1.5-.5-.8 0-2.9.6-3.6.8h-.2c-.5.4-1.7.8-6-.5-.3-.1-.4-.4-.3-.6.1-.3.4-.4.6-.3 4 1.2 4.9.8 5.1.6.1 0 .1-.1.1-.2 0-.5-.8-.8-2.5-1.2-.8-.2-1.5-.5-2-.7-.6-.3-1.1-.5-1.7-.5-.9 0-1.8.2-2.2.3l-.3 3.5zm-3.5.8H4c.2 0 .3-.1.3-.3L5 12c0-.2-.1-.3-.3-.4L1.9 11v5.6zm15.8-4.8c-1.4 0-2.6-1.2-2.6-2.6 0-1.2 1.8-4.2 2.2-4.8.1-.1.3-.2.4-.2.2 0 .3.1.4.2.4.6 2.2 3.6 2.2 4.8-.1 1.4-1.2 2.6-2.6 2.6zm0-6.2c-.7 1.3-1.6 3-1.6 3.6 0 .9.7 1.6 1.6 1.6s1.6-.7 1.6-1.6c-.1-.6-.9-2.3-1.6-3.6zm-5.5 2.8c-1.4 0-2.6-1.2-2.6-2.6 0-1.2 1.8-4.2 2.2-4.8.1-.1.3-.2.4-.2.2 0 .3.1.4.2.4.6 2.2 3.6 2.2 4.8 0 1.5-1.1 2.6-2.6 2.6zm0-6.2c-.7 1.3-1.6 3-1.6 3.6 0 .9.7 1.6 1.6 1.6s1.6-.7 1.6-1.6c0-.6-.8-2.3-1.6-3.6z"/>
</svg>
