<svg xmlns="http://www.w3.org/2000/svg" viewBox="0 0 25 18">
    <path d="M22.6 18h-20c-1.1 0-2-.9-2-2V2c0-1.1.9-2 2-2h20c1.1 0 2 .9 2 2v14c0 1.1-.9 2-2 2zM2.6 1c-.6 0-1 .4-1 1v14c0 .6.5 1 1 1h20c.6 0 1-.4 1-1V2c0-.6-.5-1-1-1h-20z"/>
    <path d="M6.9 15v-1c0-.3-.2-.6-.6-.6-.2 0-.4.1-.5.3-.1-.2-.3-.3-.5-.3s-.3 0-.4.2v-.2h-.3V15h.3v-.8c0-.3.1-.4.4-.4.2 0 .3.1.3.4v.8h.3v-.8c0-.3.1-.4.4-.4.2 0 .3.1.3.4v.8h.3zm4.8-1.5h-.5v-.4h-.3v.4h-.3v.3h.3v.7c0 .3.1.5.5.5.1 0 .3 0 .4-.1l-.1-.3c-.1.1-.2.1-.3.1-.2 0-.2-.1-.2-.2v-.7h.5v-.3zm2.7 0c-.2 0-.3.1-.4.2v-.2h-.3V15h.3v-.8c0-.2.1-.4.3-.4h.2l.1-.3h-.2zm-4.1.1c-.2-.1-.4-.2-.6-.2-.4 0-.6.2-.6.5 0 .2.2.4.5.4h.1c.2 0 .3.1.3.2s-.1.2-.3.2c-.2 0-.4-.1-.5-.2l-.2.3c.2.1.4.2.6.2.4 0 .7-.2.7-.5s-.2-.4-.5-.4h-.1c-.1 0-.2 0-.2-.1s.1-.2.3-.2c.2 0 .4.1.5.1v-.3zm8.5-.1c-.2 0-.3.1-.4.2v-.2h-.3V15h.3v-.8c0-.2.1-.4.3-.4h.2l.1-.3h-.2zm-4.1.7c0 .4.3.8.8.8.2 0 .4 0 .5-.2l-.2-.3c-.1.1-.2.1-.4.1-.3 0-.4-.2-.4-.5s.2-.5.4-.5c.1 0 .3 0 .4.1l.2-.3c-.2-.1-.3-.2-.5-.2-.5.3-.8.6-.8 1zm3 0v-.7h-.3v.2c-.1-.1-.3-.2-.5-.2-.4 0-.7.3-.7.8 0 .4.3.8.7.8.2 0 .4-.1.5-.2v.1h.3v-.8zm-1.2 0c0-.3.2-.5.4-.5.3 0 .4.2.4.5s-.2.5-.4.5c-.3 0-.4-.2-.4-.5zm-3.9-.7c-.4 0-.7.3-.7.8s.3.8.7.8c.2 0 .4-.1.6-.2l-.2-.2c-.1.1-.3.2-.4.2-.2 0-.4-.1-.4-.4h1.1v-.1c0-.6-.2-.9-.7-.9zm0 .3c.2 0 .3.1.4.4h-.8c.1-.3.2-.4.4-.4zm8 .4v-1.3h-.3v.8c-.1-.1-.3-.2-.5-.2-.4 0-.7.3-.7.8 0 .4.3.8.7.8.2 0 .4-.1.5-.2v.1h.3v-.8zm-1.2 0c0-.3.2-.5.4-.5.3 0 .4.2.4.5s-.2.5-.4.5-.4-.2-.4-.5zm-10.7 0v-.7h-.3v.2c-.1-.1-.3-.2-.5-.2-.4 0-.7.3-.7.8 0 .4.3.8.7.8.2 0 .4-.1.5-.2v.1h.3v-.8zm-1.2 0c0-.3.2-.5.4-.5.3 0 .4.2.4.5s-.2.5-.4.5-.4-.2-.4-.5zm1.8-1.7c-2.6 0-4.8-2.1-4.8-4.8S6.7 3 9.3 3s4.8 2.1 4.8 4.8-2.1 4.7-4.8 4.7zm0-8.5c-2 0-3.7 1.7-3.7 3.8s1.7 3.8 3.8 3.8 3.8-1.7 3.8-3.8S11.4 4 9.3 4z"/>
    <path d="M15.9 12.5c-2.6 0-4.8-2.1-4.8-4.8S13.2 3 15.9 3s4.8 2.1 4.8 4.8-2.2 4.7-4.8 4.7zm0-8.5c-2.1 0-3.8 1.7-3.8 3.8s1.7 3.8 3.8 3.8c2.1 0 3.8-1.7 3.8-3.8S17.9 4 15.9 4z"/>
</svg>
