<svg xmlns="http://www.w3.org/2000/svg" viewBox="0 0 16 13">
    <path d="M14.1 12.3H1.6c-.4 0-.7-.2-1-.4-.2-.3-.4-.6-.4-1V2.1C.2 1.3.8.7 1.6.7h12.5c.8 0 1.4.6 1.4 1.4v8.8c0 .4-.2.7-.4 1-.3.3-.7.4-1 .4zm-12.2-1h11.9c-1-1-3.1-2.9-4.5-4.2-.2.2-.4.3-.5.4-.6.5-1.4.5-2 0-.1-.1-.2-.2-.4-.3-1.4 1.2-3.5 3.1-4.5 4.1zm-.8-9v8.3c1-.9 3.1-2.9 4.5-4.2-1.4-1.3-3.5-3.2-4.5-4.1zM10 6.5c1.5 1.3 3.5 3.2 4.5 4.2V2.3c-1 .9-3.1 2.8-4.5 4.2zM1.9 1.7c1.4 1.2 4.4 4.1 5.6 5.1.2.2.4.2.6 0 1.1-1 4.2-3.9 5.6-5.1H1.9z"/>
</svg>
