<svg xmlns="http://www.w3.org/2000/svg" viewBox="0 0 40 30">
    <path d="M38.125 27.5H31.25v-1.25h6.875a.624.624 0 00.625-.625V23.75h-30V22.5h30.625a.624.624 0 01.625.625v2.5a1.875 1.875 0 01-1.875 1.875z"/>
    <path d="M30 27.5H1.875A1.875 1.875 0 010 25.625v-2.5a.625.625 0 01.625-.625H7.5v1.25H1.25v1.875a.625.625 0 00.625.625H30v1.25z"/>
    <path d="M6.875 30h-3.75a.625.625 0 01-.625-.625v-2.5h1.25v1.875h2.5v-1.875H7.5v2.5a.625.625 0 01-.625.625zm30 0h-3.75a.624.624 0 01-.625-.625v-2.5h1.25v1.875h2.5v-1.875h1.25v2.5a.624.624 0 01-.625.625zM22.5 23.75a6.25 6.25 0 116.25-6.25 6.257 6.257 0 01-6.25 6.25zm0-11.25a5 5 0 100 10 5 5 0 000-10z"/>
    <path d="M6.25 23.75a6.25 6.25 0 010-12.5h27.5v1.25H6.25a5 5 0 000 10v1.25z"/>
    <path d="M22.223 21.25a2.85 2.85 0 01-2.848-2.848A2.405 2.405 0 0121.777 16a2.05 2.05 0 012.048 2.047h-1.25a.798.798 0 00-.797-.797 1.154 1.154 0 00-1.153 1.152A1.598 1.598 0 0022.223 20a2.155 2.155 0 002.152-2.152A2.85 2.85 0 0021.527 15v-1.25a4.102 4.102 0 014.098 4.098 3.406 3.406 0 01-3.402 3.402zm11.527 2.5A6.25 6.25 0 1140 17.5a6.257 6.257 0 01-6.25 6.25zm0-11.25a4.999 4.999 0 100 9.998 4.999 4.999 0 000-9.998z"/>
    <path d="M33.472 21.25a2.85 2.85 0 01-2.847-2.848A2.405 2.405 0 0133.028 16a2.05 2.05 0 012.047 2.047h-1.25a.798.798 0 00-.797-.797 1.154 1.154 0 00-1.153 1.152A1.598 1.598 0 0033.472 20a2.155 2.155 0 002.153-2.152A2.85 2.85 0 0032.778 15v-1.25a4.102 4.102 0 014.097 4.098 3.406 3.406 0 01-3.403 3.402zm-5.347-8.75a6.25 6.25 0 116.25-6.25 6.257 6.257 0 01-6.25 6.25zm0-11.25a5 5 0 100 10 5 5 0 000-10z"/>
    <path d="M28.125 0h-12.5v1.25h12.5V0zm-13.75 0h-1.25v1.25h1.25V0zm-3.75 12.5a6.25 6.25 0 010-12.5h1.25v1.25h-1.25a5 5 0 000 10v1.25zM27.848 10A2.85 2.85 0 0125 7.152a2.405 2.405 0 012.402-2.402 2.05 2.05 0 012.048 2.047H28.2A.798.798 0 0027.403 6a1.154 1.154 0 00-1.153 1.152 1.598 1.598 0 001.598 1.598A2.155 2.155 0 0030 6.598a2.85 2.85 0 00-2.848-2.848V2.5a4.102 4.102 0 014.098 4.098A3.406 3.406 0 0127.848 10z"/>
    <path d="M20.625 2.5H9.375v1.25h11.25V2.5zm-5 11.25h-8.75V15h8.75v-1.25zm-10 0h-1.25V15h1.25v-1.25z"/>
</svg>
