<svg xmlns="http://www.w3.org/2000/svg" viewBox="0 0 28 38">
    <mask id="a" width="28" height="38" x=".191" y="-.044" maskUnits="userSpaceOnUse">
        <path d="M.191-.044h28v38h-28z"/>
        <path d="M26.422 28.674a4.209 4.209 0 00-2.258-1.177L23.08 24.58c.283.047.518.094.8.094 1.412 0 2.73-.8 3.389-2.07a3.745 3.745 0 00-.895-4.566l-4.753-4.094a8.057 8.057 0 00.989-3.812c0-.894-.142-1.74-.424-2.588.753-.706 1.224-1.74 1.224-2.776A3.796 3.796 0 0019.599.956a3.83 3.83 0 00-2.918 1.365c-1.459-.424-2.965-.424-4.423.047C11.552 1.474 10.47.956 9.293.956a3.796 3.796 0 00-3.812 3.812c0 1.13.47 2.165 1.318 2.87-.282.8-.377 1.647-.377 2.495 0 1.364.33 2.635.942 3.764l-4.895 4.188c-1.317 1.13-1.647 3.012-.847 4.565a3.836 3.836 0 003.389 2.07c.282 0 .517-.046.8-.093l-1.083 2.87a4.209 4.209 0 00-2.259 1.177 4.374 4.374 0 000 6.164l.848.847a4.353 4.353 0 003.058 1.271 4.28 4.28 0 003.06-1.27c.752-.754 1.129-1.695 1.223-2.683v-.141c0-1.459 1.176-3.059 3.764-3.059 2.542 0 3.718 1.6 3.718 3.059v.047a4.024 4.024 0 001.27 2.776 4.353 4.353 0 003.06 1.271 4.353 4.353 0 003.058-1.27l.847-.848c1.741-1.74 1.741-4.47.047-6.164zM9.293 2.32c.847 0 1.6.423 2.07 1.176l.283.518.565-.188c1.458-.518 3.011-.565 4.517-.047l.518.188.282-.47c.424-.707 1.224-1.13 2.024-1.13a2.41 2.41 0 012.4 2.4c0 .8-.377 1.506-1.036 1.976l-.47.33.235.517c.33.8.518 1.647.518 2.542a6.678 6.678 0 01-6.683 6.682c-3.67 0-6.682-3.012-6.682-6.683 0-.847.141-1.694.47-2.447l.236-.564-.47-.33c-.706-.423-1.13-1.223-1.13-2.023A2.353 2.353 0 019.293 2.32zm-.894 32.33c-1.13 1.129-3.012 1.129-4.141 0l-.847-.848c-1.13-1.13-1.13-3.012 0-4.141a2.92 2.92 0 012.07-.847c.8 0 1.506.33 2.07.847l.848.847a2.87 2.87 0 010 4.141zm6.023-6.307c-2.023 0-3.482.847-4.329 2.024a4.058 4.058 0 00-.659-.847l-.847-.847a4.364 4.364 0 00-2.4-1.224l1.318-3.435 2.212-.8c.376-.141.564-.518.423-.894-.141-.377-.518-.565-.894-.424l-3.624 1.27c-1.082.33-2.258-.187-2.776-1.223a2.358 2.358 0 01.518-2.87l4.705-4.047c1.506 1.93 3.812 3.153 6.4 3.153a8.029 8.029 0 006.353-3.106l4.612 4c.8.706 1.035 1.93.565 2.87a2.374 2.374 0 01-2.73 1.224l-3.67-1.27c-.377-.142-.753.046-.894.423-.141.376.047.753.423.894l2.212.8 1.318 3.435a4.364 4.364 0 00-2.4 1.224l-.847.847c-.283.282-.47.564-.66.847-.8-1.177-2.258-2.024-4.329-2.024zm11.012 5.46l-.847.846c-1.13 1.13-3.012 1.13-4.141 0-1.13-1.13-1.13-3.012 0-4.141l.847-.847a2.92 2.92 0 012.07-.847c.8 0 1.506.33 2.071.847a2.87 2.87 0 010 4.141z"/>
        <path d="M12.775 12.109l1.036 1.082a.856.856 0 001.27 0l.989-1.082c.517-.565.094-1.459-.66-1.459h-1.976c-.753 0-1.176.894-.659 1.459zm3.718-2.777a.612.612 0 100-1.223.612.612 0 000 1.223zm-4.141 0a.612.612 0 100-1.223.612.612 0 000 1.223z"/>
    </mask>
    <path d="M26.422 28.674a4.209 4.209 0 00-2.258-1.177L23.08 24.58c.283.047.518.094.8.094 1.412 0 2.73-.8 3.389-2.07a3.745 3.745 0 00-.895-4.566l-4.753-4.094a8.057 8.057 0 00.989-3.812c0-.894-.142-1.74-.424-2.588.753-.706 1.224-1.74 1.224-2.776A3.796 3.796 0 0019.599.956a3.83 3.83 0 00-2.918 1.365c-1.459-.424-2.965-.424-4.423.047C11.552 1.474 10.47.956 9.293.956a3.796 3.796 0 00-3.812 3.812c0 1.13.47 2.165 1.318 2.87-.282.8-.377 1.647-.377 2.495 0 1.364.33 2.635.942 3.764l-4.895 4.188c-1.317 1.13-1.647 3.012-.847 4.565a3.836 3.836 0 003.389 2.07c.282 0 .517-.046.8-.093l-1.083 2.87a4.209 4.209 0 00-2.259 1.177 4.374 4.374 0 000 6.164l.848.847a4.353 4.353 0 003.058 1.271 4.28 4.28 0 003.06-1.27c.752-.754 1.129-1.695 1.223-2.683v-.141c0-1.459 1.176-3.059 3.764-3.059 2.542 0 3.718 1.6 3.718 3.059v.047a4.024 4.024 0 001.27 2.776 4.353 4.353 0 003.06 1.271 4.353 4.353 0 003.058-1.27l.847-.848c1.741-1.74 1.741-4.47.047-6.164zM9.293 2.32c.847 0 1.6.423 2.07 1.176l.283.518.565-.188c1.458-.518 3.011-.565 4.517-.047l.518.188.282-.47c.424-.707 1.224-1.13 2.024-1.13a2.41 2.41 0 012.4 2.4c0 .8-.377 1.506-1.036 1.976l-.47.33.235.517c.33.8.518 1.647.518 2.542a6.678 6.678 0 01-6.683 6.682c-3.67 0-6.682-3.012-6.682-6.683 0-.847.141-1.694.47-2.447l.236-.564-.47-.33c-.706-.423-1.13-1.223-1.13-2.023A2.353 2.353 0 019.293 2.32zm-.894 32.33c-1.13 1.129-3.012 1.129-4.141 0l-.847-.848c-1.13-1.13-1.13-3.012 0-4.141a2.92 2.92 0 012.07-.847c.8 0 1.506.33 2.07.847l.848.847a2.87 2.87 0 010 4.141zm6.023-6.307c-2.023 0-3.482.847-4.329 2.024a4.058 4.058 0 00-.659-.847l-.847-.847a4.364 4.364 0 00-2.4-1.224l1.318-3.435 2.212-.8c.376-.141.564-.518.423-.894-.141-.377-.518-.565-.894-.424l-3.624 1.27c-1.082.33-2.258-.187-2.776-1.223a2.358 2.358 0 01.518-2.87l4.705-4.047c1.506 1.93 3.812 3.153 6.4 3.153a8.029 8.029 0 006.353-3.106l4.612 4c.8.706 1.035 1.93.565 2.87a2.374 2.374 0 01-2.73 1.224l-3.67-1.27c-.377-.142-.753.046-.894.423-.141.376.047.753.423.894l2.212.8 1.318 3.435a4.364 4.364 0 00-2.4 1.224l-.847.847c-.283.282-.47.564-.66.847-.8-1.177-2.258-2.024-4.329-2.024zm11.012 5.46l-.847.846c-1.13 1.13-3.012 1.13-4.141 0-1.13-1.13-1.13-3.012 0-4.141l.847-.847a2.92 2.92 0 012.07-.847c.8 0 1.506.33 2.071.847a2.87 2.87 0 010 4.141z"/>
    <path d="M12.775 12.109l1.036 1.082a.856.856 0 001.27 0l.989-1.082c.517-.565.094-1.459-.66-1.459h-1.976c-.753 0-1.176.894-.659 1.459zm3.718-2.777a.612.612 0 100-1.223.612.612 0 000 1.223zm-4.141 0a.612.612 0 100-1.223.612.612 0 000 1.223z"/>
    <path d="M26.422 28.674a4.209 4.209 0 00-2.258-1.177L23.08 24.58c.283.047.518.094.8.094 1.412 0 2.73-.8 3.389-2.07a3.745 3.745 0 00-.895-4.566l-4.753-4.094a8.057 8.057 0 00.989-3.812c0-.894-.142-1.74-.424-2.588.753-.706 1.224-1.74 1.224-2.776A3.796 3.796 0 0019.599.956a3.83 3.83 0 00-2.918 1.365c-1.459-.424-2.965-.424-4.423.047C11.552 1.474 10.47.956 9.293.956a3.796 3.796 0 00-3.812 3.812c0 1.13.47 2.165 1.318 2.87-.282.8-.377 1.647-.377 2.495 0 1.364.33 2.635.942 3.764l-4.895 4.188c-1.317 1.13-1.647 3.012-.847 4.565a3.836 3.836 0 003.389 2.07c.282 0 .517-.046.8-.093l-1.083 2.87a4.209 4.209 0 00-2.259 1.177 4.374 4.374 0 000 6.164l.848.847a4.353 4.353 0 003.058 1.271 4.28 4.28 0 003.06-1.27c.752-.754 1.129-1.695 1.223-2.683v-.141c0-1.459 1.176-3.059 3.764-3.059 2.542 0 3.718 1.6 3.718 3.059v.047a4.024 4.024 0 001.27 2.776 4.353 4.353 0 003.06 1.271 4.353 4.353 0 003.058-1.27l.847-.848c1.741-1.74 1.741-4.47.047-6.164zM9.293 2.32c.847 0 1.6.423 2.07 1.176l.283.518.565-.188c1.458-.518 3.011-.565 4.517-.047l.518.188.282-.47c.424-.707 1.224-1.13 2.024-1.13a2.41 2.41 0 012.4 2.4c0 .8-.377 1.506-1.036 1.976l-.47.33.235.517c.33.8.518 1.647.518 2.542a6.678 6.678 0 01-6.683 6.682c-3.67 0-6.682-3.012-6.682-6.683 0-.847.141-1.694.47-2.447l.236-.564-.47-.33c-.706-.423-1.13-1.223-1.13-2.023A2.353 2.353 0 019.293 2.32zm-.894 32.33c-1.13 1.129-3.012 1.129-4.141 0l-.847-.848c-1.13-1.13-1.13-3.012 0-4.141a2.92 2.92 0 012.07-.847c.8 0 1.506.33 2.07.847l.848.847a2.87 2.87 0 010 4.141zm6.023-6.307c-2.023 0-3.482.847-4.329 2.024a4.058 4.058 0 00-.659-.847l-.847-.847a4.364 4.364 0 00-2.4-1.224l1.318-3.435 2.212-.8c.376-.141.564-.518.423-.894-.141-.377-.518-.565-.894-.424l-3.624 1.27c-1.082.33-2.258-.187-2.776-1.223a2.358 2.358 0 01.518-2.87l4.705-4.047c1.506 1.93 3.812 3.153 6.4 3.153a8.029 8.029 0 006.353-3.106l4.612 4c.8.706 1.035 1.93.565 2.87a2.374 2.374 0 01-2.73 1.224l-3.67-1.27c-.377-.142-.753.046-.894.423-.141.376.047.753.423.894l2.212.8 1.318 3.435a4.364 4.364 0 00-2.4 1.224l-.847.847c-.283.282-.47.564-.66.847-.8-1.177-2.258-2.024-4.329-2.024zm11.012 5.46l-.847.846c-1.13 1.13-3.012 1.13-4.141 0-1.13-1.13-1.13-3.012 0-4.141l.847-.847a2.92 2.92 0 012.07-.847c.8 0 1.506.33 2.071.847a2.87 2.87 0 010 4.141z" mask="url(#a)"/>
    <path d="M12.775 12.109l1.036 1.082a.856.856 0 001.27 0l.989-1.082c.517-.565.094-1.459-.66-1.459h-1.976c-.753 0-1.176.894-.659 1.459zm3.718-2.777a.612.612 0 100-1.223.612.612 0 000 1.223zm-4.141 0a.612.612 0 100-1.223.612.612 0 000 1.223z" mask="url(#a)"/>
</svg>
