<svg xmlns="http://www.w3.org/2000/svg" viewBox="0 0 16 16">
    <path d="M14.5 15.6C6.8 15.6.6 9.4.6 1.7.6 1 1.2.4 1.9.4h2.8C5.4.4 6 1 6 1.7c0 .9.1 1.8.4 2.7.1.5 0 1-.3 1.3L4.8 7.3c1 1.9 2.2 3.1 4.1 4.1l1.6-1.2c.3-.3.8-.4 1.3-.3.8.3 1.7.4 2.6.4.7 0 1.3.6 1.3 1.3v2.7c.1.7-.5 1.3-1.2 1.3zM1.9 1.4c-.2 0-.3.1-.3.3 0 7.1 5.8 12.9 12.9 12.9.2 0 .3-.1.3-.3v-2.7c0-.2-.1-.3-.3-.3-1 0-2-.2-3-.5-.1 0-.2 0-.3.1l-1.9 1.5c-.2.1-.4.1-.5 0-2.4-1.2-3.8-2.6-5-5-.1-.2-.1-.4 0-.5L5.3 5c.1-.1.2-.2.1-.4-.3-.9-.5-1.9-.5-3 0-.2-.1-.3-.3-.3H1.9z"/>
</svg>
