<svg xmlns="http://www.w3.org/2000/svg" viewBox="0 0 20 20">
    <path d="M18.787 6.477c-.125.027-1.803.418-3.953 1.774-.323-1.567-1.279-4.501-4.108-7.485L10 0l-.726.767C6.435 3.762 5.483 6.704 5.163 8.281 3.005 6.902 1.34 6.506 1.218 6.478L0 6.206v1.248c0 7.29 3.925 12 10 12 5.981 0 10-4.822 10-12V6.212l-1.213.265zM6.999 9.492c.002-.033.152-3.1 3.001-6.532 2.814 3.4 3 6.494 3 6.494v.125a18.933 18.933 0 00-3.01 3.154A19.877 19.877 0 006.999 9.62v-.128zM10 17.454c-5.316 0-7.549-4.196-7.937-8.564 1.655.718 4.616 2.426 7.107 6.123l.841 1.249.825-1.26c2.426-3.708 5.425-5.411 7.096-6.122-.398 4.228-2.628 8.574-7.932 8.574z"/>
</svg>
