<svg xmlns="http://www.w3.org/2000/svg" enable-background="new 0 0 38 38" viewBox="0 0 38 38">
    <path d="M1.6 36.5c0 .1.1.2.2.3.1.2.3.2.4.2h25.2c.1 0 .3 0 .4-.1.1-.1.2-.2.2-.3l.6-2.4v-.3c0-.1-.1-.2-.1-.2l-.2-.2c-.1 0-.2-.1-.3-.1h-.6c-.1-2.8-1.2-5.5-3.1-7.6-1.8-2.1-4.4-3.6-7.1-4.1v-.2c0-.6-.3-1.2-.7-1.7-.5-.5-1.1-.8-1.7-.8-.6 0-1.2.3-1.7.7-.5.5-.7 1.1-.7 1.7v.2c-2.8.5-5.3 2-7.1 4.1-1.8 2.1-2.9 4.8-3.1 7.6h-.6c-.1 0-.2 0-.3.1s-.2.1-.2.2-.1.2-.1.3v.3l.6 2.3zm25.3-.7H2.7l-.3-1.2h24.9l-.4 1.2zM13.6 21.4c0-.3.1-.6.4-.8.2-.2.5-.4.8-.4.3 0 .6.1.8.4.2.2.4.5.4.8v.1c-.4 0-.8-.1-1.2-.1h-1.2zm1.2 1.2c2.9 0 5.7 1.1 7.8 3.1s3.4 4.8 3.5 7.7H3.4c.2-2.9 1.4-5.7 3.5-7.7s5-3.1 7.9-3.1z"/>
    <path d="M6 28.9l1 .6c1-1.7 2.5-3 4.3-3.8 1.8-.8 3.8-.9 5.7-.4l.3-1.2c-2.2-.6-4.4-.4-6.5.5-2 .9-3.7 2.4-4.8 4.3zm-1.1 2.5l1.2.3c.1-.4.2-.8.4-1.1l-1.1-.5c-.2.5-.4.9-.5 1.3zM36.4 4h-1.8V1.6c0-.1 0-.2-.1-.3 0-.1-.1-.1-.2-.2l-.1-.1h-.3L14.7 4c-.1 0-.3.1-.4.2-.1.1-.1.2-.1.4v13.2h1.2V5.2h20.4v30.6h-6.6V37h7.2c.2 0 .3-.1.4-.2.1-.1.2-.3.2-.4V4.6c0-.2-.1-.3-.2-.4-.1-.1-.2-.2-.4-.2zm-3 0H22.5l10.9-1.7V4z"/>
    <path d="M20.1 11.7L18.4 10l-.8.8 1.7 1.7c.5.5 1.1.8 1.8.9.7.1 1.4-.1 2-.5l1.7 1.7-5.5 5.5.8.8 5.5-5.5 5.5 5.5.8-.8-5.5-5.5.9-.9c.6.4 1.3.6 2 .5.7-.1 1.3-.4 1.8-.9l.8-.8c.3-.3.5-.6.7-1s.2-.8.2-1.2c0-.4-.1-.8-.2-1.2-.2-.4-.4-.7-.7-1s-.6-.5-1-.7c-.4-.2-.8-.2-1.2-.2-.4 0-.8.1-1.2.2-.4.2-.7.4-1 .7l-.8.8c-.5.5-.8 1.1-.9 1.8-.1.7.1 1.4.5 2l-.9.9-1.5-1.6c.4-.6.6-1.3.5-2-.1-.7-.4-1.3-.9-1.8l-1.7-1.7-.8.8L22.7 9c.3.3.4.6.5 1 .1.4 0 .7-.1 1.1l-2.9-2.9-.8.8 2.9 2.9c-.3.2-.7.2-1.1.2-.5 0-.9-.2-1.1-.4zm7.6-1.7l.8-.8c.3-.3.8-.5 1.3-.5s.9.2 1.3.5c.3.3.5.8.5 1.3s-.2.9-.5 1.3l-.8.8c-.2.2-.4.3-.6.4-.2.1-.5.1-.7.1s-.5 0-.7-.1c-.2-.1-.4-.2-.6-.4-.2-.2-.3-.4-.4-.6-.1-.2-.1-.5-.1-.7 0-.2.1-.5.1-.7.1-.3.2-.5.4-.6zM34 22.6h-1.2v1.2H34v-1.2zm0 2.4h-1.2v1.2H34V25zm0 2.4h-1.2v1.2H34v-1.2zm-2.4-4.8h-7.8v1.2h7.8v-1.2zm0 2.4h-5.4v1.2h5.4V25zm0 2.4H28v1.2h3.6v-1.2zM13 5.8h-1.2v10.8H13V5.8z"/>
    <defs>
        <filter id="a" width="28.1" height="18.5" x=".8" y="18.7" filterUnits="userSpaceOnUse">
            <feColorMatrix values="1 0 0 0 0 0 1 0 0 0 0 0 1 0 0 0 0 0 1 0"/>
        </filter>
    </defs>
    <mask id="b" width="28.1" height="18.5" x=".8" y="18.7" maskUnits="userSpaceOnUse">
        <path d="M0 0h38v38H0z" filter="url(#a)"/>
        <path d="M1.6 36.5c0 .1.1.2.2.3.1.2.3.2.4.2h25.2c.1 0 .3 0 .4-.1.1-.1.2-.2.2-.3l.6-2.4v-.3c0-.1-.1-.2-.1-.2l-.2-.2c-.1 0-.2-.1-.3-.1h-.6c-.1-2.8-1.2-5.5-3.1-7.6-1.8-2.1-4.4-3.6-7.1-4.1v-.2c0-.6-.3-1.2-.7-1.7-.5-.5-1.1-.8-1.7-.8-.6 0-1.2.3-1.7.7-.5.5-.7 1.1-.7 1.7v.2c-2.8.5-5.3 2-7.1 4.1-1.8 2.1-2.9 4.8-3.1 7.6h-.6c-.1 0-.2 0-.3.1s-.2.1-.2.2-.1.2-.1.3v.3l.6 2.3zm25.3-.7H2.7l-.3-1.2h24.9l-.4 1.2zM13.6 21.4c0-.3.1-.6.4-.8.2-.2.5-.4.8-.4.3 0 .6.1.8.4.2.2.4.5.4.8v.1c-.4 0-.8-.1-1.2-.1h-1.2zm1.2 1.2c2.9 0 5.7 1.1 7.8 3.1s3.4 4.8 3.5 7.7H3.4c.2-2.9 1.4-5.7 3.5-7.7s5-3.1 7.9-3.1z"/>
        <path d="M6 28.9l1 .6c1-1.7 2.5-3 4.3-3.8 1.8-.8 3.8-.9 5.7-.4l.3-1.2c-2.2-.6-4.4-.4-6.5.5-2 .9-3.7 2.4-4.8 4.3zm-1.1 2.5l1.2.3c.1-.4.2-.8.4-1.1l-1.1-.5c-.2.5-.4.9-.5 1.3zM36.4 4h-1.8V1.6c0-.1 0-.2-.1-.3 0-.1-.1-.1-.2-.2l-.1-.1h-.3L14.7 4c-.1 0-.3.1-.4.2-.1.1-.1.2-.1.4v13.2h1.2V5.2h20.4v30.6h-6.6V37h7.2c.2 0 .3-.1.4-.2.1-.1.2-.3.2-.4V4.6c0-.2-.1-.3-.2-.4-.1-.1-.2-.2-.4-.2zm-3 0H22.5l10.9-1.7V4z"/>
        <path d="M20.1 11.7L18.4 10l-.8.8 1.7 1.7c.5.5 1.1.8 1.8.9.7.1 1.4-.1 2-.5l1.7 1.7-5.5 5.5.8.8 5.5-5.5 5.5 5.5.8-.8-5.5-5.5.9-.9c.6.4 1.3.6 2 .5.7-.1 1.3-.4 1.8-.9l.8-.8c.3-.3.5-.6.7-1s.2-.8.2-1.2c0-.4-.1-.8-.2-1.2-.2-.4-.4-.7-.7-1s-.6-.5-1-.7c-.4-.2-.8-.2-1.2-.2-.4 0-.8.1-1.2.2-.4.2-.7.4-1 .7l-.8.8c-.5.5-.8 1.1-.9 1.8-.1.7.1 1.4.5 2l-.9.9-1.5-1.6c.4-.6.6-1.3.5-2-.1-.7-.4-1.3-.9-1.8l-1.7-1.7-.8.8L22.7 9c.3.3.4.6.5 1 .1.4 0 .7-.1 1.1l-2.9-2.9-.8.8 2.9 2.9c-.3.2-.7.2-1.1.2-.5 0-.9-.2-1.1-.4zm7.6-1.7l.8-.8c.3-.3.8-.5 1.3-.5s.9.2 1.3.5c.3.3.5.8.5 1.3s-.2.9-.5 1.3l-.8.8c-.2.2-.4.3-.6.4-.2.1-.5.1-.7.1s-.5 0-.7-.1c-.2-.1-.4-.2-.6-.4-.2-.2-.3-.4-.4-.6-.1-.2-.1-.5-.1-.7 0-.2.1-.5.1-.7.1-.3.2-.5.4-.6zM34 22.6h-1.2v1.2H34v-1.2zm0 2.4h-1.2v1.2H34V25zm0 2.4h-1.2v1.2H34v-1.2zm-2.4-4.8h-7.8v1.2h7.8v-1.2zm0 2.4h-5.4v1.2h5.4V25zm0 2.4H28v1.2h3.6v-1.2zM13 5.8h-1.2v10.8H13V5.8z"/>
    </mask>
    <path d="M27.4 37.2H2.2c-.2 0-.4-.1-.5-.2-.1-.1-.3-.3-.3-.5l-.6-2.4v-.4c0-.1.1-.2.2-.3.1-.1.2-.2.3-.2.1-.1.2-.1.4-.1H2c.2-2.8 1.3-5.5 3.1-7.6 1.8-2.1 4.3-3.6 7-4.2a2.732 2.732 0 012.7-2.7 2.732 2.732 0 012.7 2.7c2.7.6 5.2 2 7 4.2 1.8 2.1 2.9 4.8 3.1 7.6h.4c.1 0 .3 0 .4.1.1.1.2.1.3.2.1.1.1.2.2.3v.4l-.6 2.4c0 .2-.2.3-.3.5-.2.2-.4.2-.6.2zM1.6 33.7h-.2l-.1.1-.1.1v.2l.6 2.4c0 .1.1.1.1.2.1 0 .1.1.2.1h25.2c.1 0 .2 0 .2-.1.1 0 .1-.1.1-.2l.6-2.4v-.2c0-.1 0-.1-.1-.1l-.1-.1h-1.1v-.2c-.1-2.8-1.2-5.4-3-7.5-1.8-2.1-4.3-3.5-7-4h-.2v-.4c0-.6-.2-1.1-.6-1.5-.8-.8-2.2-.8-3 0-.4.4-.6.9-.6 1.5v.4h-.2c-2.7.5-5.2 2-7 4-1.8 2.1-2.9 4.7-3 7.5v.2h-.7zM27.1 36H2.5L2 34.4h25.5l-.4 1.6zm-24.2-.5h23.9l.2-.7H2.7l.2.7zm23.5-1.8H3.2v-.3c.2-3 1.4-5.8 3.6-7.8 2.2-2.1 5-3.2 8-3.2s5.8 1.1 8 3.2 3.5 4.8 3.6 7.8v.3zm-22.7-.5h22.2c-.2-2.8-1.4-5.3-3.4-7.2-2.1-2-4.8-3.1-7.7-3.1-2.9 0-5.6 1.1-7.7 3.1-2 1.8-3.2 4.4-3.4 7.2zm12.5-11.5h-.3c-.8-.1-1.5-.1-2.3 0h-.3v-.3c0-.4.2-.8.4-1 .5-.5 1.5-.5 2.1 0 .3.3.4.6.4 1v.3zm-.2-.3zm-1.2-.9c-.3 0-.5.1-.7.3-.1.1-.2.3-.3.5h1.9c0-.2-.1-.3-.3-.5-.1-.3-.3-.3-.6-.3z" mask="url(#b)"/>
    <defs>
        <filter id="c" width="12" height="6.3" x="5.6" y="23.6" filterUnits="userSpaceOnUse">
            <feColorMatrix values="1 0 0 0 0 0 1 0 0 0 0 0 1 0 0 0 0 0 1 0"/>
        </filter>
    </defs>
    <mask id="d" width="12" height="6.3" x="5.6" y="23.6" maskUnits="userSpaceOnUse">
        <path d="M0 0h38v38H0z" filter="url(#c)"/>
        <path d="M1.6 36.5c0 .1.1.2.2.3.1.2.3.2.4.2h25.2c.1 0 .3 0 .4-.1.1-.1.2-.2.2-.3l.6-2.4v-.3c0-.1-.1-.2-.1-.2l-.2-.2c-.1 0-.2-.1-.3-.1h-.6c-.1-2.8-1.2-5.5-3.1-7.6-1.8-2.1-4.4-3.6-7.1-4.1v-.2c0-.6-.3-1.2-.7-1.7-.5-.5-1.1-.8-1.7-.8-.6 0-1.2.3-1.7.7-.5.5-.7 1.1-.7 1.7v.2c-2.8.5-5.3 2-7.1 4.1-1.8 2.1-2.9 4.8-3.1 7.6h-.6c-.1 0-.2 0-.3.1s-.2.1-.2.2-.1.2-.1.3v.3l.6 2.3zm25.3-.7H2.7l-.3-1.2h24.9l-.4 1.2zM13.6 21.4c0-.3.1-.6.4-.8.2-.2.5-.4.8-.4.3 0 .6.1.8.4.2.2.4.5.4.8v.1c-.4 0-.8-.1-1.2-.1h-1.2zm1.2 1.2c2.9 0 5.7 1.1 7.8 3.1s3.4 4.8 3.5 7.7H3.4c.2-2.9 1.4-5.7 3.5-7.7s5-3.1 7.9-3.1z"/>
        <path d="M6 28.9l1 .6c1-1.7 2.5-3 4.3-3.8 1.8-.8 3.8-.9 5.7-.4l.3-1.2c-2.2-.6-4.4-.4-6.5.5-2 .9-3.7 2.4-4.8 4.3zm-1.1 2.5l1.2.3c.1-.4.2-.8.4-1.1l-1.1-.5c-.2.5-.4.9-.5 1.3zM36.4 4h-1.8V1.6c0-.1 0-.2-.1-.3 0-.1-.1-.1-.2-.2l-.1-.1h-.3L14.7 4c-.1 0-.3.1-.4.2-.1.1-.1.2-.1.4v13.2h1.2V5.2h20.4v30.6h-6.6V37h7.2c.2 0 .3-.1.4-.2.1-.1.2-.3.2-.4V4.6c0-.2-.1-.3-.2-.4-.1-.1-.2-.2-.4-.2zm-3 0H22.5l10.9-1.7V4z"/>
        <path d="M20.1 11.7L18.4 10l-.8.8 1.7 1.7c.5.5 1.1.8 1.8.9.7.1 1.4-.1 2-.5l1.7 1.7-5.5 5.5.8.8 5.5-5.5 5.5 5.5.8-.8-5.5-5.5.9-.9c.6.4 1.3.6 2 .5.7-.1 1.3-.4 1.8-.9l.8-.8c.3-.3.5-.6.7-1s.2-.8.2-1.2c0-.4-.1-.8-.2-1.2-.2-.4-.4-.7-.7-1s-.6-.5-1-.7c-.4-.2-.8-.2-1.2-.2-.4 0-.8.1-1.2.2-.4.2-.7.4-1 .7l-.8.8c-.5.5-.8 1.1-.9 1.8-.1.7.1 1.4.5 2l-.9.9-1.5-1.6c.4-.6.6-1.3.5-2-.1-.7-.4-1.3-.9-1.8l-1.7-1.7-.8.8L22.7 9c.3.3.4.6.5 1 .1.4 0 .7-.1 1.1l-2.9-2.9-.8.8 2.9 2.9c-.3.2-.7.2-1.1.2-.5 0-.9-.2-1.1-.4zm7.6-1.7l.8-.8c.3-.3.8-.5 1.3-.5s.9.2 1.3.5c.3.3.5.8.5 1.3s-.2.9-.5 1.3l-.8.8c-.2.2-.4.3-.6.4-.2.1-.5.1-.7.1s-.5 0-.7-.1c-.2-.1-.4-.2-.6-.4-.2-.2-.3-.4-.4-.6-.1-.2-.1-.5-.1-.7 0-.2.1-.5.1-.7.1-.3.2-.5.4-.6zM34 22.6h-1.2v1.2H34v-1.2zm0 2.4h-1.2v1.2H34V25zm0 2.4h-1.2v1.2H34v-1.2zm-2.4-4.8h-7.8v1.2h7.8v-1.2zm0 2.4h-5.4v1.2h5.4V25zm0 2.4H28v1.2h3.6v-1.2zM13 5.8h-1.2v10.8H13V5.8z"/>
    </mask>
    <path d="M7.1 29.8L5.6 29l.1-.2c1.1-2 2.9-3.5 5-4.4 2.1-.9 4.5-1.1 6.7-.5l.2.1-.4 1.6-.2-.1c-1.8-.5-3.8-.3-5.6.4-1.8.7-3.2 2-4.2 3.7l-.1.2zm-.8-1l.6.3c1-1.6 2.5-2.9 4.3-3.7 1.8-.7 3.8-.9 5.6-.5l.2-.7c-2-.5-4.2-.3-6.1.5-1.9.9-3.5 2.3-4.6 4.1z" mask="url(#d)"/>
    <defs>
        <filter id="e" width="2.2" height="2.2" x="4.6" y="29.8" filterUnits="userSpaceOnUse">
            <feColorMatrix values="1 0 0 0 0 0 1 0 0 0 0 0 1 0 0 0 0 0 1 0"/>
        </filter>
    </defs>
    <mask id="f" width="2.2" height="2.2" x="4.6" y="29.8" maskUnits="userSpaceOnUse">
        <path d="M0 0h38v38H0z" filter="url(#e)"/>
        <path d="M1.6 36.5c0 .1.1.2.2.3.1.2.3.2.4.2h25.2c.1 0 .3 0 .4-.1.1-.1.2-.2.2-.3l.6-2.4v-.3c0-.1-.1-.2-.1-.2l-.2-.2c-.1 0-.2-.1-.3-.1h-.6c-.1-2.8-1.2-5.5-3.1-7.6-1.8-2.1-4.4-3.6-7.1-4.1v-.2c0-.6-.3-1.2-.7-1.7-.5-.5-1.1-.8-1.7-.8-.6 0-1.2.3-1.7.7-.5.5-.7 1.1-.7 1.7v.2c-2.8.5-5.3 2-7.1 4.1-1.8 2.1-2.9 4.8-3.1 7.6h-.6c-.1 0-.2 0-.3.1s-.2.1-.2.2-.1.2-.1.3v.3l.6 2.3zm25.3-.7H2.7l-.3-1.2h24.9l-.4 1.2zM13.6 21.4c0-.3.1-.6.4-.8.2-.2.5-.4.8-.4.3 0 .6.1.8.4.2.2.4.5.4.8v.1c-.4 0-.8-.1-1.2-.1h-1.2zm1.2 1.2c2.9 0 5.7 1.1 7.8 3.1s3.4 4.8 3.5 7.7H3.4c.2-2.9 1.4-5.7 3.5-7.7s5-3.1 7.9-3.1z"/>
        <path d="M6 28.9l1 .6c1-1.7 2.5-3 4.3-3.8 1.8-.8 3.8-.9 5.7-.4l.3-1.2c-2.2-.6-4.4-.4-6.5.5-2 .9-3.7 2.4-4.8 4.3zm-1.1 2.5l1.2.3c.1-.4.2-.8.4-1.1l-1.1-.5c-.2.5-.4.9-.5 1.3zM36.4 4h-1.8V1.6c0-.1 0-.2-.1-.3 0-.1-.1-.1-.2-.2l-.1-.1h-.3L14.7 4c-.1 0-.3.1-.4.2-.1.1-.1.2-.1.4v13.2h1.2V5.2h20.4v30.6h-6.6V37h7.2c.2 0 .3-.1.4-.2.1-.1.2-.3.2-.4V4.6c0-.2-.1-.3-.2-.4-.1-.1-.2-.2-.4-.2zm-3 0H22.5l10.9-1.7V4z"/>
        <path d="M20.1 11.7L18.4 10l-.8.8 1.7 1.7c.5.5 1.1.8 1.8.9.7.1 1.4-.1 2-.5l1.7 1.7-5.5 5.5.8.8 5.5-5.5 5.5 5.5.8-.8-5.5-5.5.9-.9c.6.4 1.3.6 2 .5.7-.1 1.3-.4 1.8-.9l.8-.8c.3-.3.5-.6.7-1s.2-.8.2-1.2c0-.4-.1-.8-.2-1.2-.2-.4-.4-.7-.7-1s-.6-.5-1-.7c-.4-.2-.8-.2-1.2-.2-.4 0-.8.1-1.2.2-.4.2-.7.4-1 .7l-.8.8c-.5.5-.8 1.1-.9 1.8-.1.7.1 1.4.5 2l-.9.9-1.5-1.6c.4-.6.6-1.3.5-2-.1-.7-.4-1.3-.9-1.8l-1.7-1.7-.8.8L22.7 9c.3.3.4.6.5 1 .1.4 0 .7-.1 1.1l-2.9-2.9-.8.8 2.9 2.9c-.3.2-.7.2-1.1.2-.5 0-.9-.2-1.1-.4zm7.6-1.7l.8-.8c.3-.3.8-.5 1.3-.5s.9.2 1.3.5c.3.3.5.8.5 1.3s-.2.9-.5 1.3l-.8.8c-.2.2-.4.3-.6.4-.2.1-.5.1-.7.1s-.5 0-.7-.1c-.2-.1-.4-.2-.6-.4-.2-.2-.3-.4-.4-.6-.1-.2-.1-.5-.1-.7 0-.2.1-.5.1-.7.1-.3.2-.5.4-.6zM34 22.6h-1.2v1.2H34v-1.2zm0 2.4h-1.2v1.2H34V25zm0 2.4h-1.2v1.2H34v-1.2zm-2.4-4.8h-7.8v1.2h7.8v-1.2zm0 2.4h-5.4v1.2h5.4V25zm0 2.4H28v1.2h3.6v-1.2zM13 5.8h-1.2v10.8H13V5.8z"/>
    </mask>
    <path d="M6.3 32.1l-1.6-.4.1-.2c.1-.4.3-.9.4-1.3l.1-.2 1.6.6-.1.2c-.1.4-.3.7-.4 1.1l-.1.2zm-1.1-.8l.7.2c.1-.3.1-.5.2-.7l-.6-.3c-.1.3-.2.5-.3.8z" mask="url(#f)"/>
    <defs>
        <filter id="g" width="23.3" height="36.5" x="14" y=".8" filterUnits="userSpaceOnUse">
            <feColorMatrix values="1 0 0 0 0 0 1 0 0 0 0 0 1 0 0 0 0 0 1 0"/>
        </filter>
    </defs>
    <mask id="h" width="23.3" height="36.5" x="14" y=".8" maskUnits="userSpaceOnUse">
        <path d="M0 0h38v38H0z" filter="url(#g)"/>
        <path d="M1.6 36.5c0 .1.1.2.2.3.1.2.3.2.4.2h25.2c.1 0 .3 0 .4-.1.1-.1.2-.2.2-.3l.6-2.4v-.3c0-.1-.1-.2-.1-.2l-.2-.2c-.1 0-.2-.1-.3-.1h-.6c-.1-2.8-1.2-5.5-3.1-7.6-1.8-2.1-4.4-3.6-7.1-4.1v-.2c0-.6-.3-1.2-.7-1.7-.5-.5-1.1-.8-1.7-.8-.6 0-1.2.3-1.7.7-.5.5-.7 1.1-.7 1.7v.2c-2.8.5-5.3 2-7.1 4.1-1.8 2.1-2.9 4.8-3.1 7.6h-.6c-.1 0-.2 0-.3.1s-.2.1-.2.2-.1.2-.1.3v.3l.6 2.3zm25.3-.7H2.7l-.3-1.2h24.9l-.4 1.2zM13.6 21.4c0-.3.1-.6.4-.8.2-.2.5-.4.8-.4.3 0 .6.1.8.4.2.2.4.5.4.8v.1c-.4 0-.8-.1-1.2-.1h-1.2zm1.2 1.2c2.9 0 5.7 1.1 7.8 3.1s3.4 4.8 3.5 7.7H3.4c.2-2.9 1.4-5.7 3.5-7.7s5-3.1 7.9-3.1z"/>
        <path d="M6 28.9l1 .6c1-1.7 2.5-3 4.3-3.8 1.8-.8 3.8-.9 5.7-.4l.3-1.2c-2.2-.6-4.4-.4-6.5.5-2 .9-3.7 2.4-4.8 4.3zm-1.1 2.5l1.2.3c.1-.4.2-.8.4-1.1l-1.1-.5c-.2.5-.4.9-.5 1.3zM36.4 4h-1.8V1.6c0-.1 0-.2-.1-.3 0-.1-.1-.1-.2-.2l-.1-.1h-.3L14.7 4c-.1 0-.3.1-.4.2-.1.1-.1.2-.1.4v13.2h1.2V5.2h20.4v30.6h-6.6V37h7.2c.2 0 .3-.1.4-.2.1-.1.2-.3.2-.4V4.6c0-.2-.1-.3-.2-.4-.1-.1-.2-.2-.4-.2zm-3 0H22.5l10.9-1.7V4z"/>
        <path d="M20.1 11.7L18.4 10l-.8.8 1.7 1.7c.5.5 1.1.8 1.8.9.7.1 1.4-.1 2-.5l1.7 1.7-5.5 5.5.8.8 5.5-5.5 5.5 5.5.8-.8-5.5-5.5.9-.9c.6.4 1.3.6 2 .5.7-.1 1.3-.4 1.8-.9l.8-.8c.3-.3.5-.6.7-1s.2-.8.2-1.2c0-.4-.1-.8-.2-1.2-.2-.4-.4-.7-.7-1s-.6-.5-1-.7c-.4-.2-.8-.2-1.2-.2-.4 0-.8.1-1.2.2-.4.2-.7.4-1 .7l-.8.8c-.5.5-.8 1.1-.9 1.8-.1.7.1 1.4.5 2l-.9.9-1.5-1.6c.4-.6.6-1.3.5-2-.1-.7-.4-1.3-.9-1.8l-1.7-1.7-.8.8L22.7 9c.3.3.4.6.5 1 .1.4 0 .7-.1 1.1l-2.9-2.9-.8.8 2.9 2.9c-.3.2-.7.2-1.1.2-.5 0-.9-.2-1.1-.4zm7.6-1.7l.8-.8c.3-.3.8-.5 1.3-.5s.9.2 1.3.5c.3.3.5.8.5 1.3s-.2.9-.5 1.3l-.8.8c-.2.2-.4.3-.6.4-.2.1-.5.1-.7.1s-.5 0-.7-.1c-.2-.1-.4-.2-.6-.4-.2-.2-.3-.4-.4-.6-.1-.2-.1-.5-.1-.7 0-.2.1-.5.1-.7.1-.3.2-.5.4-.6zM34 22.6h-1.2v1.2H34v-1.2zm0 2.4h-1.2v1.2H34V25zm0 2.4h-1.2v1.2H34v-1.2zm-2.4-4.8h-7.8v1.2h7.8v-1.2zm0 2.4h-5.4v1.2h5.4V25zm0 2.4H28v1.2h3.6v-1.2zM13 5.8h-1.2v10.8H13V5.8z"/>
    </mask>
    <path d="M36.4 37.2H29v-1.7h6.6v-30h-20v12.6H14V4.6c0-.2.1-.4.2-.5.1-.1.2-.2.3-.2h.2l19.2-3h.4c.1 0 .2.1.3.2.1.1.2.2.2.3s.1.2.1.4v2.1h1.6c.2 0 .4.1.6.2.2.2.2.4.2.6v31.8c0 .2-.1.4-.2.6s-.5.1-.7.1zm-6.9-.5h7c.1 0 .2 0 .2-.1s.1-.2.1-.2V4.6c0-.1 0-.2-.1-.2-.1-.1-.2-.1-.2-.1h-2.1V1.5l-.1-.1-.1-.1H34l-19.2 3c-.1 0-.2.1-.2.1-.1.1-.1.1-.1.2v12.9h.7V5H36v31h-6.6v.7zm4.2-32.5H22.5v-.5L33.7 2v2.2zm-8-.5h7.4V2.6l-7.4 1.1z" mask="url(#h)"/>
    <defs>
        <filter id="i" width="15.9" height="15.1" x="17.2" y="6.2" filterUnits="userSpaceOnUse">
            <feColorMatrix values="1 0 0 0 0 0 1 0 0 0 0 0 1 0 0 0 0 0 1 0"/>
        </filter>
    </defs>
    <mask id="j" width="15.9" height="15.1" x="17.2" y="6.2" maskUnits="userSpaceOnUse">
        <path d="M0 0h38v38H0z" filter="url(#i)"/>
        <path d="M1.6 36.5c0 .1.1.2.2.3.1.2.3.2.4.2h25.2c.1 0 .3 0 .4-.1.1-.1.2-.2.2-.3l.6-2.4v-.3c0-.1-.1-.2-.1-.2l-.2-.2c-.1 0-.2-.1-.3-.1h-.6c-.1-2.8-1.2-5.5-3.1-7.6-1.8-2.1-4.4-3.6-7.1-4.1v-.2c0-.6-.3-1.2-.7-1.7-.5-.5-1.1-.8-1.7-.8-.6 0-1.2.3-1.7.7-.5.5-.7 1.1-.7 1.7v.2c-2.8.5-5.3 2-7.1 4.1-1.8 2.1-2.9 4.8-3.1 7.6h-.6c-.1 0-.2 0-.3.1s-.2.1-.2.2-.1.2-.1.3v.3l.6 2.3zm25.3-.7H2.7l-.3-1.2h24.9l-.4 1.2zM13.6 21.4c0-.3.1-.6.4-.8.2-.2.5-.4.8-.4.3 0 .6.1.8.4.2.2.4.5.4.8v.1c-.4 0-.8-.1-1.2-.1h-1.2zm1.2 1.2c2.9 0 5.7 1.1 7.8 3.1s3.4 4.8 3.5 7.7H3.4c.2-2.9 1.4-5.7 3.5-7.7s5-3.1 7.9-3.1z"/>
        <path d="M6 28.9l1 .6c1-1.7 2.5-3 4.3-3.8 1.8-.8 3.8-.9 5.7-.4l.3-1.2c-2.2-.6-4.4-.4-6.5.5-2 .9-3.7 2.4-4.8 4.3zm-1.1 2.5l1.2.3c.1-.4.2-.8.4-1.1l-1.1-.5c-.2.5-.4.9-.5 1.3zM36.4 4h-1.8V1.6c0-.1 0-.2-.1-.3 0-.1-.1-.1-.2-.2l-.1-.1h-.3L14.7 4c-.1 0-.3.1-.4.2-.1.1-.1.2-.1.4v13.2h1.2V5.2h20.4v30.6h-6.6V37h7.2c.2 0 .3-.1.4-.2.1-.1.2-.3.2-.4V4.6c0-.2-.1-.3-.2-.4-.1-.1-.2-.2-.4-.2zm-3 0H22.5l10.9-1.7V4z"/>
        <path d="M20.1 11.7L18.4 10l-.8.8 1.7 1.7c.5.5 1.1.8 1.8.9.7.1 1.4-.1 2-.5l1.7 1.7-5.5 5.5.8.8 5.5-5.5 5.5 5.5.8-.8-5.5-5.5.9-.9c.6.4 1.3.6 2 .5.7-.1 1.3-.4 1.8-.9l.8-.8c.3-.3.5-.6.7-1s.2-.8.2-1.2c0-.4-.1-.8-.2-1.2-.2-.4-.4-.7-.7-1s-.6-.5-1-.7c-.4-.2-.8-.2-1.2-.2-.4 0-.8.1-1.2.2-.4.2-.7.4-1 .7l-.8.8c-.5.5-.8 1.1-.9 1.8-.1.7.1 1.4.5 2l-.9.9-1.5-1.6c.4-.6.6-1.3.5-2-.1-.7-.4-1.3-.9-1.8l-1.7-1.7-.8.8L22.7 9c.3.3.4.6.5 1 .1.4 0 .7-.1 1.1l-2.9-2.9-.8.8 2.9 2.9c-.3.2-.7.2-1.1.2-.5 0-.9-.2-1.1-.4zm7.6-1.7l.8-.8c.3-.3.8-.5 1.3-.5s.9.2 1.3.5c.3.3.5.8.5 1.3s-.2.9-.5 1.3l-.8.8c-.2.2-.4.3-.6.4-.2.1-.5.1-.7.1s-.5 0-.7-.1c-.2-.1-.4-.2-.6-.4-.2-.2-.3-.4-.4-.6-.1-.2-.1-.5-.1-.7 0-.2.1-.5.1-.7.1-.3.2-.5.4-.6zM34 22.6h-1.2v1.2H34v-1.2zm0 2.4h-1.2v1.2H34V25zm0 2.4h-1.2v1.2H34v-1.2zm-2.4-4.8h-7.8v1.2h7.8v-1.2zm0 2.4h-5.4v1.2h5.4V25zm0 2.4H28v1.2h3.6v-1.2zM13 5.8h-1.2v10.8H13V5.8z"/>
    </mask>
    <path d="M20.1 21.4l-1.2-1.2 5.5-5.5-1.4-1.5c-.6.3-1.3.5-1.9.4-.7-.1-1.4-.4-2-.9l-1.9-1.9 1.2-1.2 1.9 1.9c.2.2.5.4.8.4h.6l-2.8-2.8 1.2-1.2 2.8 2.8v-.6c-.1-.3-.2-.6-.4-.8l-1.9-1.9 1.2-1.2 1.9 1.9c.5.5.9 1.2.9 2 .1.7-.1 1.4-.4 1.9l1.4 1.4.6-.6c-.3-.6-.5-1.3-.4-1.9.1-.7.4-1.4.9-2l.8-.8c.3-.3.7-.6 1.1-.7.4-.2.8-.3 1.3-.3.4 0 .8.1 1.2.2.4.2.8.4 1.1.7.3.3.5.7.7 1.1.2.4.2.8.2 1.3 0 .4-.1.9-.3 1.3-.2.4-.4.8-.7 1.1l-.8.8c-.5.5-1.2.9-2 .9-.7.1-1.4-.1-1.9-.4l-.6.6 5.5 5.5-1.2 1.2-5.5-5.5-5.5 5.5zm5.5-6.3l5.5 5.5.5-.5-5.5-5.5 1.2-1.2.2.1c.5.3 1.2.5 1.8.4.6-.1 1.2-.3 1.7-.8l.8-.8c.3-.3.5-.6.6-.9.1-.3.2-.7.2-1.1 0-.4-.1-.7-.2-1.1-.1-.3-.3-.6-.6-.9-.3-.3-.6-.5-.9-.6-.3-.1-.7-.2-1.1-.2-.4 0-.7.1-1.1.2s-.6.4-.9.6l-.8 1c-.4.4-.7 1-.8 1.7-.1.6.1 1.3.4 1.8l.1.2-1.2 1.2-2.1-2.1.1-.2c.3-.5.5-1.2.4-1.8-.1-.6-.3-1.2-.8-1.7l-1.5-1.5-.5.5 1.5 1.5c.3.3.5.7.6 1.1.1.4 0 .8-.2 1.2v.4l-3-3-.5.5 3 3-.3.2c-.4.2-.8.2-1.2.2-.4-.1-.8-.3-1.1-.6l-1.5-1.5-.5.5 1.5 1.5c.4.4 1 .7 1.7.8.6.1 1.3-.1 1.8-.4l.2-.1 2.1 2.1-5.5 5.5.5.5 5.4-5.7zm3.4-1.8c-.3 0-.5-.1-.8-.2-.3-.1-.5-.3-.7-.4s-.3-.4-.4-.7c-.1-.3-.2-.5-.2-.8 0-.3.1-.5.2-.8.1-.2.3-.5.5-.7l.8-.8c.4-.4.9-.6 1.4-.6.5 0 1 .2 1.4.6.4.4.6.9.6 1.4 0 .5-.2 1.1-.6 1.4l-.9.9c-.2.2-.4.3-.7.5s-.3.2-.6.2zm.8-4.4c-.4 0-.8.2-1.1.4l-.8.8c-.1.1-.3.3-.3.5-.1.2-.1.4-.1.6 0 .2 0 .4.1.6.1.2.2.4.3.5.1.1.3.3.5.3.2.1.4.1.6.1.2 0 .4 0 .6-.1s.4-.2.5-.3l.9-.9c.3-.3.4-.7.4-1.1 0-.4-.2-.8-.5-1.1-.3-.2-.7-.3-1.1-.3z" mask="url(#j)"/>
    <defs>
        <filter id="k" width="1.7" height="1.7" x="32.5" y="22.4" filterUnits="userSpaceOnUse">
            <feColorMatrix values="1 0 0 0 0 0 1 0 0 0 0 0 1 0 0 0 0 0 1 0"/>
        </filter>
    </defs>
    <mask id="l" width="1.7" height="1.7" x="32.5" y="22.4" maskUnits="userSpaceOnUse">
        <path d="M0 0h38v38H0z" filter="url(#k)"/>
        <path d="M1.6 36.5c0 .1.1.2.2.3.1.2.3.2.4.2h25.2c.1 0 .3 0 .4-.1.1-.1.2-.2.2-.3l.6-2.4v-.3c0-.1-.1-.2-.1-.2l-.2-.2c-.1 0-.2-.1-.3-.1h-.6c-.1-2.8-1.2-5.5-3.1-7.6-1.8-2.1-4.4-3.6-7.1-4.1v-.2c0-.6-.3-1.2-.7-1.7-.5-.5-1.1-.8-1.7-.8-.6 0-1.2.3-1.7.7-.5.5-.7 1.1-.7 1.7v.2c-2.8.5-5.3 2-7.1 4.1-1.8 2.1-2.9 4.8-3.1 7.6h-.6c-.1 0-.2 0-.3.1s-.2.1-.2.2-.1.2-.1.3v.3l.6 2.3zm25.3-.7H2.7l-.3-1.2h24.9l-.4 1.2zM13.6 21.4c0-.3.1-.6.4-.8.2-.2.5-.4.8-.4.3 0 .6.1.8.4.2.2.4.5.4.8v.1c-.4 0-.8-.1-1.2-.1h-1.2zm1.2 1.2c2.9 0 5.7 1.1 7.8 3.1s3.4 4.8 3.5 7.7H3.4c.2-2.9 1.4-5.7 3.5-7.7s5-3.1 7.9-3.1z"/>
        <path d="M6 28.9l1 .6c1-1.7 2.5-3 4.3-3.8 1.8-.8 3.8-.9 5.7-.4l.3-1.2c-2.2-.6-4.4-.4-6.5.5-2 .9-3.7 2.4-4.8 4.3zm-1.1 2.5l1.2.3c.1-.4.2-.8.4-1.1l-1.1-.5c-.2.5-.4.9-.5 1.3zM36.4 4h-1.8V1.6c0-.1 0-.2-.1-.3 0-.1-.1-.1-.2-.2l-.1-.1h-.3L14.7 4c-.1 0-.3.1-.4.2-.1.1-.1.2-.1.4v13.2h1.2V5.2h20.4v30.6h-6.6V37h7.2c.2 0 .3-.1.4-.2.1-.1.2-.3.2-.4V4.6c0-.2-.1-.3-.2-.4-.1-.1-.2-.2-.4-.2zm-3 0H22.5l10.9-1.7V4z"/>
        <path d="M20.1 11.7L18.4 10l-.8.8 1.7 1.7c.5.5 1.1.8 1.8.9.7.1 1.4-.1 2-.5l1.7 1.7-5.5 5.5.8.8 5.5-5.5 5.5 5.5.8-.8-5.5-5.5.9-.9c.6.4 1.3.6 2 .5.7-.1 1.3-.4 1.8-.9l.8-.8c.3-.3.5-.6.7-1s.2-.8.2-1.2c0-.4-.1-.8-.2-1.2-.2-.4-.4-.7-.7-1s-.6-.5-1-.7c-.4-.2-.8-.2-1.2-.2-.4 0-.8.1-1.2.2-.4.2-.7.4-1 .7l-.8.8c-.5.5-.8 1.1-.9 1.8-.1.7.1 1.4.5 2l-.9.9-1.5-1.6c.4-.6.6-1.3.5-2-.1-.7-.4-1.3-.9-1.8l-1.7-1.7-.8.8L22.7 9c.3.3.4.6.5 1 .1.4 0 .7-.1 1.1l-2.9-2.9-.8.8 2.9 2.9c-.3.2-.7.2-1.1.2-.5 0-.9-.2-1.1-.4zm7.6-1.7l.8-.8c.3-.3.8-.5 1.3-.5s.9.2 1.3.5c.3.3.5.8.5 1.3s-.2.9-.5 1.3l-.8.8c-.2.2-.4.3-.6.4-.2.1-.5.1-.7.1s-.5 0-.7-.1c-.2-.1-.4-.2-.6-.4-.2-.2-.3-.4-.4-.6-.1-.2-.1-.5-.1-.7 0-.2.1-.5.1-.7.1-.3.2-.5.4-.6zM34 22.6h-1.2v1.2H34v-1.2zm0 2.4h-1.2v1.2H34V25zm0 2.4h-1.2v1.2H34v-1.2zm-2.4-4.8h-7.8v1.2h7.8v-1.2zm0 2.4h-5.4v1.2h5.4V25zm0 2.4H28v1.2h3.6v-1.2zM13 5.8h-1.2v10.8H13V5.8z"/>
    </mask>
    <path d="M34.2 24h-1.7v-1.7h1.7V24zm-1.2-.5h.7v-.7H33v.7z" mask="url(#l)"/>
    <defs>
        <filter id="m" width="1.7" height="1.7" x="32.5" y="24.7" filterUnits="userSpaceOnUse">
            <feColorMatrix values="1 0 0 0 0 0 1 0 0 0 0 0 1 0 0 0 0 0 1 0"/>
        </filter>
    </defs>
    <mask id="n" width="1.7" height="1.7" x="32.5" y="24.7" maskUnits="userSpaceOnUse">
        <path d="M0 0h38v38H0z" filter="url(#m)"/>
        <path d="M1.6 36.5c0 .1.1.2.2.3.1.2.3.2.4.2h25.2c.1 0 .3 0 .4-.1.1-.1.2-.2.2-.3l.6-2.4v-.3c0-.1-.1-.2-.1-.2l-.2-.2c-.1 0-.2-.1-.3-.1h-.6c-.1-2.8-1.2-5.5-3.1-7.6-1.8-2.1-4.4-3.6-7.1-4.1v-.2c0-.6-.3-1.2-.7-1.7-.5-.5-1.1-.8-1.7-.8-.6 0-1.2.3-1.7.7-.5.5-.7 1.1-.7 1.7v.2c-2.8.5-5.3 2-7.1 4.1-1.8 2.1-2.9 4.8-3.1 7.6h-.6c-.1 0-.2 0-.3.1s-.2.1-.2.2-.1.2-.1.3v.3l.6 2.3zm25.3-.7H2.7l-.3-1.2h24.9l-.4 1.2zM13.6 21.4c0-.3.1-.6.4-.8.2-.2.5-.4.8-.4.3 0 .6.1.8.4.2.2.4.5.4.8v.1c-.4 0-.8-.1-1.2-.1h-1.2zm1.2 1.2c2.9 0 5.7 1.1 7.8 3.1s3.4 4.8 3.5 7.7H3.4c.2-2.9 1.4-5.7 3.5-7.7s5-3.1 7.9-3.1z"/>
        <path d="M6 28.9l1 .6c1-1.7 2.5-3 4.3-3.8 1.8-.8 3.8-.9 5.7-.4l.3-1.2c-2.2-.6-4.4-.4-6.5.5-2 .9-3.7 2.4-4.8 4.3zm-1.1 2.5l1.2.3c.1-.4.2-.8.4-1.1l-1.1-.5c-.2.5-.4.9-.5 1.3zM36.4 4h-1.8V1.6c0-.1 0-.2-.1-.3 0-.1-.1-.1-.2-.2l-.1-.1h-.3L14.7 4c-.1 0-.3.1-.4.2-.1.1-.1.2-.1.4v13.2h1.2V5.2h20.4v30.6h-6.6V37h7.2c.2 0 .3-.1.4-.2.1-.1.2-.3.2-.4V4.6c0-.2-.1-.3-.2-.4-.1-.1-.2-.2-.4-.2zm-3 0H22.5l10.9-1.7V4z"/>
        <path d="M20.1 11.7L18.4 10l-.8.8 1.7 1.7c.5.5 1.1.8 1.8.9.7.1 1.4-.1 2-.5l1.7 1.7-5.5 5.5.8.8 5.5-5.5 5.5 5.5.8-.8-5.5-5.5.9-.9c.6.4 1.3.6 2 .5.7-.1 1.3-.4 1.8-.9l.8-.8c.3-.3.5-.6.7-1s.2-.8.2-1.2c0-.4-.1-.8-.2-1.2-.2-.4-.4-.7-.7-1s-.6-.5-1-.7c-.4-.2-.8-.2-1.2-.2-.4 0-.8.1-1.2.2-.4.2-.7.4-1 .7l-.8.8c-.5.5-.8 1.1-.9 1.8-.1.7.1 1.4.5 2l-.9.9-1.5-1.6c.4-.6.6-1.3.5-2-.1-.7-.4-1.3-.9-1.8l-1.7-1.7-.8.8L22.7 9c.3.3.4.6.5 1 .1.4 0 .7-.1 1.1l-2.9-2.9-.8.8 2.9 2.9c-.3.2-.7.2-1.1.2-.5 0-.9-.2-1.1-.4zm7.6-1.7l.8-.8c.3-.3.8-.5 1.3-.5s.9.2 1.3.5c.3.3.5.8.5 1.3s-.2.9-.5 1.3l-.8.8c-.2.2-.4.3-.6.4-.2.1-.5.1-.7.1s-.5 0-.7-.1c-.2-.1-.4-.2-.6-.4-.2-.2-.3-.4-.4-.6-.1-.2-.1-.5-.1-.7 0-.2.1-.5.1-.7.1-.3.2-.5.4-.6zM34 22.6h-1.2v1.2H34v-1.2zm0 2.4h-1.2v1.2H34V25zm0 2.4h-1.2v1.2H34v-1.2zm-2.4-4.8h-7.8v1.2h7.8v-1.2zm0 2.4h-5.4v1.2h5.4V25zm0 2.4H28v1.2h3.6v-1.2zM13 5.8h-1.2v10.8H13V5.8z"/>
    </mask>
    <path d="M34.2 26.5h-1.7v-1.7h1.7v1.7zM33 26h.7v-.7H33v.7z" mask="url(#n)"/>
    <defs>
        <filter id="o" width="1.7" height="1.7" x="32.5" y="27.2" filterUnits="userSpaceOnUse">
            <feColorMatrix values="1 0 0 0 0 0 1 0 0 0 0 0 1 0 0 0 0 0 1 0"/>
        </filter>
    </defs>
    <mask id="p" width="1.7" height="1.7" x="32.5" y="27.2" maskUnits="userSpaceOnUse">
        <path d="M0 0h38v38H0z" filter="url(#o)"/>
        <path d="M1.6 36.5c0 .1.1.2.2.3.1.2.3.2.4.2h25.2c.1 0 .3 0 .4-.1.1-.1.2-.2.2-.3l.6-2.4v-.3c0-.1-.1-.2-.1-.2l-.2-.2c-.1 0-.2-.1-.3-.1h-.6c-.1-2.8-1.2-5.5-3.1-7.6-1.8-2.1-4.4-3.6-7.1-4.1v-.2c0-.6-.3-1.2-.7-1.7-.5-.5-1.1-.8-1.7-.8-.6 0-1.2.3-1.7.7-.5.5-.7 1.1-.7 1.7v.2c-2.8.5-5.3 2-7.1 4.1-1.8 2.1-2.9 4.8-3.1 7.6h-.6c-.1 0-.2 0-.3.1s-.2.1-.2.2-.1.2-.1.3v.3l.6 2.3zm25.3-.7H2.7l-.3-1.2h24.9l-.4 1.2zM13.6 21.4c0-.3.1-.6.4-.8.2-.2.5-.4.8-.4.3 0 .6.1.8.4.2.2.4.5.4.8v.1c-.4 0-.8-.1-1.2-.1h-1.2zm1.2 1.2c2.9 0 5.7 1.1 7.8 3.1s3.4 4.8 3.5 7.7H3.4c.2-2.9 1.4-5.7 3.5-7.7s5-3.1 7.9-3.1z"/>
        <path d="M6 28.9l1 .6c1-1.7 2.5-3 4.3-3.8 1.8-.8 3.8-.9 5.7-.4l.3-1.2c-2.2-.6-4.4-.4-6.5.5-2 .9-3.7 2.4-4.8 4.3zm-1.1 2.5l1.2.3c.1-.4.2-.8.4-1.1l-1.1-.5c-.2.5-.4.9-.5 1.3zM36.4 4h-1.8V1.6c0-.1 0-.2-.1-.3 0-.1-.1-.1-.2-.2l-.1-.1h-.3L14.7 4c-.1 0-.3.1-.4.2-.1.1-.1.2-.1.4v13.2h1.2V5.2h20.4v30.6h-6.6V37h7.2c.2 0 .3-.1.4-.2.1-.1.2-.3.2-.4V4.6c0-.2-.1-.3-.2-.4-.1-.1-.2-.2-.4-.2zm-3 0H22.5l10.9-1.7V4z"/>
        <path d="M20.1 11.7L18.4 10l-.8.8 1.7 1.7c.5.5 1.1.8 1.8.9.7.1 1.4-.1 2-.5l1.7 1.7-5.5 5.5.8.8 5.5-5.5 5.5 5.5.8-.8-5.5-5.5.9-.9c.6.4 1.3.6 2 .5.7-.1 1.3-.4 1.8-.9l.8-.8c.3-.3.5-.6.7-1s.2-.8.2-1.2c0-.4-.1-.8-.2-1.2-.2-.4-.4-.7-.7-1s-.6-.5-1-.7c-.4-.2-.8-.2-1.2-.2-.4 0-.8.1-1.2.2-.4.2-.7.4-1 .7l-.8.8c-.5.5-.8 1.1-.9 1.8-.1.7.1 1.4.5 2l-.9.9-1.5-1.6c.4-.6.6-1.3.5-2-.1-.7-.4-1.3-.9-1.8l-1.7-1.7-.8.8L22.7 9c.3.3.4.6.5 1 .1.4 0 .7-.1 1.1l-2.9-2.9-.8.8 2.9 2.9c-.3.2-.7.2-1.1.2-.5 0-.9-.2-1.1-.4zm7.6-1.7l.8-.8c.3-.3.8-.5 1.3-.5s.9.2 1.3.5c.3.3.5.8.5 1.3s-.2.9-.5 1.3l-.8.8c-.2.2-.4.3-.6.4-.2.1-.5.1-.7.1s-.5 0-.7-.1c-.2-.1-.4-.2-.6-.4-.2-.2-.3-.4-.4-.6-.1-.2-.1-.5-.1-.7 0-.2.1-.5.1-.7.1-.3.2-.5.4-.6zM34 22.6h-1.2v1.2H34v-1.2zm0 2.4h-1.2v1.2H34V25zm0 2.4h-1.2v1.2H34v-1.2zm-2.4-4.8h-7.8v1.2h7.8v-1.2zm0 2.4h-5.4v1.2h5.4V25zm0 2.4H28v1.2h3.6v-1.2zM13 5.8h-1.2v10.8H13V5.8z"/>
    </mask>
    <path d="M34.2 28.9h-1.7v-1.7h1.7v1.7zm-1.2-.5h.7v-.7H33v.7z" mask="url(#p)"/>
    <defs>
        <filter id="q" width="8.3" height="1.7" x="23.5" y="22.4" filterUnits="userSpaceOnUse">
            <feColorMatrix values="1 0 0 0 0 0 1 0 0 0 0 0 1 0 0 0 0 0 1 0"/>
        </filter>
    </defs>
    <mask id="r" width="8.3" height="1.7" x="23.5" y="22.4" maskUnits="userSpaceOnUse">
        <path d="M0 0h38v38H0z" filter="url(#q)"/>
        <path d="M1.6 36.5c0 .1.1.2.2.3.1.2.3.2.4.2h25.2c.1 0 .3 0 .4-.1.1-.1.2-.2.2-.3l.6-2.4v-.3c0-.1-.1-.2-.1-.2l-.2-.2c-.1 0-.2-.1-.3-.1h-.6c-.1-2.8-1.2-5.5-3.1-7.6-1.8-2.1-4.4-3.6-7.1-4.1v-.2c0-.6-.3-1.2-.7-1.7-.5-.5-1.1-.8-1.7-.8-.6 0-1.2.3-1.7.7-.5.5-.7 1.1-.7 1.7v.2c-2.8.5-5.3 2-7.1 4.1-1.8 2.1-2.9 4.8-3.1 7.6h-.6c-.1 0-.2 0-.3.1s-.2.1-.2.2-.1.2-.1.3v.3l.6 2.3zm25.3-.7H2.7l-.3-1.2h24.9l-.4 1.2zM13.6 21.4c0-.3.1-.6.4-.8.2-.2.5-.4.8-.4.3 0 .6.1.8.4.2.2.4.5.4.8v.1c-.4 0-.8-.1-1.2-.1h-1.2zm1.2 1.2c2.9 0 5.7 1.1 7.8 3.1s3.4 4.8 3.5 7.7H3.4c.2-2.9 1.4-5.7 3.5-7.7s5-3.1 7.9-3.1z"/>
        <path d="M6 28.9l1 .6c1-1.7 2.5-3 4.3-3.8 1.8-.8 3.8-.9 5.7-.4l.3-1.2c-2.2-.6-4.4-.4-6.5.5-2 .9-3.7 2.4-4.8 4.3zm-1.1 2.5l1.2.3c.1-.4.2-.8.4-1.1l-1.1-.5c-.2.5-.4.9-.5 1.3zM36.4 4h-1.8V1.6c0-.1 0-.2-.1-.3 0-.1-.1-.1-.2-.2l-.1-.1h-.3L14.7 4c-.1 0-.3.1-.4.2-.1.1-.1.2-.1.4v13.2h1.2V5.2h20.4v30.6h-6.6V37h7.2c.2 0 .3-.1.4-.2.1-.1.2-.3.2-.4V4.6c0-.2-.1-.3-.2-.4-.1-.1-.2-.2-.4-.2zm-3 0H22.5l10.9-1.7V4z"/>
        <path d="M20.1 11.7L18.4 10l-.8.8 1.7 1.7c.5.5 1.1.8 1.8.9.7.1 1.4-.1 2-.5l1.7 1.7-5.5 5.5.8.8 5.5-5.5 5.5 5.5.8-.8-5.5-5.5.9-.9c.6.4 1.3.6 2 .5.7-.1 1.3-.4 1.8-.9l.8-.8c.3-.3.5-.6.7-1s.2-.8.2-1.2c0-.4-.1-.8-.2-1.2-.2-.4-.4-.7-.7-1s-.6-.5-1-.7c-.4-.2-.8-.2-1.2-.2-.4 0-.8.1-1.2.2-.4.2-.7.4-1 .7l-.8.8c-.5.5-.8 1.1-.9 1.8-.1.7.1 1.4.5 2l-.9.9-1.5-1.6c.4-.6.6-1.3.5-2-.1-.7-.4-1.3-.9-1.8l-1.7-1.7-.8.8L22.7 9c.3.3.4.6.5 1 .1.4 0 .7-.1 1.1l-2.9-2.9-.8.8 2.9 2.9c-.3.2-.7.2-1.1.2-.5 0-.9-.2-1.1-.4zm7.6-1.7l.8-.8c.3-.3.8-.5 1.3-.5s.9.2 1.3.5c.3.3.5.8.5 1.3s-.2.9-.5 1.3l-.8.8c-.2.2-.4.3-.6.4-.2.1-.5.1-.7.1s-.5 0-.7-.1c-.2-.1-.4-.2-.6-.4-.2-.2-.3-.4-.4-.6-.1-.2-.1-.5-.1-.7 0-.2.1-.5.1-.7.1-.3.2-.5.4-.6zM34 22.6h-1.2v1.2H34v-1.2zm0 2.4h-1.2v1.2H34V25zm0 2.4h-1.2v1.2H34v-1.2zm-2.4-4.8h-7.8v1.2h7.8v-1.2zm0 2.4h-5.4v1.2h5.4V25zm0 2.4H28v1.2h3.6v-1.2zM13 5.8h-1.2v10.8H13V5.8z"/>
    </mask>
    <path d="M31.8 24h-8.3v-1.7h8.3V24zm-7.8-.5h7.3v-.7H24v.7z" mask="url(#r)"/>
    <defs>
        <filter id="s" width="5.9" height="1.7" x="26" y="24.7" filterUnits="userSpaceOnUse">
            <feColorMatrix values="1 0 0 0 0 0 1 0 0 0 0 0 1 0 0 0 0 0 1 0"/>
        </filter>
    </defs>
    <mask id="t" width="5.9" height="1.7" x="26" y="24.7" maskUnits="userSpaceOnUse">
        <path d="M0 0h38v38H0z" filter="url(#s)"/>
        <path d="M1.6 36.5c0 .1.1.2.2.3.1.2.3.2.4.2h25.2c.1 0 .3 0 .4-.1.1-.1.2-.2.2-.3l.6-2.4v-.3c0-.1-.1-.2-.1-.2l-.2-.2c-.1 0-.2-.1-.3-.1h-.6c-.1-2.8-1.2-5.5-3.1-7.6-1.8-2.1-4.4-3.6-7.1-4.1v-.2c0-.6-.3-1.2-.7-1.7-.5-.5-1.1-.8-1.7-.8-.6 0-1.2.3-1.7.7-.5.5-.7 1.1-.7 1.7v.2c-2.8.5-5.3 2-7.1 4.1-1.8 2.1-2.9 4.8-3.1 7.6h-.6c-.1 0-.2 0-.3.1s-.2.1-.2.2-.1.2-.1.3v.3l.6 2.3zm25.3-.7H2.7l-.3-1.2h24.9l-.4 1.2zM13.6 21.4c0-.3.1-.6.4-.8.2-.2.5-.4.8-.4.3 0 .6.1.8.4.2.2.4.5.4.8v.1c-.4 0-.8-.1-1.2-.1h-1.2zm1.2 1.2c2.9 0 5.7 1.1 7.8 3.1s3.4 4.8 3.5 7.7H3.4c.2-2.9 1.4-5.7 3.5-7.7s5-3.1 7.9-3.1z"/>
        <path d="M6 28.9l1 .6c1-1.7 2.5-3 4.3-3.8 1.8-.8 3.8-.9 5.7-.4l.3-1.2c-2.2-.6-4.4-.4-6.5.5-2 .9-3.7 2.4-4.8 4.3zm-1.1 2.5l1.2.3c.1-.4.2-.8.4-1.1l-1.1-.5c-.2.5-.4.9-.5 1.3zM36.4 4h-1.8V1.6c0-.1 0-.2-.1-.3 0-.1-.1-.1-.2-.2l-.1-.1h-.3L14.7 4c-.1 0-.3.1-.4.2-.1.1-.1.2-.1.4v13.2h1.2V5.2h20.4v30.6h-6.6V37h7.2c.2 0 .3-.1.4-.2.1-.1.2-.3.2-.4V4.6c0-.2-.1-.3-.2-.4-.1-.1-.2-.2-.4-.2zm-3 0H22.5l10.9-1.7V4z"/>
        <path d="M20.1 11.7L18.4 10l-.8.8 1.7 1.7c.5.5 1.1.8 1.8.9.7.1 1.4-.1 2-.5l1.7 1.7-5.5 5.5.8.8 5.5-5.5 5.5 5.5.8-.8-5.5-5.5.9-.9c.6.4 1.3.6 2 .5.7-.1 1.3-.4 1.8-.9l.8-.8c.3-.3.5-.6.7-1s.2-.8.2-1.2c0-.4-.1-.8-.2-1.2-.2-.4-.4-.7-.7-1s-.6-.5-1-.7c-.4-.2-.8-.2-1.2-.2-.4 0-.8.1-1.2.2-.4.2-.7.4-1 .7l-.8.8c-.5.5-.8 1.1-.9 1.8-.1.7.1 1.4.5 2l-.9.9-1.5-1.6c.4-.6.6-1.3.5-2-.1-.7-.4-1.3-.9-1.8l-1.7-1.7-.8.8L22.7 9c.3.3.4.6.5 1 .1.4 0 .7-.1 1.1l-2.9-2.9-.8.8 2.9 2.9c-.3.2-.7.2-1.1.2-.5 0-.9-.2-1.1-.4zm7.6-1.7l.8-.8c.3-.3.8-.5 1.3-.5s.9.2 1.3.5c.3.3.5.8.5 1.3s-.2.9-.5 1.3l-.8.8c-.2.2-.4.3-.6.4-.2.1-.5.1-.7.1s-.5 0-.7-.1c-.2-.1-.4-.2-.6-.4-.2-.2-.3-.4-.4-.6-.1-.2-.1-.5-.1-.7 0-.2.1-.5.1-.7.1-.3.2-.5.4-.6zM34 22.6h-1.2v1.2H34v-1.2zm0 2.4h-1.2v1.2H34V25zm0 2.4h-1.2v1.2H34v-1.2zm-2.4-4.8h-7.8v1.2h7.8v-1.2zm0 2.4h-5.4v1.2h5.4V25zm0 2.4H28v1.2h3.6v-1.2zM13 5.8h-1.2v10.8H13V5.8z"/>
    </mask>
    <path d="M31.8 26.5H26v-1.7h5.9v1.7zm-5.3-.5h4.9v-.7h-4.9v.7z" mask="url(#t)"/>
    <defs>
        <filter id="u" width="4.1" height="1.7" x="27.8" y="27.2" filterUnits="userSpaceOnUse">
            <feColorMatrix values="1 0 0 0 0 0 1 0 0 0 0 0 1 0 0 0 0 0 1 0"/>
        </filter>
    </defs>
    <mask id="v" width="4.1" height="1.7" x="27.8" y="27.2" maskUnits="userSpaceOnUse">
        <path d="M0 0h38v38H0z" filter="url(#u)"/>
        <path d="M1.6 36.5c0 .1.1.2.2.3.1.2.3.2.4.2h25.2c.1 0 .3 0 .4-.1.1-.1.2-.2.2-.3l.6-2.4v-.3c0-.1-.1-.2-.1-.2l-.2-.2c-.1 0-.2-.1-.3-.1h-.6c-.1-2.8-1.2-5.5-3.1-7.6-1.8-2.1-4.4-3.6-7.1-4.1v-.2c0-.6-.3-1.2-.7-1.7-.5-.5-1.1-.8-1.7-.8-.6 0-1.2.3-1.7.7-.5.5-.7 1.1-.7 1.7v.2c-2.8.5-5.3 2-7.1 4.1-1.8 2.1-2.9 4.8-3.1 7.6h-.6c-.1 0-.2 0-.3.1s-.2.1-.2.2-.1.2-.1.3v.3l.6 2.3zm25.3-.7H2.7l-.3-1.2h24.9l-.4 1.2zM13.6 21.4c0-.3.1-.6.4-.8.2-.2.5-.4.8-.4.3 0 .6.1.8.4.2.2.4.5.4.8v.1c-.4 0-.8-.1-1.2-.1h-1.2zm1.2 1.2c2.9 0 5.7 1.1 7.8 3.1s3.4 4.8 3.5 7.7H3.4c.2-2.9 1.4-5.7 3.5-7.7s5-3.1 7.9-3.1z"/>
        <path d="M6 28.9l1 .6c1-1.7 2.5-3 4.3-3.8 1.8-.8 3.8-.9 5.7-.4l.3-1.2c-2.2-.6-4.4-.4-6.5.5-2 .9-3.7 2.4-4.8 4.3zm-1.1 2.5l1.2.3c.1-.4.2-.8.4-1.1l-1.1-.5c-.2.5-.4.9-.5 1.3zM36.4 4h-1.8V1.6c0-.1 0-.2-.1-.3 0-.1-.1-.1-.2-.2l-.1-.1h-.3L14.7 4c-.1 0-.3.1-.4.2-.1.1-.1.2-.1.4v13.2h1.2V5.2h20.4v30.6h-6.6V37h7.2c.2 0 .3-.1.4-.2.1-.1.2-.3.2-.4V4.6c0-.2-.1-.3-.2-.4-.1-.1-.2-.2-.4-.2zm-3 0H22.5l10.9-1.7V4z"/>
        <path d="M20.1 11.7L18.4 10l-.8.8 1.7 1.7c.5.5 1.1.8 1.8.9.7.1 1.4-.1 2-.5l1.7 1.7-5.5 5.5.8.8 5.5-5.5 5.5 5.5.8-.8-5.5-5.5.9-.9c.6.4 1.3.6 2 .5.7-.1 1.3-.4 1.8-.9l.8-.8c.3-.3.5-.6.7-1s.2-.8.2-1.2c0-.4-.1-.8-.2-1.2-.2-.4-.4-.7-.7-1s-.6-.5-1-.7c-.4-.2-.8-.2-1.2-.2-.4 0-.8.1-1.2.2-.4.2-.7.4-1 .7l-.8.8c-.5.5-.8 1.1-.9 1.8-.1.7.1 1.4.5 2l-.9.9-1.5-1.6c.4-.6.6-1.3.5-2-.1-.7-.4-1.3-.9-1.8l-1.7-1.7-.8.8L22.7 9c.3.3.4.6.5 1 .1.4 0 .7-.1 1.1l-2.9-2.9-.8.8 2.9 2.9c-.3.2-.7.2-1.1.2-.5 0-.9-.2-1.1-.4zm7.6-1.7l.8-.8c.3-.3.8-.5 1.3-.5s.9.2 1.3.5c.3.3.5.8.5 1.3s-.2.9-.5 1.3l-.8.8c-.2.2-.4.3-.6.4-.2.1-.5.1-.7.1s-.5 0-.7-.1c-.2-.1-.4-.2-.6-.4-.2-.2-.3-.4-.4-.6-.1-.2-.1-.5-.1-.7 0-.2.1-.5.1-.7.1-.3.2-.5.4-.6zM34 22.6h-1.2v1.2H34v-1.2zm0 2.4h-1.2v1.2H34V25zm0 2.4h-1.2v1.2H34v-1.2zm-2.4-4.8h-7.8v1.2h7.8v-1.2zm0 2.4h-5.4v1.2h5.4V25zm0 2.4H28v1.2h3.6v-1.2zM13 5.8h-1.2v10.8H13V5.8z"/>
    </mask>
    <path d="M31.8 28.9h-4.1v-1.7h4.1v1.7zm-3.6-.5h3.1v-.7h-3.1v.7z" mask="url(#v)"/>
    <defs>
        <filter id="w" width="1.7" height="11.3" x="11.5" y="5.6" filterUnits="userSpaceOnUse">
            <feColorMatrix values="1 0 0 0 0 0 1 0 0 0 0 0 1 0 0 0 0 0 1 0"/>
        </filter>
    </defs>
    <mask id="x" width="1.7" height="11.3" x="11.5" y="5.6" maskUnits="userSpaceOnUse">
        <path d="M0 0h38v38H0z" filter="url(#w)"/>
        <path d="M1.6 36.5c0 .1.1.2.2.3.1.2.3.2.4.2h25.2c.1 0 .3 0 .4-.1.1-.1.2-.2.2-.3l.6-2.4v-.3c0-.1-.1-.2-.1-.2l-.2-.2c-.1 0-.2-.1-.3-.1h-.6c-.1-2.8-1.2-5.5-3.1-7.6-1.8-2.1-4.4-3.6-7.1-4.1v-.2c0-.6-.3-1.2-.7-1.7-.5-.5-1.1-.8-1.7-.8-.6 0-1.2.3-1.7.7-.5.5-.7 1.1-.7 1.7v.2c-2.8.5-5.3 2-7.1 4.1-1.8 2.1-2.9 4.8-3.1 7.6h-.6c-.1 0-.2 0-.3.1s-.2.1-.2.2-.1.2-.1.3v.3l.6 2.3zm25.3-.7H2.7l-.3-1.2h24.9l-.4 1.2zM13.6 21.4c0-.3.1-.6.4-.8.2-.2.5-.4.8-.4.3 0 .6.1.8.4.2.2.4.5.4.8v.1c-.4 0-.8-.1-1.2-.1h-1.2zm1.2 1.2c2.9 0 5.7 1.1 7.8 3.1s3.4 4.8 3.5 7.7H3.4c.2-2.9 1.4-5.7 3.5-7.7s5-3.1 7.9-3.1z"/>
        <path d="M6 28.9l1 .6c1-1.7 2.5-3 4.3-3.8 1.8-.8 3.8-.9 5.7-.4l.3-1.2c-2.2-.6-4.4-.4-6.5.5-2 .9-3.7 2.4-4.8 4.3zm-1.1 2.5l1.2.3c.1-.4.2-.8.4-1.1l-1.1-.5c-.2.5-.4.9-.5 1.3zM36.4 4h-1.8V1.6c0-.1 0-.2-.1-.3 0-.1-.1-.1-.2-.2l-.1-.1h-.3L14.7 4c-.1 0-.3.1-.4.2-.1.1-.1.2-.1.4v13.2h1.2V5.2h20.4v30.6h-6.6V37h7.2c.2 0 .3-.1.4-.2.1-.1.2-.3.2-.4V4.6c0-.2-.1-.3-.2-.4-.1-.1-.2-.2-.4-.2zm-3 0H22.5l10.9-1.7V4z"/>
        <path d="M20.1 11.7L18.4 10l-.8.8 1.7 1.7c.5.5 1.1.8 1.8.9.7.1 1.4-.1 2-.5l1.7 1.7-5.5 5.5.8.8 5.5-5.5 5.5 5.5.8-.8-5.5-5.5.9-.9c.6.4 1.3.6 2 .5.7-.1 1.3-.4 1.8-.9l.8-.8c.3-.3.5-.6.7-1s.2-.8.2-1.2c0-.4-.1-.8-.2-1.2-.2-.4-.4-.7-.7-1s-.6-.5-1-.7c-.4-.2-.8-.2-1.2-.2-.4 0-.8.1-1.2.2-.4.2-.7.4-1 .7l-.8.8c-.5.5-.8 1.1-.9 1.8-.1.7.1 1.4.5 2l-.9.9-1.5-1.6c.4-.6.6-1.3.5-2-.1-.7-.4-1.3-.9-1.8l-1.7-1.7-.8.8L22.7 9c.3.3.4.6.5 1 .1.4 0 .7-.1 1.1l-2.9-2.9-.8.8 2.9 2.9c-.3.2-.7.2-1.1.2-.5 0-.9-.2-1.1-.4zm7.6-1.7l.8-.8c.3-.3.8-.5 1.3-.5s.9.2 1.3.5c.3.3.5.8.5 1.3s-.2.9-.5 1.3l-.8.8c-.2.2-.4.3-.6.4-.2.1-.5.1-.7.1s-.5 0-.7-.1c-.2-.1-.4-.2-.6-.4-.2-.2-.3-.4-.4-.6-.1-.2-.1-.5-.1-.7 0-.2.1-.5.1-.7.1-.3.2-.5.4-.6zM34 22.6h-1.2v1.2H34v-1.2zm0 2.4h-1.2v1.2H34V25zm0 2.4h-1.2v1.2H34v-1.2zm-2.4-4.8h-7.8v1.2h7.8v-1.2zm0 2.4h-5.4v1.2h5.4V25zm0 2.4H28v1.2h3.6v-1.2zM13 5.8h-1.2v10.8H13V5.8z"/>
    </mask>
    <path d="M13.2 16.8h-1.7V5.6h1.7v11.2zm-1.2-.5h.7V6.1H12v10.2z" mask="url(#x)"/>
</svg>
