<svg xmlns="http://www.w3.org/2000/svg" viewBox="0 0 38 36">
    <path d="M23.033 8.367l-.504-.115-.31.422C21.442 9.787 20.24 10.4 18.96 10.4s-2.443-.614-3.257-1.727l-.31-.422-.504.115c-2.055.422-3.568 2.149-3.568 4.145v2.61h15.2v-2.61c.078-1.958-1.434-3.723-3.49-4.145zm-10.082 5.22v-1.075c0-1.113.775-2.111 1.9-2.533 1.086 1.228 2.56 1.919 4.149 1.919 1.59 0 3.102-.691 4.188-1.92 1.124.385 1.9 1.42 1.9 2.534v1.074H12.95z"/>
    <path d="M19 9.096c2.288 0 4.149-2.226 4.149-4.99C23.149 1.575 21.559 0 19 0c-2.56 0-4.149 1.574-4.149 4.068 0 2.764 1.861 5.028 4.149 5.028zm0-7.56c1.163 0 2.598.421 2.598 2.532 0 1.92-1.163 3.454-2.598 3.454-1.435 0-2.598-1.535-2.598-3.454 0-2.072 1.435-2.533 2.598-2.533zm-7.367 27.709l-.504-.115-.272.422C10.082 30.665 8.88 31.28 7.6 31.28s-2.443-.614-3.257-1.727l-.31-.422-.504.115C1.512 29.667 0 31.395 0 33.39V36h15.2v-2.61c0-1.995-1.473-3.723-3.567-4.145zM1.55 34.465V33.39c0-1.113.776-2.11 1.9-2.533 1.086 1.228 2.56 1.92 4.188 1.92a5.44 5.44 0 004.149-1.92c1.124.384 1.9 1.42 1.9 2.533v1.075H1.55z"/>
    <path d="M7.6 29.936c2.288 0 4.149-2.226 4.149-4.99 0-2.532-1.59-4.068-4.149-4.068-2.56 0-4.11 1.574-4.11 4.069 0 2.763 1.822 4.989 4.11 4.989zm0-7.522c1.163 0 2.598.422 2.598 2.533 0 1.919-1.163 3.454-2.598 3.454-1.435 0-2.598-1.535-2.598-3.454.039-2.111 1.435-2.533 2.598-2.533zm26.833 6.831l-.504-.115-.31.422c-.776 1.113-1.978 1.727-3.258 1.727s-2.443-.614-3.257-1.727l-.31-.422-.427.115c-2.055.422-3.567 2.15-3.567 4.145V36H38v-2.61c0-1.995-1.512-3.723-3.567-4.145zm-10.082 5.22V33.39c0-1.113.776-2.11 1.9-2.533 1.086 1.228 2.56 1.92 4.188 1.92a5.38 5.38 0 004.149-1.92c1.124.384 1.9 1.42 1.9 2.533v1.075H24.35z"/>
    <path d="M26.251 24.947c0 2.763 1.861 4.989 4.149 4.989 2.288 0 4.149-2.226 4.149-4.99 0-2.532-1.59-4.068-4.149-4.068-2.56 0-4.149 1.574-4.149 4.069zm6.708 0c0 1.919-1.163 3.454-2.598 3.454-1.434 0-2.598-1.535-2.598-3.454 0-2.111 1.396-2.533 2.598-2.533s2.598.422 2.598 2.533zm-1.589-8.789c0 1.036-.117 2.072-.388 3.07l1.512.384c.31-1.113.426-2.303.426-3.454 0-5.297-2.985-10.017-7.755-12.358l-.698 1.381c4.266 2.073 6.902 6.295 6.902 10.977zM24.971 26.52c-1.822.998-3.877 1.497-5.971 1.497-2.133 0-4.265-.537-6.127-1.612l-.775 1.343a13.882 13.882 0 006.863 1.804c2.327 0 4.653-.575 6.708-1.689l-.698-1.343zM7.018 19.228a11.698 11.698 0 01-.387-3.07c0-4.683 2.636-8.904 6.863-10.977L12.796 3.8C8.066 6.14 5.08 10.9 5.08 16.158c0 1.19.155 2.34.426 3.454l1.512-.384z"/>
</svg>
