<svg xmlns="http://www.w3.org/2000/svg" viewBox="0 0 36 40">
    <path d="M27.844 18.445a6.51 6.51 0 002.635-2.835A4.594 4.594 0 0035.063 20a.656.656 0 00.656-.656V8.187A4.594 4.594 0 0031.256 3.6 7.237 7.237 0 0025.22.312h-1.313a7.227 7.227 0 00-7.218 7.22v1.677A2.617 2.617 0 0018 14.094h.146a6.499 6.499 0 003.135 4.35l-.008 2.924-2.114.192a.644.644 0 00-.503-.247H14.72a.656.656 0 00-.656.656v1.13c-.06.058-.118.119-.174.182h-1.14v-.656a.656.656 0 00-.656-.656H7.5a.656.656 0 00-.637.496l-.204.816H5.531V21.97a.656.656 0 00-.656-.657H.937a.656.656 0 00-.656.657v6.562a.656.656 0 00.656.657h3.938a.656.656 0 00.656-.657V27.22h1.393l.576 1.438v8.096a2.903 2.903 0 00.826 2.077 2.858 2.858 0 002.081.858h.046a2.948 2.948 0 002.776-1.983l2.953-4.295c.004.027.013.053.018.08a5.473 5.473 0 00.12.55l.037.123c.027.093.059.184.092.275.023.066.046.131.072.197.013.032.024.066.037.095.02.046.042.089.066.13.024.043.041.091.066.136.027.056.051.113.08.168.021.04.047.079.066.118.037.066.073.131.112.193.026.043.051.087.079.131.045.07.095.136.143.204l.06.086c.022.029.038.059.06.086l.054 3.715 1.312-.019v-.014l-.046-3.258h11.859v3.282h1.312V35.98c.038-.05.071-.102.107-.152.036-.05.082-.113.121-.172.066-.095.123-.196.181-.292.03-.052.066-.104.092-.157.066-.117.121-.237.177-.358.017-.037.036-.073.051-.11.141-.329.251-.67.329-1.02v-.008c.038-.175.065-.35.09-.525v-.024a5.727 5.727 0 00-.615-3.356l-.029-.054a5.759 5.759 0 00-.439-.694 3.003 3.003 0 00-.108-.15l-.944-5.672 1.409.234a2.629 2.629 0 012.203 2.593v13.623h1.313V26.065a3.938 3.938 0 00-3.291-3.89l-2.297-.38c-.007 0-.013-.006-.02-.006l-2.157-.355-.11-.022v-2.966zm-23.625 9.43H1.594v-5.25h2.625v5.25zm1.312-1.969v-1.312h.8l-.124.496a.663.663 0 00.027.404l.165.412h-.868zm7.875 9.122l-.656-6.497v-.27l.499-1.042h.813v1.312a.656.656 0 00.657.657h2.455c-.028.04-.053.083-.08.123a5.875 5.875 0 00-.29.488c-.02.039-.041.077-.06.116a6.542 6.542 0 00-.18.393l-.041.096a5.559 5.559 0 00-.144.412l-2.973 4.322v-.11zM21.937 22.5a1.312 1.312 0 00.657-1.128V19.03a6.347 6.347 0 003.937 0v2.38a1.313 1.313 0 00.657 1.141v3.354a2.625 2.625 0 01-5.25 0V22.5zm9.188-9.719v-2.625a1.312 1.312 0 010 2.625zm3.281-4.594v10.435a3.287 3.287 0 01-2.625-3.216v-1.405a2.61 2.61 0 00.657-4.791V7.53a7.194 7.194 0 00-.46-2.498 3.277 3.277 0 012.428 3.154zM18 7.532a5.914 5.914 0 015.906-5.906h1.313a5.93 5.93 0 015.086 2.905.73.73 0 00.029.055c.517.895.79 1.912.791 2.946v1.313h-.25l-2.44-4.887a.655.655 0 00-.998-.22c-.051.042-5.188 4.122-8.925 4.96-.177.04-.347.072-.51.096L18 7.53zm-1.313 3.938A1.313 1.313 0 0118 10.156v2.625a1.312 1.312 0 01-1.313-1.312zm2.625 1.312V9.843c3.15-.888 6.835-3.488 8.3-4.588l2.2 4.4v3.126a5.22 5.22 0 01-2.918 4.703 5.33 5.33 0 01-4.664 0 5.22 5.22 0 01-2.918-4.703zm-3.937 9.844H18v5.25h-2.625v-5.25zm-1.313 1.969v1.312H12.75v-1.312h1.313zm-1.968 12.14a1.64 1.64 0 01-3.281 0v-8.203a.664.664 0 00-.047-.244l-1.234-3.084.48-1.922h3.425v5.316l.657 6.497v1.64zm18.383-7.44c.02.116.07.226.147.316.119.148.229.302.328.464.057.09.12.178.17.271.154.297.278.609.37.93.03.105.061.209.083.315.026.131.04.262.055.394a4.232 4.232 0 01.015.789c-.006.095-.011.19-.024.283-.021.148-.05.294-.086.439-.026.11-.052.22-.087.328a4.054 4.054 0 01-.147.38 4.284 4.284 0 01-.157.339c-.059.11-.131.227-.205.337a4.455 4.455 0 01-.15.215H18.284a4.409 4.409 0 01-.254-.365l-.053-.09a4.267 4.267 0 01-.277-.61l-.009-.02c-.014-.04-.025-.081-.038-.122a4.328 4.328 0 01-.131-.525l-.012-.06a4.44 4.44 0 01-.068-.702c0-.091 0-.183.006-.275.007-.15.021-.3.043-.449.01-.066.013-.126.024-.19.04-.201.092-.4.158-.595.02-.06.039-.119.06-.177.078-.2.17-.393.274-.58.028-.051.06-.1.09-.15.12-.2.255-.393.404-.573a.657.657 0 00.145-.319l.02-.105a.656.656 0 00.648-.656V25.26l.398-2.419.914-.06v3.126a3.937 3.937 0 107.875 0v-3.054l.933.155 1.044 6.286z"/>
    <path d="M22.594 10.484a.984.984 0 10-1.969 0 .984.984 0 001.969 0zm4.922.985a.984.984 0 100-1.969.984.984 0 000 1.969zm-4.922 3.281h1.221a6.135 6.135 0 003.044-.745l-.656-1.135a4.885 4.885 0 01-2.388.568h-1.221v1.312z"/>
</svg>
