<svg xmlns="http://www.w3.org/2000/svg" viewBox="0 0 36 37">
    <path d="M35.094 25.29h-1.335l-2.861-2.842a7.06 7.06 0 00.668-3.035c0-3.323-2.146-6.117-5.102-7.033l1.335-7.9 1.573-.337c1.621-.386 2.718-1.397 2.956-2.698L32.52.337 30.66 0l-.238 1.108c-.095.482-.667.963-1.478 1.108l-6.008 1.397.43 1.879 2.431-.578-1.24 7.08h-.334c-2.288 0-4.434 1.109-5.817 2.94l-6.341-1.205-1.526-7.13h4.148v-.963c0-1.06-.763-3.71-4.339-3.71H6.389c-1.287 0-2.336 1.06-2.336 2.361 0 1.301 1.049 2.36 2.336 2.36H8.63l1.479 6.986H9.87c-3.194 0-5.77 2.601-5.77 5.829 0 1.156.334 2.215.907 3.13l-2.718 2.699H.954a.961.961 0 00-.954.963c0 .53.43.963.954.963h4.863a.961.961 0 00.954-.963c0-.53-.43-.963-.954-.963h-.81l1.335-1.301c1.001.77 2.193 1.252 3.576 1.252h1.526l6.961-1.349c1.383 1.831 3.529 2.939 5.817 2.939 2.29 0 4.292-1.06 5.627-2.698l1.144 1.157h-.81a.961.961 0 00-.954.963c0 .53.43.963.954.963h4.863a.961.961 0 00.954-.963c0-.53-.382-.963-.906-.963zM5.96 4.288a.43.43 0 01.43-.433h3.957c1.192 0 1.812.385 2.098.819H6.389c-.238 0-.429-.193-.429-.386zm5.293 19.028H9.87c-2.098 0-3.862-1.734-3.862-3.902 0-2.12 1.716-3.902 3.862-3.902h1.383l12.826 2.457c.716.145 1.526.482 1.526 1.397 0 .771-.524 1.253-1.573 1.397l-12.779 2.553zm12.97 1.59c-1.336 0-2.623-.53-3.624-1.445l3.767-.723c1.954-.289 3.147-1.59 3.147-3.324 0-1.686-1.193-2.986-3.1-3.323l-3.814-.723c1.001-.915 2.288-1.445 3.623-1.445 3.005 0 5.389 2.457 5.389 5.443 0 2.987-2.384 5.54-5.389 5.54z"/>
    <path d="M11.825 16.571l-1.001 1.012c-.143-.048-.286-.048-.43-.048-1 0-1.859.819-1.859 1.878 0 1.012.81 1.88 1.86 1.88 1.049 0 1.86-.82 1.86-1.88 0-.144-.048-.289-.048-.433l.476-.482h1.05v-1.927h-1.908zM8.583 29.915H6.676v2.216H3.624v-2.216H1.717v.963H0v4.432h1.717v.964h1.907v-2.216h3.052v2.216h1.907v-.964h1.764v-4.432H8.583v-.963zm26.416 3.902l-3.815-4.24c-.334-.385-.858-.625-1.335-.625H18.501c-.573 0-1.05.24-1.43.674l-3.434 4.24c-.477.577-.572 1.3-.238 1.974.286.675.953 1.06 1.669 1.06h18.596c.715 0 1.382-.434 1.669-1.108.285-.674.19-1.445-.334-1.975zM15.21 34.973l3.337-4.095H29.8l3.672 4.095H15.21z"/>
</svg>
