<svg xmlns="http://www.w3.org/2000/svg" viewBox="0 0 40 40">
    <path d="M16.875 15.628v-1.25a.975.975 0 00.947-.74l.158-.631a2.505 2.505 0 01-1.73-2.379v-.625a1.875 1.875 0 011.875-1.875h.238l.075-.148a6.892 6.892 0 013.357-3.208l3.576-1.59.507 1.143-3.575 1.589a5.638 5.638 0 00-2.747 2.625l-.25.494a.625.625 0 01-.556.345h-.625a.625.625 0 00-.625.625v.625a1.25 1.25 0 001.25 1.25.624.624 0 01.606.777l-.321 1.287a2.223 2.223 0 01-2.16 1.686zm-4.294-7.604a4.376 4.376 0 116.062-6.062l-1.039.689a3.124 3.124 0 10-4.332 4.332l-.691 1.041z"/>
    <path d="M19.375 8.753h-1.25v1.875h1.25V8.753zm4.095 8.687l-3.75-1.874a.625.625 0 01-.28-.28l-1.25-2.5 1.12-.559 1.155 2.313 3.563 1.78-.558 1.12zm9.213-5.38l-7.5 7.5.883.885 7.5-7.5-.883-.884z"/>
    <path d="M30.315 10.036l-.63 1.08 4.374 2.552.63-1.08-4.374-2.552zM27.99 21.239l-5.136-1.142a1.242 1.242 0 01-.98-1.219v-.75a1.875 1.875 0 011.876-1.875h.625a1.875 1.875 0 001.875-1.875v-1.25a.624.624 0 01.427-.592l1.063-.355a.56.56 0 00.27-.868l-1.635-2.185a.625.625 0 01-.125-.375v-1.25a5.005 5.005 0 00-5-5h-1.875c-3.677.025-6.19 2.792-6.25 6.885-.033 2.288 1.674 3.567 3.578 4.781a1.72 1.72 0 01.797 1.46v1.797a3.122 3.122 0 01-2.367 3.032l-3.106.776-.304-1.212 3.107-.776a1.875 1.875 0 001.42-1.82v-1.798a.477.477 0 00-.219-.405c-2.125-1.355-4.198-2.924-4.156-5.854.07-4.75 3.151-8.087 7.496-8.115h1.879a6.257 6.257 0 016.25 6.25v1.041l1.512 2.02a1.813 1.813 0 01-.875 2.805l-.637.212v.796a3.129 3.129 0 01-3.125 3.125h-.625a.625.625 0 00-.625.625v.75l5.135 1.14-.27 1.22zM7.317 12.061l-.884.884 1.25 1.251.885-.884-1.251-1.25z"/>
    <path d="M9.818 14.562l-.884.884 5 4.999.883-.884-5-5zm2.346-6.336L5.29 12.602l.671 1.054 6.874-4.376-.67-1.054zm21.429 12.476l-.937-.824 5.433-6.17a2.954 2.954 0 00-1.242-4.625l-10.712-4.08h-.51v-1.25h.625c.076 0 .151.014.222.041l10.82 4.125a4.204 4.204 0 011.75 6.6l-5.449 6.183zM27.5 40.003h-15a.625.625 0 01-.625-.625v-1.25c0-.058.008-.116.024-.171l.357-1.25 1.202.342-.333 1.166v.538h13.75v-.538l-.612-2.14a3.98 3.98 0 011.283-4.162 8.145 8.145 0 001.61-3.571l.794-4.956c.056-.35.21-.677.445-.943l1.411-1.603.938.826-1.412 1.605a.616.616 0 00-.148.312l-.797 4.97a9.414 9.414 0 01-1.906 4.192.673.673 0 01-.096.097 2.733 2.733 0 00-.92 2.889l.635 2.226a.605.605 0 01.024.17v1.25a.625.625 0 01-.624.626zm-16.363-7.769a9.312 9.312 0 01-1.523-3.669l-.054-.338 1.234-.197.052.325a8.07 8.07 0 001.318 3.167l-1.027.712z"/>
    <path d="M7.806 22.291L.972 14.533a4.204 4.204 0 011.736-6.616l8.3-3.49.484 1.153-8.32 3.5a2.953 2.953 0 00-1.25 4.645l6.822 7.74-.938.826zm17.819 17.087h-1.25v-2.5a7.344 7.344 0 00-.292-1.706 8.49 8.49 0 01-.333-2.044 3.246 3.246 0 01.85-1.969c.2-.247.375-.515.52-.798a3.44 3.44 0 00.422-2.417 4.223 4.223 0 00-.339-.73 4.996 4.996 0 01-.446-.995 5.08 5.08 0 01-.147-1.484 6.988 6.988 0 00-.024-.764.655.655 0 00-.068-.276.695.695 0 00-.276-.161 5.011 5.011 0 00-2.375-.406H18.75c-.79-.024-1.579.044-2.352.2l-.295-1.214c.868-.18 1.755-.259 2.642-.236h3.13a6.233 6.233 0 012.839.5c.33.116.618.326.83.604.165.256.263.55.284.853.028.3.039.603.032.905-.02.38.012.76.097 1.13.089.261.204.512.345.75.178.304.324.625.437.959a4.732 4.732 0 01-.483 3.312 5.71 5.71 0 01-.654 1.02A2.14 2.14 0 0025 33.127c.03.59.128 1.175.296 1.741.19.654.301 1.328.329 2.009v2.5z"/>
    <path d="M16.173 30.628H15a.623.623 0 01-.152-.019l-2.5-.625a.603.603 0 01-.113-.04l-1.906-.893a1.25 1.25 0 01-.057-.03 1.87 1.87 0 00-.965-.268H.625v-1.25h8.682c.555 0 1.1.148 1.579.429l1.824.855 2.367.591h1.096a.077.077 0 00.019-.152l-1.97-.492a.625.625 0 01.153-1.23h3.75a.625.625 0 00.625-.626v-2.224a.624.624 0 00-.428-.593l-2.799-.933h-3.547l-1.779.593a.623.623 0 01-.197.032H.625v-1.25h9.274l1.778-.592a.622.622 0 01.198-.033h3.75c.067 0 .133.011.197.033l2.896.967A1.874 1.874 0 0120 24.654v2.224a1.875 1.875 0 01-1.875 1.875h-.743a1.328 1.328 0 01-1.21 1.875zm-14.298.625H.625v1.25h1.25v-1.25z"/>
    <path d="M19.375 38.128h-3.75a.622.622 0 01-.198-.033l-1.778-.592H.625v-1.25H13.75c.067 0 .134.011.197.032l1.779.593h3.547l2.8-.933a.625.625 0 00.427-.593v-2.224a.625.625 0 00-.625-.625h-3.75a.625.625 0 01-.152-1.231l1.969-.492a.077.077 0 00.059-.085.076.076 0 00-.078-.067h-1.096l-2.367.591-1.824.855a3.126 3.126 0 01-1.579.429H3.125v-1.25h9.932c.34 0 .674-.092.965-.268a.69.69 0 01.056-.03l1.907-.893a.606.606 0 01.113-.04l2.5-.625c.05-.013.1-.019.152-.019h1.173a1.33 1.33 0 011.21 1.875h.742a1.875 1.875 0 011.875 1.875v2.224a1.875 1.875 0 01-1.282 1.776l-2.896.965a.624.624 0 01-.197.035z"/>
</svg>
