<svg xmlns="http://www.w3.org/2000/svg" viewBox="0 0 20 20">
    <path d="M11.7 20.1c-1.7 0-3-1.3-3-3 0-.8.3-1.5.8-2.1V2.1c0-1.2 1-2.2 2.2-2.2 1.2 0 2.2 1 2.2 2.2V15c.5.6.8 1.3.8 2.1 0 1.6-1.4 3-3 3zm0-19.2c-.6 0-1.2.5-1.2 1.2v13.1c0 .1-.1.3-.2.4-.4.4-.7.9-.7 1.5 0 1.1.9 2 2 2s2-.9 2-2c0-.6-.2-1.1-.7-1.5-.1-.1-.2-.2-.2-.4V2.1c.1-.7-.4-1.2-1-1.2z"/>
    <path d="M11.7 18.4c-.7 0-1.3-.6-1.3-1.3s.6-1.3 1.3-1.3 1.3.6 1.3 1.3-.6 1.3-1.3 1.3zm0-1.6c-.2 0-.3.1-.3.3 0 .2.2.3.3.3s.3-.1.3-.3c0-.2-.1-.3-.3-.3z"/>
    <path d="M11.7 16.8c-.3 0-.5-.2-.5-.5V8.8c0-.3.2-.5.5-.5s.5.2.5.5v7.5c0 .2-.3.5-.5.5zm-3.4-2.6H5.8c-.3 0-.5-.2-.5-.5s.2-.5.5-.5h2.5c.3 0 .5.2.5.5s-.2.5-.5.5zm0-1.6h-.8c-.3 0-.5-.2-.5-.5s.2-.5.5-.5h.8c.3 0 .5.2.5.5s-.2.5-.5.5zm0-1.7h-.8c-.3 0-.5-.2-.5-.5s.2-.5.5-.5h.8c.3 0 .5.2.5.5s-.2.5-.5.5zm0-1.7H5.8c-.2 0-.5-.2-.5-.4s.2-.5.5-.5h2.5c.3 0 .5.2.5.5s-.2.4-.5.4zm0-5H5.8c-.2 0-.5-.2-.5-.4s.2-.5.5-.5h2.5c.3 0 .5.2.5.5s-.2.4-.5.4zm0 3.4h-.8c-.3 0-.5-.2-.5-.5s.2-.5.5-.5h.8c.3 0 .5.2.5.5s-.2.5-.5.5zm0-1.7h-.8c-.3 0-.5-.2-.5-.5s.2-.5.5-.5h.8c.3 0 .5.2.5.5s-.2.5-.5.5z"/>
</svg>
