<svg xmlns="http://www.w3.org/2000/svg" viewBox="0 0 16 20">
    <path d="M4.5 14a1.5 1.5 0 100-3 1.5 1.5 0 000 3zm7 0a1.5 1.5 0 100-3 1.5 1.5 0 000 3z"/>
    <path d="M14.871 1.335C13.715.037 12.509 0 12.375 0H3.621c-.224 0-1.399.065-2.503 1.351C.031 2.616 0 3.862 0 4v12a1 1 0 001 1h2l-2 3h2.317l.667-1h8l.677 1H15l-2-3h2a1 1 0 001-1V4c.001-.187-.032-1.434-1.129-2.665zM3.625 2l8.711-.001c.02.002.491.049 1.041.666.102.114.182.226.253.335H2.39c.072-.113.143-.227.246-.347.527-.614.988-.652.989-.653zM2 6V5h12v3H2V6zm12 9H2v-5h12v5z"/>
</svg>
