<svg width="25" height="34" viewBox="0 0 25 34" fill="none" xmlns="http://www.w3.org/2000/svg">
<path d="M13.1617 17.6301L14.6617 19.1301V18.3825M13.1617 17.6301H13.906M13.1617 17.6301V19.7514L11.6617 15.3957V16.3648M13.1617 17.6301L12.6349 18.1569M13.906 17.6301L14.6617 18.3825M13.906 17.6301H14.6617V18.3825M13.906 17.6301L13.5331 17.2588L12.6349 16.3646M14.6617 18.3825L16.4785 20.1913M16.4785 20.1913L17.1613 19.5084M16.4785 20.1913L16.4787 20.1915M16.4785 20.1913L16.4607 20.2091M12.6349 16.3646V15.3928L12.8405 15.1875M12.6349 16.3646V17.6301V18.1569M12.6349 16.3646L12.1476 15.8795L11.6617 16.3648M12.8405 15.1875L14.2224 16.5695L17.1613 19.5084M12.8405 15.1875L12.8465 15.1814L12.8821 15.1459L12.9152 15.1081C12.8931 15.1334 12.8697 15.1575 12.8453 15.1802C12.8432 15.1822 12.8411 15.1841 12.839 15.1861L12.8405 15.1875ZM17.1613 19.5084L17.1616 19.5087C17.1679 19.5021 17.1742 19.4955 17.1807 19.4891L17.1613 19.5084ZM16.4787 20.1915L16.4575 20.2122L16.4607 20.2091M16.4787 20.1915C16.4726 20.1973 16.4666 20.2031 16.4607 20.2091M16.4787 20.1915L16.4607 20.2091M16.4787 20.1915C16.5664 20.1085 16.6685 20.042 16.7802 19.9956C16.8259 19.9766 16.8729 19.961 16.9207 19.9491C16.9011 20.0276 16.8911 20.1084 16.8911 20.1897C16.8911 20.2166 16.8922 20.2433 16.8943 20.27C16.9027 20.3733 16.9273 20.4748 16.9672 20.5709C17.0072 20.6669 17.0619 20.7559 17.1292 20.8347C17.1396 20.8468 17.1503 20.8588 17.1613 20.8704C17.1653 20.8746 17.1693 20.8788 17.1734 20.883C17.1758 20.8854 17.1782 20.8879 17.1807 20.8904M16.4787 20.1915L17.1807 20.8904M17.1807 20.8904C17.1811 20.8908 17.1814 20.8911 17.1818 20.8915L17.1807 20.8904ZM11.1349 17.6301V19.7556L11.6617 19.2268L11.1349 17.6301ZM11.1349 17.6301L11.6617 18.1548V17.6301V16.3648M11.1349 17.6301H10.3948L10.7644 17.261L11.6617 16.3648M12.6349 18.1569L12.1503 18.6415L12.6349 18.1569ZM7.84637 20.2194L7.8432 20.2163C7.84426 20.2173 7.84531 20.2184 7.84637 20.2194Z" fill="#F9F9F9" stroke="#E8E8E8" stroke-width="3"/>
</svg>
