<svg xmlns="http://www.w3.org/2000/svg" viewBox="0 0 25 18">
    <path d="M22.7 18h-20c-1.1 0-2-.9-2-2V2c0-1.1.9-2 2-2h20c1.1 0 2 .9 2 2v14c0 1.1-.9 2-2 2zM2.6 1c-.6 0-1 .4-1 1v14c0 .6.4 1 1 1h20c.6 0 1-.4 1-1V2c0-.6-.5-1-1-1h-20z"/>
    <path d="M10.4 7.1l-.1-.1h-1l-.1.1-1.1 2.6-.1-.4c-.2-.4-.7-1-1.3-1.4h-.2l-.1.1.9 2.9c.1.1.2.1.2.1h1.1c.1 0 .1 0 .1-.1l1.7-3.7c.1-.1.1-.1 0-.1zM7.5 8.4h.2c.1 0 .1-.1.1-.1l-.2-1C7.5 7 7.2 7 7 7H5.8c-.1 0-.1 0-.1.1s0 .1.1.1c.7.3 1.3.7 1.7 1.2zM12 7h-.9s-.1 0-.1.1l-.7 3.7v.1h1c.1 0 .1 0 .1-.1l.7-3.7V7H12zm6.8.1c0-.1-.1-.1-.1-.1h-.8c-.3 0-.5.1-.6.3l-1.7 3.5v.1l.1.1h.9c.1 0 .1 0 .1-.1.1-.3.2-.5.2-.5h1.5c0 .1.1.4.1.5 0 .1.1.1.1.1h.9v-.1l-.7-3.8zm-1.5 2.5l.6-1.5.1.3.3 1.2h-1zm-2.7-1.8c.4 0 .6.1.8.1h.1s.1 0 .1-.1l.1-.6c0-.1 0-.1-.1-.1-.2 0-.6-.1-1-.1-1.1 0-1.9.5-1.9 1.3 0 .6.6.9 1 1 .4.2.6.3.6.5 0 .3-.4.4-.7.4-.5 0-.7-.1-1.1-.2h-.1s-.1 0-.1.1l-.1.6c0 .1 0 .1.1.1.3.1.7.2 1.2.2 1.2 0 2-.5 2-1.3 0-.4-.3-.8-1-1-.4-.2-.6-.3-.6-.5s.2-.4.7-.4z"/>
</svg>
