<svg xmlns="http://www.w3.org/2000/svg" viewBox="0 0 21 20">
    <path d="M5.8 14c-.2 0-.4-.1-.5-.4-.2-.9-1-1.5-1.9-1.5-.4 0-.7.1-1 .3-.1.1-.3.1-.4.1-.1 0-.2-.1-.3-.2l-1-1.8c-.5-.9-.2-2 .6-2.4L13.4 1c.4-.2.9-.3 1.3-.2.4.1.8.4 1.1.8l1 1.8c.1.1.1.3 0 .4 0 .1-.1.2-.2.3-.6.4-1 1-1 1.7 0 .4.1.7.3 1 .1.2.1.5-.2.7-.2.1-.5.1-.7-.2-.3-.5-.4-1-.4-1.5 0-.9.4-1.8 1.1-2.3l-.8-1.4c-.1-.2-.3-.3-.4-.3-.2 0-.4 0-.6.1l-12.1 7c-.4.2-.5.7-.3 1l.8 1.4c.3-.1.7-.2 1.1-.2 1.4 0 2.5.9 2.9 2.2.1.4-.1.7-.3.7h-.2z"/>
    <path d="M18.8 19.2H4.7c-1 0-1.7-.8-1.7-1.8v-2.1c0-.3.2-.5.5-.5 1.1 0 2-.9 2-2s-.9-2-2-2c-.3 0-.5-.2-.5-.5v-2c0-1 .8-1.8 1.7-1.8h14.1c1 0 1.7.8 1.7 1.8v2.1c0 .3-.2.5-.5.5-1.1 0-2 .9-2 2s.9 2 2 2c.3 0 .5.2.5.5v2.1c.1 1-.7 1.7-1.7 1.7zM3.9 15.9v1.6c0 .4.3.8.7.8h14.1c.4 0 .7-.3.7-.8v-1.6c-1.4-.2-2.5-1.5-2.5-3s1.1-2.7 2.5-3V8.3c0-.4-.3-.8-.7-.8h-14c-.4 0-.7.3-.7.8V10c1.4.2 2.5 1.5 2.5 3s-1.2 2.6-2.6 2.9z"/>
    <path d="M8.4 8.9c-.3 0-.5-.2-.5-.5v-.9c0-.3.2-.5.5-.5s.5.2.5.5v.9c0 .3-.2.5-.5.5zm0 3.4c-.3 0-.5-.2-.5-.5V11c0-.3.2-.5.5-.5s.5.2.5.5v.8c0 .2-.2.5-.5.5zm0 3.3c-.3 0-.5-.2-.5-.5v-.8c0-.3.2-.5.5-.5s.5.2.5.5v.8c0 .3-.2.5-.5.5zm0 3.3c-.3 0-.5-.2-.5-.5v-.8c0-.3.2-.5.5-.5s.5.2.5.5v.8c0 .3-.2.5-.5.5zm2.5-2.1c-.1 0-.2 0-.3-.1-.2-.2-.3-.5-.1-.7l5-6.7c.2-.2.5-.3.7-.1.2.2.3.5.1.7l-5 6.7c-.1.1-.2.2-.4.2zm.8-4.2c-.7 0-1.3-.8-1.3-1.7 0-1 .6-1.8 1.3-1.8.7 0 1.3.8 1.3 1.8.1.9-.5 1.7-1.3 1.7zm0-2.5c-.1 0-.3.3-.3.8s.2.7.3.7.3-.3.3-.7c.1-.6-.2-.8-.3-.8zm3.4 6.7c-.7 0-1.3-.8-1.3-1.8s.6-1.8 1.3-1.8c.7 0 1.3.8 1.3 1.8s-.6 1.8-1.3 1.8zm0-2.6c-.1 0-.3.3-.3.8s.2.8.3.8c.1 0 .3-.3.3-.8s-.2-.8-.3-.8z"/>
</svg>
