<svg xmlns="http://www.w3.org/2000/svg" viewBox="0 0 20 20">
    <path d="M19.6 8.4h-1.7c-.3 0-.5-.2-.5-.5s.2-.5.5-.5h1.7c.3 0 .5.2.5.5s-.2.5-.5.5zm-8.8-2.9c-.1 0-.3 0-.4-.1L9.3 4.1c-.2-.1-.2-.5 0-.7s.5-.2.7 0l1.2 1.2c.2.2.2.5 0 .7-.1.1-.3.2-.4.2zm3-1.3c-.3 0-.5-.2-.5-.5V2.1c0-.3.2-.5.5-.5s.5.2.5.5v1.7c-.1.2-.3.4-.5.4zm2.9 1.3c-.1 0-.3 0-.4-.1-.2-.2-.2-.5 0-.7l1.2-1.2c.2-.2.5-.2.7 0s.2.5 0 .7L17 5.3c0 .1-.2.2-.3.2z"/>
    <path d="M16.4 11.6c-.1 0-.3-.1-.4-.2-.2-.2-.1-.5.1-.7.9-.7 1.4-1.7 1.4-2.8 0-2-1.6-3.7-3.7-3.7-1.8 0-3.4 1.4-3.6 3.2 0 .3-.3.5-.6.4-.3 0-.5-.3-.4-.6.3-2.3 2.3-4.1 4.6-4.1 2.6 0 4.7 2.1 4.7 4.7 0 1.4-.6 2.7-1.7 3.6-.2.2-.3.2-.4.2z"/>
    <path d="M14.2 18.4H3.3c-1.9 0-3.4-1.5-3.4-3.4s1.5-3.4 3.4-3.4c.3 0 .5.2.5.5s-.2.5-.5.5C2 12.6.9 13.7.9 15s1.1 2.4 2.4 2.4h10.8c1.8 0 3.2-1.5 3.2-3.2s-1.5-3.3-3.2-3.3c-.7 0-1.3.2-1.8.6-.2.2-.5.1-.7-.1-.2-.2-.1-.5.1-.7.7-.5 1.5-.7 2.4-.7 2.3 0 4.2 1.9 4.2 4.3s-1.8 4.1-4.1 4.1z"/>
    <path d="M2.5 12.7c-.3 0-.5-.2-.5-.5.2-3.2 2.8-5.6 5.9-5.6 2.5 0 4.7 1.5 5.5 3.9.1.3 0 .5-.3.6-.3.1-.5 0-.6-.3-.7-1.9-2.5-3.2-4.6-3.2-2.6 0-4.8 2-4.9 4.7 0 .2-.2.4-.5.4z"/>
</svg>
