<svg xmlns="http://www.w3.org/2000/svg" viewBox="0 0 45 33">
    <path d="M44.764 27.212c-.215-.186-5.284-4.528-11.62-4.528l-.143.001a15.893 15.893 0 00-6.782 1.695c1.5-2.51 2.96-5.93 2.96-9.754 0-7.69-5.907-14.14-6.159-14.41A.727.727 0 0022.5 0a.74.74 0 00-.52.215c-.252.27-6.16 6.72-6.16 14.411 0 3.825 1.46 7.244 2.96 9.753a15.895 15.895 0 00-6.924-1.695c-6.335 0-11.406 4.342-11.62 4.528a.69.69 0 00-.236.506.674.674 0 00.225.512c.21.192 5.248 4.703 11.652 4.77h.142c4.88 0 8.826-2.577 10.481-3.853C24.152 30.422 28.098 33 32.98 33h.143c6.404-.067 11.441-4.578 11.652-4.77a.688.688 0 00.225-.512.675.675 0 00-.236-.506zM11.89 31.624c-4.614-.048-8.584-2.733-10.078-3.886C3.32 26.627 7.296 24.06 11.86 24.06h.125c4.622.048 8.402 2.743 9.796 3.883-1.42 1.111-5.259 3.716-9.889 3.68zm10.61-4.476c-1.409-1.635-5.273-6.656-5.273-12.522 0-5.86 3.85-11.129 5.273-12.876 1.424 1.745 5.273 7.007 5.273 12.876 0 5.866-3.864 10.887-5.273 12.522zm10.609 4.476c-4.62.039-8.468-2.57-9.889-3.68 1.394-1.14 5.174-3.836 9.796-3.884h.125c4.564 0 8.54 2.568 10.047 3.679-1.49 1.152-5.453 3.837-10.08 3.885z"/>
    <path d="M7.377 21.918a16.939 16.939 0 011.563-.359 19.269 19.269 0 01-3.795-6.224c1.665-.249 5.762-.6 9.375 1.128-.056-.51-.09-1.03-.1-1.557-4.896-2.006-10.12-.83-10.364-.773a.712.712 0 00-.444.322.678.678 0 00-.07.535 20.501 20.501 0 003.835 6.928zm32.478-6.583a19.244 19.244 0 01-3.818 6.249 18 18 0 011.563.362 20.491 20.491 0 003.858-6.956.672.672 0 00-.07-.536.693.693 0 00-.444-.32c-.245-.058-5.468-1.234-10.365.772a16.507 16.507 0 01-.1 1.557c3.614-1.728 7.712-1.377 9.376-1.128zM22.5 12.375c-.556 0-1.1.161-1.563.463a2.764 2.764 0 00-1.035 1.235 2.692 2.692 0 00-.16 1.588c.108.534.376 1.024.77 1.409.393.384.894.646 1.44.752a2.872 2.872 0 001.624-.156 2.8 2.8 0 001.262-1.013 2.7 2.7 0 00-.35-3.472 2.848 2.848 0 00-1.988-.806zm0 4.125c-.278 0-.55-.08-.781-.232a1.383 1.383 0 01-.518-.617 1.347 1.347 0 01.305-1.498c.196-.193.447-.324.72-.377.272-.053.555-.025.812.079a1.4 1.4 0 01.631.506 1.354 1.354 0 01-.175 1.736 1.424 1.424 0 01-.994.403z"/>
</svg>
