<svg xmlns="http://www.w3.org/2000/svg" viewBox="0 0 34 45">
    <path d="M17 18.875a4.818 4.818 0 01-4.813-4.813v-2.75a.687.687 0 01.688-.687 1.963 1.963 0 002.063-2.063.687.687 0 111.374 0c.005.07.159 2.063 4.813 2.063a.687.687 0 01.688.688v2.75A4.818 4.818 0 0117 18.875zm-3.438-6.944v2.132a3.438 3.438 0 006.876 0v-2.078c-2.493-.109-3.855-.809-4.601-1.548a3.37 3.37 0 01-2.274 1.494z"/>
    <path d="M21.813 14.75h-.688v-1.375h.688a.687.687 0 00.687-.688V12h-1.375v-1.375H22.5A1.375 1.375 0 0123.875 12v.687a2.063 2.063 0 01-2.063 2.063zm-8.938 0h-.688a2.063 2.063 0 01-2.062-2.063V12a1.375 1.375 0 011.375-1.375h1.375V12H11.5v.687a.687.687 0 00.688.688h.687v1.375z"/>
    <path d="M23.188 11.313h-1.375V9.937a4.813 4.813 0 00-7.22-4.169l-.687-1.19a6.188 6.188 0 019.281 5.36v1.374zm-11 0h-1.376V9.936a6.187 6.187 0 012.095-4.64l.91 1.031a4.813 4.813 0 00-1.63 3.61v1.374z"/>
    <path d="M19.05 5.584l-1.025-.918a1.375 1.375 0 10-2.051 0l-1.026.915a2.75 2.75 0 114.101 0v.003zM17.688 45h-4.715a2.16 2.16 0 01-.306-4.299l4.825-.497 1.262-.634.619 1.229-1.375.687a.707.707 0 01-.238.069l-4.924.507a.786.786 0 00.138 1.559h4.66l10.807-1.724a1.898 1.898 0 00-.275-3.776h-.708c-1.372 0-2.735.215-4.04.64l-2.684 1.35-.619-1.23 2.73-1.375a.67.67 0 01.094-.038 14.401 14.401 0 014.517-.718h.708a3.273 3.273 0 01.486 6.51l-10.854 1.731a.648.648 0 01-.108.009z"/>
    <path d="M11.383 44.302l-6.05-1.044a3.273 3.273 0 01.503-6.508h.708c1.534 0 3.06.244 4.517.725l3.454 1.386-.512 1.276-3.413-1.371a13.022 13.022 0 00-4.046-.641h-.708a1.898 1.898 0 00-.282 3.775l6.063 1.048-.234 1.354zm12.541-6.609l-1.107-2.767a2.787 2.787 0 00-.626-.95 4.195 4.195 0 01-1.03-4.318.687.687 0 01.165-.27l1.334-1.332a1.802 1.802 0 000-2.55l-1.334-1.332a.687.687 0 01-.201-.486V20.25H22.5v3.153l1.132 1.132a3.176 3.176 0 010 4.493l-1.212 1.211a2.818 2.818 0 00.728 2.75c.41.405.732.89.946 1.424l1.107 2.767-1.277.513z"/>
    <path d="M26.625 31.25H25.25v-6.875a3.442 3.442 0 00-3.438-3.438h-1.375a2.063 2.063 0 01-2.062-2.062V17.5h1.375v1.375a.687.687 0 00.688.687h1.375a4.818 4.818 0 014.812 4.813v6.875z"/>
    <path d="M31.438 38.125h-2.986a3.414 3.414 0 01-2.43-1.007l-2.964-2.45a3.43 3.43 0 01-1.245-2.649v-2.831h1.375v2.831a2.061 2.061 0 00.746 1.59l3.011 2.493a2.13 2.13 0 001.507.648h2.985a.688.688 0 00.688-.688v-.687a.688.688 0 00-.688-.688h-.687a.688.688 0 00-.688.688.688.688 0 01-1.117.537l-3.437-2.75.86-1.074 2.67 2.137a2.062 2.062 0 011.712-.913h.688a2.063 2.063 0 012.062 2.063v.688a2.062 2.062 0 01-2.063 2.062z"/>
    <path d="M30.063 35.375h-1.375v.688h1.375v-.688zm-19.987 2.318l-1.277-.51 1.107-2.768c.21-.53.528-1.01.931-1.412a2.828 2.828 0 00.744-2.764l-1.213-1.211a3.178 3.178 0 010-4.493l1.132-1.132V20.25h1.375v3.438a.687.687 0 01-.201.486l-1.333 1.333a1.803 1.803 0 000 2.549l1.333 1.333a.687.687 0 01.166.269 4.184 4.184 0 01-1.015 4.303c-.279.273-.497.6-.642.962l-1.107 2.77z"/>
    <path d="M8.75 24.375H7.375a4.818 4.818 0 014.813-4.813h1.374a.687.687 0 00.688-.687V17.5h1.375v1.375a2.063 2.063 0 01-2.063 2.062h-1.374a3.442 3.442 0 00-3.438 3.438zm-3.202 13.75H2.562A2.062 2.062 0 01.5 36.062v-.687a2.063 2.063 0 012.063-2.063h.687a2.063 2.063 0 011.712.913l2.413-1.93V25.75H8.75v6.875a.687.687 0 01-.258.537l-3.437 2.75a.687.687 0 01-1.117-.537.688.688 0 00-.688-.688h-.688a.688.688 0 00-.687.688v.688a.687.687 0 00.688.687h2.985a2.074 2.074 0 001.458-.604l3.06-2.538a2.06 2.06 0 00.746-1.589v-2.831h1.376v2.831a3.43 3.43 0 01-1.245 2.648l-3.012 2.495a3.369 3.369 0 01-2.383.963z"/>
    <path d="M5.313 35.375H3.938v.688h1.374v-.688zm13.049 5.365l-1.348.27.687 3.437 1.348-.27-.687-3.437zM17 23c-1.895 0-3.438-1.233-3.438-2.75h1.376c0 .745.944 1.375 2.062 1.375 1.118 0 2.063-.63 2.063-1.375h1.375c0 1.517-1.543 2.75-3.438 2.75zm0 15.125c-7.198 0-7.563-2.29-7.563-2.75h1.376a.338.338 0 00-.006-.069c.005.013.513 1.444 6.193 1.444s6.188-1.431 6.193-1.444a.338.338 0 00-.006.069h1.375c0 .46-.365 2.75-7.562 2.75z"/>
</svg>
