<?xml version="1.0" encoding="utf-8"?>
<!-- Generator: Adobe Illustrator 24.0.1, SVG Export Plug-In . SVG Version: 6.00 Build 0)  -->
<svg version="1.1" id="Calque_1" xmlns="http://www.w3.org/2000/svg" xmlns:xlink="http://www.w3.org/1999/xlink" x="0px" y="0px"
	 viewBox="0 0 56 47.3" style="enable-background:new 0 0 56 47.3;" xml:space="preserve">
<style type="text/css">
	.st0{fill:#F2F2F2;}
</style>
<g>
	<path class="st0" d="M3.3,2.2c4,0,8,0.8,11.7,2.3c3.5,1.6,6.6,3.9,9.3,6.7c0.5-0.5,1-1.1,1.5-1.6c-2.9-2.9-6.3-5.3-10-7.1
		C11.8,0.8,7.6,0,3.3,0H2.9C1.9,0,1,0.1,0,0.2v2.2c1-0.1,1.9-0.2,2.9-0.2L3.3,2.2z M3.3,9c3.4-0.1,6.9,0.5,10,1.9
		c2.5,1.2,4.8,2.9,6.8,4.9c0.5-0.6,1.1-1.1,1.5-1.6c-2.2-2.2-4.7-4-7.4-5.3C10.8,7.4,7.1,6.7,3.3,6.8H2.9C1.9,6.8,0.9,6.8,0,7v2.3
		C1,9.1,1.9,9,2.9,9H3.3z M56,44.6c-1,0.1-1.9,0.2-2.9,0.2h-0.4c-3.9-0.1-7.7-1-11.4-2.5c-4.1-1.7-7.8-4-11.1-6.9
		c0.5-0.5,1.1-1,1.6-1.6c3.1,2.7,6.5,4.8,10.3,6.4c3.3,1.4,6.9,2.2,10.5,2.3h0.4c1,0,1.9-0.1,2.9-0.2V44.6z M56,37.6
		c-0.9,0.1-1.9,0.2-2.9,0.2h-0.4c-4-0.2-8-1.3-11.6-3.1c-2.2-1.1-4.4-2.4-6.3-4l0.9-1l0.3-0.3l0.3-0.3c1.8,1.4,3.7,2.7,5.7,3.6
		c3.3,1.7,6.9,2.6,10.6,2.9h0.4c1,0,1.9-0.1,2.9-0.3V37.6z M56,30.5c-0.9,0.2-1.9,0.3-2.9,0.3h-0.3c-2.9-0.1-5.7-0.7-8.3-1.9
		c-1.8-0.8-3.6-1.8-5.2-3c0.5-0.6,1.1-1.1,1.6-1.6c1.4,1,2.9,1.8,4.5,2.5c2.3,1.1,4.8,1.6,7.3,1.7h0.3c1,0,2-0.1,2.9-0.3L56,30.5z"
		/>
	<path class="st0" d="M56,14.1c-0.9-0.2-1.9-0.3-2.8-0.4h-0.5c-2,0-6.5,0.5-9.6,2.3c-4.1,2.4-7,5.5-10.9,9.7l-0.3,0.3
		c-4.3,4.6-10.1,11-18.1,14.1c-3.3,1.4-6.9,2.2-10.5,2.3H2.9c-1,0-1.9-0.1-2.9-0.2v2.2c1,0.1,1.9,0.2,2.9,0.2h0.4
		c3.9-0.1,7.7-1,11.4-2.5c8.4-3.3,14.5-9.9,18.9-14.6l0.3-0.3c3.8-4.1,6.5-7.1,10.4-9.3c2.6-1.3,5.5-2,8.4-2h0.5
		c1,0,1.9,0.2,2.9,0.4V14.1z"/>
	<path class="st0" d="M56,9.3C55.1,9.1,54.1,9,53.1,9h-0.5c-3.4-0.1-6.9,0.6-10,1.9c-4.3,1.9-8.2,6.2-11,9.4
		c-0.8,0.9-1.5,1.6-2.1,2.2l-0.9,0.9c-2.8,3-7.9,8.5-13.9,11.2c-3.6,1.8-7.6,2.8-11.6,3.1H2.9c-1,0-1.9-0.1-2.9-0.2v-2.3
		c0.9,0.2,1.9,0.2,2.9,0.2h0.4c3.7-0.2,7.3-1.2,10.6-2.9c5.6-2.6,10.5-7.9,13.2-10.7l0.9-1c0.6-0.6,1.3-1.4,2-2.2
		c3-3.3,7-7.8,11.8-9.9c3.4-1.5,7.2-2.2,10.9-2.1h0.5c1,0,1.9,0.1,2.8,0.2V9.3z"/>
	<path class="st0" d="M56,2.4c-1-0.1-1.9-0.2-2.9-0.2h-0.5c-4,0-8,0.8-11.7,2.3c-6,2.5-11.6,8.9-14.2,12l-1,1.1
		c-2.9,3.2-7.6,8.4-14.2,11.3c-2.6,1.2-5.4,1.8-8.2,1.9H2.9c-1,0-1.9-0.1-2.9-0.4v-2.3c0.9,0.2,1.9,0.4,2.9,0.4h0.4
		c2.5-0.1,5-0.7,7.3-1.8c6.2-2.7,10.8-7.7,13.5-10.8L25,15c2.8-3.2,8.6-9.8,15.1-12.5c4-1.6,8.3-2.5,12.6-2.5h0.5c1,0,1.9,0,2.8,0.1
		C56,0.2,55.9,2.3,56,2.4z"/>
	<path class="st0" d="M3.3,16c2.9,0,5.8,0.7,8.4,2c1.2,0.7,2.4,1.6,3.5,2.5c0.6-0.5,1.2-1,1.7-1.5c-1.3-1.1-2.6-2.1-4.1-3
		c-3.1-1.8-7.6-2.3-9.6-2.3H2.8c-1,0-1.9,0.2-2.8,0.4v2.3C0.9,16.1,1.9,16,2.9,16H3.3z"/>
</g>
</svg>
